<svg width="500" height="500" viewBox="0 0 500 500" fill="none" xmlns="http://www.w3.org/2000/svg">
<path d="M408.998 255.09C320.588 204.09 177.718 204.09 89.8783 255.09C2.03828 306.09 2.54829 388.9 90.9983 439.94C179.448 490.98 322.278 490.99 410.118 439.94C497.958 388.89 497.448 306.14 408.998 255.09Z" fill="#F5F5F5"/>
<path d="M60.1266 340.16C53.9266 336.58 43.8966 336.58 37.7366 340.16C31.5766 343.74 31.5966 349.55 37.8066 353.16C44.0166 356.77 54.0366 356.74 60.2066 353.16C66.3766 349.58 66.3366 343.75 60.1266 340.16Z" fill="#E0E0E0"/>
<path d="M452.725 336.66C446.185 332.89 435.615 332.89 429.125 336.66C422.635 340.43 422.655 346.56 429.195 350.33C435.735 354.1 446.305 354.11 452.805 350.33C459.305 346.55 459.265 340.44 452.725 336.66Z" fill="#E0E0E0"/>
<path d="M443.878 361.44L346.998 305.6L261.138 355.22L281.248 366.81C270.348 367.65 259.828 370.48 251.478 375.34C231.288 387.07 231.398 406.09 251.718 417.82C272.038 429.55 304.868 429.55 325.058 417.82C333.438 412.95 338.308 406.82 339.698 400.49L357.998 411.06L443.878 361.44Z" fill="#E0E0E0"/>
<path d="M311.156 257.48L59.9759 404.15L49.3359 398L300.506 251.33L311.156 257.48Z" fill="#E0E0E0"/>
<path d="M64.0012 319.549L49.0012 319.999L34.0012 319.559C33.3012 329.689 35.2812 339.999 38.0012 345.079C38.6607 346.369 39.7105 347.419 41.0012 348.079C45.4312 350.639 52.5912 350.639 57.0012 348.079C58.3133 347.411 59.3679 346.328 60.0012 344.999C62.6812 339.929 64.6412 329.639 64.0012 319.549Z" fill="white"/>
<path d="M59.5591 313.4C65.4391 316.79 65.4791 322.3 59.6291 325.7C53.7791 329.1 44.2691 329.1 38.3791 325.7C32.4891 322.3 32.4691 316.79 38.3091 313.4C44.1491 310.01 53.6691 310 59.5591 313.4Z" fill="#EBEBEB"/>
<path d="M57.2263 314.75C61.8163 317.4 61.8463 321.7 57.2863 324.35C52.7263 327 45.2863 327 40.7063 324.35C36.1263 321.7 36.0863 317.35 40.6563 314.75C45.2263 312.15 52.6363 312.1 57.2263 314.75Z" fill="#E0E0E0"/>
<g opacity="0.15">
<path d="M57.2263 314.75C61.8163 317.4 61.8463 321.7 57.2863 324.35C52.7263 327 45.2863 327 40.7063 324.35C36.1263 321.7 36.0863 317.35 40.6563 314.75C45.2263 312.15 52.6363 312.1 57.2263 314.75Z" fill="black"/>
</g>
<path d="M41.304 288.81C38.854 285.81 36.024 283.05 33.784 279.86C32.254 277.68 30.974 275.02 31.614 272.44C31.9719 271.255 32.6541 270.193 33.5835 269.375C34.513 268.557 35.6528 268.015 36.874 267.81C39.3406 267.441 41.8563 268.001 43.934 269.38C45.9913 270.756 47.7975 272.474 49.274 274.46C57.7298 285.173 61.7273 298.734 60.434 312.32C60.4032 313.874 59.9202 315.386 59.044 316.67C58.4997 317.296 57.788 317.753 56.9927 317.989C56.1974 318.225 55.3514 318.228 54.554 318C50.464 316.78 51.004 311.26 50.334 308C49.4097 303.537 47.8257 299.236 45.634 295.24C44.3827 292.974 42.9337 290.822 41.304 288.81Z" fill="#08803A"/>
<path opacity="0.2" d="M41.304 288.81C38.854 285.81 36.024 283.05 33.784 279.86C32.254 277.68 30.974 275.02 31.614 272.44C31.9719 271.255 32.6541 270.193 33.5835 269.375C34.513 268.557 35.6528 268.015 36.874 267.81C39.3406 267.441 41.8563 268.001 43.934 269.38C45.9913 270.756 47.7975 272.474 49.274 274.46C57.7298 285.173 61.7273 298.734 60.434 312.32C60.4032 313.874 59.9202 315.386 59.044 316.67C58.4997 317.296 57.788 317.753 56.9927 317.989C56.1974 318.225 55.3514 318.228 54.554 318C50.464 316.78 51.004 311.26 50.334 308C49.4097 303.537 47.8257 299.236 45.634 295.24C44.3827 292.974 42.9337 290.822 41.304 288.81Z" fill="black"/>
<path d="M54.8049 313.919C54.7254 313.903 54.6534 313.861 54.6008 313.799C54.5482 313.738 54.5179 313.66 54.5149 313.579C54.2349 307.009 52.0949 284.579 36.6449 271.869C36.6114 271.836 36.5848 271.796 36.5666 271.752C36.5484 271.708 36.5391 271.661 36.5391 271.614C36.5391 271.567 36.5484 271.52 36.5666 271.476C36.5848 271.432 36.6114 271.392 36.6449 271.359C36.6775 271.326 36.7164 271.299 36.7594 271.281C36.8023 271.263 36.8484 271.254 36.8949 271.254C36.9415 271.254 36.9876 271.263 37.0305 271.281C37.0735 271.299 37.1124 271.326 37.1449 271.359C52.7849 284.229 54.9949 306.909 55.2349 313.549C55.2378 313.644 55.2041 313.736 55.1409 313.807C55.0776 313.878 54.9895 313.921 54.8949 313.929L54.8049 313.919Z" fill="#F0F0F0"/>
<path d="M57.0675 314.63C56.7471 316.072 56.1392 317.436 55.2802 318.639C54.4211 319.841 53.3285 320.859 52.0675 321.63C49.7042 322.749 47.0763 323.188 44.4775 322.9C41.8339 322.579 39.2386 321.941 36.7475 321C35.5075 320.58 34.1375 320 33.9975 318.49C33.9756 318.087 34.0431 317.684 34.1952 317.311C34.3474 316.937 34.5804 316.602 34.8775 316.33C35.1283 316.082 35.3955 315.851 35.6775 315.64C35.8049 315.541 35.8996 315.407 35.9493 315.253C35.999 315.1 36.0013 314.936 35.9559 314.781C35.9105 314.627 35.8196 314.49 35.695 314.388C35.5704 314.286 35.4179 314.224 35.2575 314.21C34.5194 314.165 33.7846 314.074 33.0575 313.94C31.3641 313.666 29.7735 312.948 28.4475 311.86C27.48 311.005 26.7468 309.917 26.3175 308.7C26.079 308.205 25.9808 307.654 26.0337 307.108C26.0866 306.561 26.2886 306.039 26.6175 305.6C27.1072 305.198 27.6996 304.942 28.3275 304.86C28.8809 304.74 29.4309 304.64 29.9775 304.56C30.1353 304.533 30.2803 304.457 30.3908 304.341C30.5013 304.225 30.5713 304.077 30.5905 303.918C30.6096 303.76 30.5768 303.599 30.497 303.46C30.4171 303.322 30.2945 303.213 30.1475 303.15L27.8175 302.15C27.1494 301.932 26.5427 301.558 26.0475 301.06C25.7451 300.587 25.5491 300.054 25.4731 299.498C25.3972 298.942 25.443 298.376 25.6075 297.84C25.8875 296.39 26.3875 294.98 26.7375 293.53C27.1414 292.093 27.1928 290.58 26.8875 289.12C31.2581 288.637 35.6796 288.932 39.9475 289.99C41.229 290.259 42.441 290.79 43.5075 291.55C44.1713 292.142 44.6736 292.893 44.9675 293.733C45.2614 294.572 45.3371 295.473 45.1875 296.35C45.187 296.424 45.2108 296.496 45.2553 296.556C45.2998 296.615 45.3626 296.659 45.4341 296.679C45.5056 296.699 45.5817 296.696 45.651 296.669C45.7202 296.642 45.7787 296.593 45.8175 296.53L47.3075 293.78C47.5261 293.383 47.8885 293.085 48.32 292.947C48.7516 292.81 49.2196 292.843 49.6275 293.04C50.9301 293.694 52.0867 294.606 53.0275 295.72C53.5503 296.312 53.9489 297.003 54.1997 297.752C54.4505 298.5 54.5484 299.292 54.4875 300.08C54.3096 302.24 53.9449 304.382 53.3975 306.48C53.369 306.598 53.3773 306.723 53.4214 306.837C53.4655 306.951 53.5433 307.048 53.6444 307.117C53.7454 307.185 53.865 307.221 53.987 307.22C54.1091 307.219 54.2279 307.18 54.3275 307.11L54.3975 307.05C54.8 306.743 55.3038 306.6 55.8075 306.65C57.1175 306.81 57.4575 308.14 57.5475 309.28C57.6031 311.076 57.4419 312.872 57.0675 314.63Z" fill="#08803A"/>
<path opacity="0.2" d="M57.0675 314.63C56.7471 316.072 56.1392 317.436 55.2802 318.639C54.4211 319.841 53.3285 320.859 52.0675 321.63C49.7042 322.749 47.0763 323.188 44.4775 322.9C41.8339 322.579 39.2386 321.941 36.7475 321C35.5075 320.58 34.1375 320 33.9975 318.49C33.9756 318.087 34.0431 317.684 34.1952 317.311C34.3474 316.937 34.5804 316.602 34.8775 316.33C35.1283 316.082 35.3955 315.851 35.6775 315.64C35.8049 315.541 35.8996 315.407 35.9493 315.253C35.999 315.1 36.0013 314.936 35.9559 314.781C35.9105 314.627 35.8196 314.49 35.695 314.388C35.5704 314.286 35.4179 314.224 35.2575 314.21C34.5194 314.165 33.7846 314.074 33.0575 313.94C31.3641 313.666 29.7735 312.948 28.4475 311.86C27.48 311.005 26.7468 309.917 26.3175 308.7C26.079 308.205 25.9808 307.654 26.0337 307.108C26.0866 306.561 26.2886 306.039 26.6175 305.6C27.1072 305.198 27.6996 304.942 28.3275 304.86C28.8809 304.74 29.4309 304.64 29.9775 304.56C30.1353 304.533 30.2803 304.457 30.3908 304.341C30.5013 304.225 30.5713 304.077 30.5905 303.918C30.6096 303.76 30.5768 303.599 30.497 303.46C30.4171 303.322 30.2945 303.213 30.1475 303.15L27.8175 302.15C27.1494 301.932 26.5427 301.558 26.0475 301.06C25.7451 300.587 25.5491 300.054 25.4731 299.498C25.3972 298.942 25.443 298.376 25.6075 297.84C25.8875 296.39 26.3875 294.98 26.7375 293.53C27.1414 292.093 27.1928 290.58 26.8875 289.12C31.2581 288.637 35.6796 288.932 39.9475 289.99C41.229 290.259 42.441 290.79 43.5075 291.55C44.1713 292.142 44.6736 292.893 44.9675 293.733C45.2614 294.572 45.3371 295.473 45.1875 296.35C45.187 296.424 45.2108 296.496 45.2553 296.556C45.2998 296.615 45.3626 296.659 45.4341 296.679C45.5056 296.699 45.5817 296.696 45.651 296.669C45.7202 296.642 45.7787 296.593 45.8175 296.53L47.3075 293.78C47.5261 293.383 47.8885 293.085 48.32 292.947C48.7516 292.81 49.2196 292.843 49.6275 293.04C50.9301 293.694 52.0867 294.606 53.0275 295.72C53.5503 296.312 53.9489 297.003 54.1997 297.752C54.4505 298.5 54.5484 299.292 54.4875 300.08C54.3096 302.24 53.9449 304.382 53.3975 306.48C53.369 306.598 53.3773 306.723 53.4214 306.837C53.4655 306.951 53.5433 307.048 53.6444 307.117C53.7454 307.185 53.865 307.221 53.987 307.22C54.1091 307.219 54.2279 307.18 54.3275 307.11L54.3975 307.05C54.8 306.743 55.3038 306.6 55.8075 306.65C57.1175 306.81 57.4575 308.14 57.5475 309.28C57.6031 311.076 57.4419 312.872 57.0675 314.63Z" fill="black"/>
<path opacity="0.2" d="M57.0675 314.63C56.7471 316.072 56.1392 317.436 55.2802 318.639C54.4211 319.841 53.3285 320.859 52.0675 321.63C49.7042 322.749 47.0763 323.188 44.4775 322.9C41.8339 322.579 39.2386 321.941 36.7475 321C35.5075 320.58 34.1375 320 33.9975 318.49C33.9756 318.087 34.0431 317.684 34.1952 317.311C34.3474 316.937 34.5804 316.602 34.8775 316.33C35.1283 316.082 35.3955 315.851 35.6775 315.64C35.8049 315.541 35.8996 315.407 35.9493 315.253C35.999 315.1 36.0013 314.936 35.9559 314.781C35.9105 314.627 35.8196 314.49 35.695 314.388C35.5704 314.286 35.4179 314.224 35.2575 314.21C34.5194 314.165 33.7846 314.074 33.0575 313.94C31.3641 313.666 29.7735 312.948 28.4475 311.86C27.48 311.005 26.7468 309.917 26.3175 308.7C26.079 308.205 25.9808 307.654 26.0337 307.108C26.0866 306.561 26.2886 306.039 26.6175 305.6C27.1072 305.198 27.6996 304.942 28.3275 304.86C28.8809 304.74 29.4309 304.64 29.9775 304.56C30.1353 304.533 30.2803 304.457 30.3908 304.341C30.5013 304.225 30.5713 304.077 30.5905 303.918C30.6096 303.76 30.5768 303.599 30.497 303.46C30.4171 303.322 30.2945 303.213 30.1475 303.15L27.8175 302.15C27.1494 301.932 26.5427 301.558 26.0475 301.06C25.7451 300.587 25.5491 300.054 25.4731 299.498C25.3972 298.942 25.443 298.376 25.6075 297.84C25.8875 296.39 26.3875 294.98 26.7375 293.53C27.1414 292.093 27.1928 290.58 26.8875 289.12C31.2581 288.637 35.6796 288.932 39.9475 289.99C41.229 290.259 42.441 290.79 43.5075 291.55C44.1713 292.142 44.6736 292.893 44.9675 293.733C45.2614 294.572 45.3371 295.473 45.1875 296.35C45.187 296.424 45.2108 296.496 45.2553 296.556C45.2998 296.615 45.3626 296.659 45.4341 296.679C45.5056 296.699 45.5817 296.696 45.651 296.669C45.7202 296.642 45.7787 296.593 45.8175 296.53L47.3075 293.78C47.5261 293.383 47.8885 293.085 48.32 292.947C48.7516 292.81 49.2196 292.843 49.6275 293.04C50.9301 293.694 52.0867 294.606 53.0275 295.72C53.5503 296.312 53.9489 297.003 54.1997 297.752C54.4505 298.5 54.5484 299.292 54.4875 300.08C54.3096 302.24 53.9449 304.382 53.3975 306.48C53.369 306.598 53.3773 306.723 53.4214 306.837C53.4655 306.951 53.5433 307.048 53.6444 307.117C53.7454 307.185 53.865 307.221 53.987 307.22C54.1091 307.219 54.2279 307.18 54.3275 307.11L54.3975 307.05C54.8 306.743 55.3038 306.6 55.8075 306.65C57.1175 306.81 57.4575 308.14 57.5475 309.28C57.6031 311.076 57.4419 312.872 57.0675 314.63Z" fill="white"/>
<path d="M50.1436 321.228C49.3209 317.725 48.1449 314.314 46.6336 311.048C46.6319 310.998 46.6193 310.949 46.5969 310.904C46.5745 310.859 46.5427 310.82 46.5036 310.788L46.2636 310.248C46.6914 306.184 47.8679 302.234 49.7336 298.598C49.7655 298.558 49.7883 298.51 49.8002 298.46C49.8122 298.41 49.8132 298.357 49.803 298.306C49.7929 298.256 49.7719 298.207 49.7416 298.166C49.7112 298.124 49.6721 298.089 49.627 298.063C49.5818 298.038 49.5318 298.022 49.4801 298.018C49.4285 298.014 49.3766 298.02 49.3278 298.038C49.2791 298.056 49.2347 298.084 49.1978 298.12C49.1608 298.156 49.1321 298.2 49.1136 298.248C47.3665 301.638 46.2099 305.3 45.6936 309.078C42.2658 301.926 37.1107 295.74 30.6936 291.078C30.6551 291.048 30.6107 291.025 30.5631 291.012C30.5156 291 30.4659 290.997 30.4172 291.004C30.3685 291.011 30.3217 291.028 30.2798 291.054C30.238 291.08 30.2019 291.114 30.1737 291.155C30.1456 291.195 30.1261 291.241 30.1164 291.289C30.1067 291.337 30.107 291.387 30.1173 291.435C30.1276 291.483 30.1477 291.529 30.1763 291.569C30.2049 291.609 30.2414 291.643 30.2836 291.668C37.8336 296.918 42.6036 304.208 45.4936 310.248C41.5861 308.461 37.2378 307.866 32.9936 308.538C32.9474 308.546 32.903 308.562 32.8632 308.587C32.8234 308.611 32.789 308.644 32.7619 308.682C32.7349 308.72 32.7158 308.764 32.7058 308.809C32.6958 308.855 32.695 308.902 32.7036 308.948C32.7192 309.019 32.7548 309.084 32.8062 309.136C32.8576 309.187 32.9226 309.223 32.9936 309.238H33.1236C33.1936 309.238 40.0236 307.978 45.9336 311.288C47.4391 314.519 48.6054 317.897 49.4136 321.368C49.4308 321.438 49.4672 321.5 49.5184 321.55C49.5697 321.6 49.6339 321.634 49.7036 321.648C49.7498 321.658 49.7975 321.658 49.8436 321.648C49.8912 321.641 49.9368 321.624 49.9778 321.599C50.0188 321.574 50.0544 321.541 50.0823 321.502C50.1103 321.463 50.1301 321.418 50.1407 321.371C50.1512 321.324 50.1522 321.276 50.1436 321.228Z" fill="#F0F0F0"/>
<path d="M456.8 314.939L441 315.399L425.16 314.939C424.48 325.629 426.57 336.529 429.45 341.849C430.132 343.215 431.228 344.332 432.58 345.039C437.26 347.729 444.8 347.729 449.45 345.039C450.829 344.324 451.93 343.17 452.58 341.759C455.41 336.409 457.48 325.579 456.8 314.939Z" fill="white"/>
<path d="M452.127 308.448C458.327 312.028 458.357 317.838 452.197 321.448C446.037 325.058 436.007 325.028 429.807 321.448C423.607 317.868 423.567 312.058 429.737 308.448C435.907 304.838 445.917 304.868 452.127 308.448Z" fill="#EBEBEB"/>
<path d="M449.664 309.879C454.504 312.669 454.534 317.199 449.724 319.999C444.914 322.799 437.094 322.789 432.254 319.999C427.414 317.209 427.394 312.669 432.194 309.879C436.994 307.089 444.824 307.079 449.664 309.879Z" fill="#E0E0E0"/>
<g opacity="0.15">
<path d="M449.664 309.879C454.504 312.669 454.534 317.199 449.724 319.999C444.914 322.799 437.094 322.789 432.254 319.999C427.414 317.209 427.394 312.669 432.194 309.879C436.994 307.089 444.824 307.079 449.664 309.879Z" fill="black"/>
</g>
<path d="M466.996 247.369C431.316 259.059 430.996 282.929 438.996 299.929C440.996 303.369 447.166 305.209 452.506 284.069L443.136 285.279L454.056 279.739L456.896 271.259L447.786 271.939L459.346 267.069C461.489 260.351 464.043 253.772 466.996 247.369Z" fill="#08803A"/>
<path opacity="0.2" d="M466.996 247.369C431.316 259.059 430.996 282.929 438.996 299.929C440.996 303.369 447.166 305.209 452.506 284.069L443.136 285.279L454.056 279.739L456.896 271.259L447.786 271.939L459.346 267.069C461.489 260.351 464.043 253.772 466.996 247.369Z" fill="black"/>
<path opacity="0.2" d="M466.996 247.369C431.316 259.059 430.996 282.929 438.996 299.929C440.996 303.369 447.166 305.209 452.506 284.069L443.136 285.279L454.056 279.739L456.896 271.259L447.786 271.939L459.346 267.069C461.489 260.351 464.043 253.772 466.996 247.369Z" fill="white"/>
<path d="M456.909 253.34C438.089 267.62 436.389 284 441.709 301.09C439.829 286 437.799 270.82 456.909 253.34Z" fill="white"/>
<path d="M406.555 271.619C441.735 276.569 445.995 298.749 441.335 315.919C440.015 319.459 434.605 322.199 426.115 303.399L435.045 302.959L423.995 299.619L419.935 292.199L428.535 291.309L416.955 288.699C413.844 282.796 410.371 277.092 406.555 271.619Z" fill="#08803A"/>
<path opacity="0.2" d="M406.555 271.619C441.735 276.569 445.995 298.749 441.335 315.919C440.015 319.459 434.605 322.199 426.115 303.399L435.045 302.959L423.995 299.619L419.935 292.199L428.535 291.309L416.955 288.699C413.844 282.796 410.371 277.092 406.555 271.619Z" fill="white"/>
<path opacity="0.1" d="M406.555 271.619C441.735 276.569 445.995 298.749 441.335 315.919C440.015 319.459 434.605 322.199 426.115 303.399L435.045 302.959L423.995 299.619L419.935 292.199L428.535 291.309L416.955 288.699C413.844 282.796 410.371 277.092 406.555 271.619Z" fill="black"/>
<path d="M417 275.5C436.89 285.68 441.19 300.64 439.08 317.45C438.29 303.12 437.66 288.61 417 275.5Z" fill="white"/>
<path d="M477.29 279.93C445.04 280.46 438.71 299.93 441 315.93C441.79 319.27 446.36 322.34 456.11 306.35L448.11 304.95L458.49 303.18L463 297L455.35 295.24L466 294.17C469.468 289.196 473.239 284.441 477.29 279.93Z" fill="#08803A"/>
<path d="M467.491 282.27C448.421 289.21 442.871 302.27 442.891 317.6C445.171 304.77 447.371 291.76 467.491 282.27Z" fill="white"/>
<path opacity="0.2" d="M477.29 279.93C445.04 280.46 438.71 299.93 441 315.93C441.79 319.27 446.36 322.34 456.11 306.35L448.11 304.95L458.49 303.18L463 297L455.35 295.24L466 294.17C469.468 289.196 473.239 284.441 477.29 279.93Z" fill="white"/>
<path d="M55.1525 220.87L55.1125 206.89L47.8125 202.74L47.8525 216.39V216.7L55.1525 220.87Z" fill="#08803A"/>
<path d="M55.6116 382.759L55.1516 220.869L47.8516 216.699L48.3116 378.289C48.2631 378.809 48.3511 379.332 48.5668 379.808C48.7825 380.283 49.1185 380.694 49.5416 380.999L56.7316 385.399C56.3393 385.088 56.0313 384.683 55.8357 384.222C55.64 383.761 55.563 383.258 55.6116 382.759Z" fill="#08803A"/>
<path opacity="0.2" d="M55.6116 382.759L55.1516 220.869L47.8516 216.699L48.3116 378.289C48.2631 378.809 48.3511 379.332 48.5668 379.808C48.7825 380.283 49.1185 380.694 49.5416 380.999L56.7316 385.399C56.3393 385.088 56.0313 384.683 55.8357 384.222C55.64 383.761 55.563 383.258 55.6116 382.759Z" fill="white"/>
<path d="M55.1303 206.86V198.81C55.2089 197.316 55.6394 195.861 56.3866 194.565C57.1338 193.268 58.1767 192.167 59.4303 191.35L303.43 50.4998C303.861 50.1943 304.364 50.0053 304.89 49.951C305.415 49.8967 305.946 49.9789 306.43 50.1898L299.23 45.7698C298.738 45.5236 298.187 45.4177 297.639 45.4636C297.09 45.5094 296.565 45.7053 296.12 46.0298L52.1203 186.87C50.8643 187.687 49.8197 188.789 49.0723 190.088C48.3248 191.386 47.8958 192.843 47.8203 194.34V202.34V202.66L55.1203 206.81L55.1303 206.86Z" fill="#08803A"/>
<path opacity="0.3" d="M55.1303 206.86V198.81C55.2089 197.316 55.6394 195.861 56.3866 194.565C57.1338 193.268 58.1767 192.167 59.4303 191.35L303.43 50.4998C303.861 50.1943 304.364 50.0053 304.89 49.951C305.415 49.8967 305.946 49.9789 306.43 50.1898L299.23 45.7698C298.738 45.5236 298.187 45.4177 297.639 45.4636C297.09 45.5094 296.565 45.7053 296.12 46.0298L52.1203 186.87C50.8643 187.687 49.8197 188.789 49.0723 190.088C48.3248 191.386 47.8958 192.843 47.8203 194.34V202.34V202.66L55.1203 206.81L55.1303 206.86Z" fill="white"/>
<path opacity="0.2" d="M55.1525 220.87L55.1125 206.89L47.8125 202.74L47.8525 216.39V216.7L55.1525 220.87Z" fill="black"/>
<path opacity="0.2" d="M55.1525 220.87L55.1125 206.89L47.8125 202.74L47.8525 216.39V216.7L55.1525 220.87Z" fill="white"/>
<path d="M303.363 50.499C305.743 49.129 307.683 50.239 307.693 52.979V61.039L55.1328 206.859V198.809C55.2114 197.315 55.6419 195.86 56.3891 194.564C57.1363 193.268 58.1792 192.166 59.4328 191.349L303.363 50.499Z" fill="#08803A"/>
<path d="M287.003 63.829C288.273 63.089 289.313 63.679 289.323 65.149C289.28 65.9505 289.048 66.7305 288.647 67.4255C288.246 68.1206 287.686 68.7111 287.013 69.149C285.743 69.879 284.703 69.289 284.703 67.819C284.739 67.0183 284.966 66.2378 285.366 65.5434C285.767 64.849 286.328 64.261 287.003 63.829Z" fill="white"/>
<path d="M294.06 59.7606C295.33 59.0206 296.37 59.6107 296.37 61.0807C296.331 61.882 296.102 62.6626 295.702 63.3581C295.303 64.0536 294.743 64.644 294.07 65.0807C292.79 65.8107 291.76 65.2206 291.75 63.7606C291.791 62.9586 292.021 62.1777 292.423 61.4823C292.825 60.7869 293.386 60.1968 294.06 59.7606Z" fill="white"/>
<path d="M301.089 55.69C302.369 54.96 303.409 55.55 303.409 57.01C303.375 57.8124 303.148 58.5949 302.748 59.2912C302.348 59.9874 301.785 60.577 301.109 61.01C299.829 61.75 298.799 61.16 298.789 59.69C298.833 58.8898 299.063 58.111 299.463 57.4162C299.862 56.7215 300.419 56.1302 301.089 55.69Z" fill="white"/>
<path d="M105.936 169.551C106.886 169.001 107.766 169.091 108.226 169.801L110.516 173.331C110.966 174.031 111.836 174.141 112.796 173.591L307.696 61.0605V75.0605L55.1562 220.891V206.891L62.6362 202.571C63.6981 201.889 64.5009 200.872 64.9163 199.681L67.1762 193.521C67.5917 192.335 68.3904 191.321 69.4463 190.641L105.936 169.551Z" fill="#E0E0E0"/>
<path d="M307.736 75L308.196 236.89C308.113 238.384 307.68 239.838 306.931 241.134C306.183 242.43 305.139 243.532 303.886 244.35L59.9462 385.23C57.5562 386.61 55.6162 385.5 55.6162 382.76L55.1562 220.87L307.736 75Z" fill="#08803A"/>
<g opacity="0.4">
<path d="M307.736 75L308.196 236.89C308.113 238.384 307.68 239.838 306.931 241.134C306.183 242.43 305.139 243.532 303.886 244.35L59.9462 385.23C57.5562 386.61 55.6162 385.5 55.6162 382.76L55.1562 220.87L307.736 75Z" fill="white"/>
</g>
<path d="M297.742 69.6603C299.432 68.6603 300.812 69.4603 300.812 71.4103C300.757 72.4716 300.453 73.505 299.923 74.4261C299.392 75.3472 298.652 76.1299 297.762 76.7103L84.0019 200.15C82.3119 201.15 80.9319 200.35 80.9219 198.4C80.9783 197.338 81.2849 196.305 81.8167 195.384C82.3485 194.463 83.0904 193.68 83.9819 193.1L297.742 69.6603Z" fill="white"/>
<path d="M59.195 208.129C59.2404 208.097 59.2945 208.08 59.35 208.08C59.4055 208.08 59.4596 208.097 59.505 208.129C59.675 208.239 59.655 208.559 59.505 208.849L58.135 210.999L61.675 208.999C61.915 208.859 62.115 208.999 62.115 209.239C62.1029 209.389 62.057 209.534 61.9808 209.664C61.9046 209.794 61.8001 209.905 61.675 209.989L58.135 211.989L59.495 212.629C59.665 212.719 59.685 213.029 59.495 213.319C59.4209 213.459 59.3103 213.577 59.175 213.659C59.1327 213.691 59.0833 213.712 59.0311 213.721C58.9789 213.729 58.9253 213.725 58.875 213.709L56.705 212.709L56.625 212.619V212.439V212.219L56.695 212.039L58.865 208.499C58.9336 208.344 59.049 208.215 59.195 208.129Z" fill="#E0E0E0"/>
<path d="M66.8419 203.711C66.8885 203.688 66.9399 203.676 66.9919 203.676C67.0439 203.676 67.0952 203.688 67.1419 203.711L69.3119 204.711L69.4019 204.811V204.991V205.201V205.251L69.3219 205.421L67.1619 209.001C67.0885 209.124 66.9854 209.227 66.8619 209.301C66.8165 209.333 66.7623 209.35 66.7069 209.35C66.6514 209.35 66.5973 209.333 66.5519 209.301C66.3919 209.201 66.3919 208.881 66.5519 208.591L67.8919 206.391L64.3519 208.391C64.1219 208.531 63.9219 208.391 63.9219 208.141C63.9343 207.993 63.9794 207.85 64.0537 207.722C64.1281 207.594 64.2299 207.484 64.3519 207.401L67.8919 205.401L66.5419 204.751C66.3619 204.671 66.3519 204.361 66.5419 204.061C66.6133 203.922 66.716 203.802 66.8419 203.711Z" fill="#E0E0E0"/>
<path d="M74.1256 199.51C74.3369 199.367 74.5758 199.268 74.8272 199.222C75.0786 199.175 75.3369 199.182 75.5856 199.241L75.9156 198.81C75.9766 198.722 76.0548 198.647 76.1456 198.59C76.2155 198.551 76.2957 198.534 76.3756 198.54C76.5256 198.54 76.5956 198.72 76.5756 198.93L76.3956 200.26C76.3705 200.424 76.3052 200.579 76.2056 200.711C76.1417 200.793 76.0639 200.864 75.9756 200.92L75.8656 200.971L74.8656 201.26C74.8299 201.273 74.7917 201.277 74.7542 201.272C74.7166 201.267 74.6808 201.253 74.6496 201.232C74.6184 201.211 74.5927 201.182 74.5746 201.149C74.5565 201.115 74.5466 201.078 74.5456 201.04C74.5357 200.933 74.5473 200.824 74.58 200.721C74.6126 200.618 74.6655 200.523 74.7356 200.441L74.8356 200.301C74.6022 200.31 74.3751 200.379 74.1756 200.5C73.7261 200.798 73.352 201.196 73.083 201.662C72.814 202.129 72.6574 202.653 72.6256 203.191C72.6256 204.191 73.3356 204.571 74.1856 204.081C74.8165 203.675 75.2976 203.075 75.5556 202.37C75.6212 202.173 75.7516 202.004 75.9256 201.89C75.9891 201.852 76.0616 201.832 76.1356 201.831C76.3456 201.831 76.4256 202.111 76.3056 202.411C75.9165 203.509 75.17 204.446 74.1856 205.071C72.8556 205.841 71.7656 205.221 71.7656 203.691C71.8047 202.858 72.0386 202.046 72.4484 201.32C72.8583 200.594 73.4328 199.974 74.1256 199.51Z" fill="#E0E0E0"/>
<g opacity="0.3">
<path d="M59.195 208.129C59.2404 208.097 59.2945 208.08 59.35 208.08C59.4055 208.08 59.4596 208.097 59.505 208.129C59.675 208.239 59.655 208.559 59.505 208.849L58.135 210.999L61.675 208.999C61.915 208.859 62.115 208.999 62.115 209.239C62.1029 209.389 62.057 209.534 61.9808 209.664C61.9046 209.794 61.8001 209.905 61.675 209.989L58.135 211.989L59.495 212.629C59.665 212.719 59.685 213.029 59.495 213.319C59.4209 213.459 59.3103 213.577 59.175 213.659C59.1327 213.691 59.0833 213.712 59.0311 213.721C58.9789 213.729 58.9253 213.725 58.875 213.709L56.705 212.709L56.625 212.619V212.439V212.219L56.695 212.039L58.865 208.499C58.9336 208.344 59.049 208.215 59.195 208.129Z" fill="black"/>
</g>
<g opacity="0.3">
<path d="M66.8419 203.711C66.8885 203.688 66.9399 203.676 66.9919 203.676C67.0439 203.676 67.0952 203.688 67.1419 203.711L69.3119 204.711L69.4019 204.811V204.991V205.201V205.251L69.3219 205.421L67.1619 209.001C67.0885 209.124 66.9854 209.227 66.8619 209.301C66.8165 209.333 66.7623 209.35 66.7069 209.35C66.6514 209.35 66.5973 209.333 66.5519 209.301C66.3919 209.201 66.3919 208.881 66.5519 208.591L67.8919 206.391L64.3519 208.391C64.1219 208.531 63.9219 208.391 63.9219 208.141C63.9343 207.993 63.9794 207.85 64.0537 207.722C64.1281 207.594 64.2299 207.484 64.3519 207.401L67.8919 205.401L66.5419 204.751C66.3619 204.671 66.3519 204.361 66.5419 204.061C66.6133 203.922 66.716 203.802 66.8419 203.711Z" fill="black"/>
</g>
<g opacity="0.3">
<path d="M74.1256 199.51C74.3369 199.367 74.5758 199.268 74.8272 199.222C75.0786 199.175 75.3369 199.182 75.5856 199.241L75.9156 198.81C75.9766 198.722 76.0548 198.647 76.1456 198.59C76.2155 198.551 76.2957 198.534 76.3756 198.54C76.5256 198.54 76.5956 198.72 76.5756 198.93L76.3956 200.26C76.3705 200.424 76.3052 200.579 76.2056 200.711C76.1417 200.793 76.0639 200.864 75.9756 200.92L75.8656 200.971L74.8656 201.26C74.8299 201.273 74.7917 201.277 74.7542 201.272C74.7166 201.267 74.6808 201.253 74.6496 201.232C74.6184 201.211 74.5927 201.182 74.5746 201.149C74.5565 201.115 74.5466 201.078 74.5456 201.04C74.5357 200.933 74.5473 200.824 74.58 200.721C74.6126 200.618 74.6655 200.523 74.7356 200.441L74.8356 200.301C74.6022 200.31 74.3751 200.379 74.1756 200.5C73.7261 200.798 73.352 201.196 73.083 201.662C72.814 202.129 72.6574 202.653 72.6256 203.191C72.6256 204.191 73.3356 204.571 74.1856 204.081C74.8165 203.675 75.2976 203.075 75.5556 202.37C75.6212 202.173 75.7516 202.004 75.9256 201.89C75.9891 201.852 76.0616 201.832 76.1356 201.831C76.3456 201.831 76.4256 202.111 76.3056 202.411C75.9165 203.509 75.17 204.446 74.1856 205.071C72.8556 205.841 71.7656 205.221 71.7656 203.691C71.8047 202.858 72.0386 202.046 72.4484 201.32C72.8583 200.594 73.4328 199.974 74.1256 199.51Z" fill="black"/>
</g>
<g opacity="0.6">
<path d="M212.432 169.741L212.652 249.801C212.656 252.432 211.969 255.019 210.657 257.301C209.346 259.583 207.458 261.479 205.182 262.801L79.0816 336.001C78.3227 336.441 77.4613 336.674 76.5838 336.676C75.7064 336.678 74.8438 336.45 74.0828 336.013C73.3218 335.576 72.6891 334.947 72.2483 334.188C71.8075 333.429 71.5741 332.568 71.5716 331.691L71.3516 251.631C71.3469 248.999 72.0346 246.412 73.3458 244.13C74.657 241.848 76.5455 239.952 78.8216 238.631L204.922 165.481C205.677 165.042 206.534 164.809 207.407 164.805C208.28 164.8 209.139 165.025 209.899 165.456C210.659 165.887 211.292 166.509 211.736 167.261C212.181 168.012 212.42 168.867 212.432 169.741Z" fill="white"/>
</g>
<g opacity="0.6">
<path d="M260.441 137.379L260.501 157.999C260.497 158.697 260.31 159.382 259.959 159.985C259.608 160.589 259.106 161.09 258.501 161.439L223.581 181.439C223.38 181.556 223.151 181.619 222.918 181.62C222.685 181.621 222.455 181.561 222.253 181.445C222.05 181.33 221.881 181.163 221.763 180.962C221.646 180.761 221.583 180.532 221.581 180.299L221.531 159.709C221.534 159.009 221.72 158.322 222.071 157.717C222.422 157.112 222.925 156.609 223.531 156.259L258.451 136.259C258.65 136.142 258.877 136.079 259.108 136.076C259.34 136.074 259.567 136.132 259.769 136.246C259.97 136.359 260.138 136.524 260.257 136.722C260.375 136.921 260.438 137.148 260.441 137.379Z" fill="white"/>
</g>
<path d="M237.094 153.9L247.964 154.84L237.134 168.3L237.094 153.9Z" fill="#08803A"/>
<g opacity="0.3">
<path d="M237.094 153.9L247.964 154.84L237.134 168.3L237.094 153.9Z" fill="white"/>
</g>
<g opacity="0.6">
<path d="M90.715 214.371V223.951C90.7152 224.275 90.6303 224.593 90.4688 224.874C90.3074 225.154 90.075 225.388 89.795 225.551L73.555 234.861C73.4613 234.915 73.355 234.944 73.2468 234.944C73.1385 234.944 73.0321 234.916 72.938 234.862C72.844 234.809 72.7656 234.732 72.7107 234.638C72.6558 234.545 72.6262 234.439 72.625 234.331V224.761C72.6231 224.435 72.7072 224.115 72.8687 223.832C73.0303 223.549 73.2636 223.314 73.545 223.151L89.785 213.841C89.8782 213.783 89.9852 213.752 90.0946 213.75C90.2041 213.748 90.312 213.776 90.4072 213.83C90.5023 213.884 90.581 213.963 90.6352 214.058C90.6894 214.153 90.717 214.261 90.715 214.371Z" fill="white"/>
</g>
<path d="M79.8516 222.061L84.9116 222.491L79.8716 228.751L79.8516 222.061Z" fill="#08803A"/>
<g opacity="0.3">
<path d="M79.8516 222.061L84.9116 222.491L79.8716 228.751L79.8516 222.061Z" fill="white"/>
</g>
<g opacity="0.7">
<path d="M183.399 162.93L183.419 168.1L168.729 176.58L168.719 171.41L183.399 162.93Z" fill="white"/>
<path d="M211.572 146.658L211.582 151.838L192.002 163.138L191.992 157.968L211.572 146.658Z" fill="white"/>
<path d="M268.19 113.969L268.2 119.149L253.51 127.629L253.5 122.459L268.19 113.969Z" fill="white"/>
<path d="M296.356 97.709L296.366 102.879L276.786 114.189L276.766 109.019L296.356 97.709Z" fill="white"/>
<path d="M243.417 128.279L243.437 133.449L220.057 146.939L220.047 141.769L243.417 128.279Z" fill="white"/>
</g>
<path d="M290.366 121.52L290.376 126.1L265.426 140.35L265.406 135.77L290.366 121.52Z" fill="white"/>
<path d="M283.696 132.629L283.706 135.979L265.416 146.429L265.406 143.069L283.696 132.629Z" fill="white"/>
<path d="M276.936 141.5L276.946 144.86L265.416 151.41L265.406 148.05L276.936 141.5Z" fill="white"/>
<g opacity="0.6">
<path d="M260.441 169.76L260.501 190.35C260.499 191.05 260.313 191.737 259.962 192.342C259.611 192.948 259.107 193.45 258.501 193.8L223.581 213.8C223.38 213.918 223.151 213.98 222.918 213.981C222.685 213.982 222.455 213.922 222.253 213.807C222.05 213.691 221.881 213.525 221.763 213.323C221.646 213.122 221.583 212.893 221.581 212.66L221.531 192.07C221.534 191.37 221.72 190.684 222.071 190.078C222.422 189.473 222.925 188.97 223.531 188.62L258.451 168.62C258.652 168.502 258.88 168.439 259.113 168.438C259.346 168.436 259.575 168.496 259.777 168.612C259.98 168.728 260.147 168.895 260.264 169.097C260.381 169.298 260.442 169.527 260.441 169.76Z" fill="white"/>
</g>
<path d="M237.094 186.279L247.964 187.219L237.134 200.679L237.094 186.279Z" fill="#08803A"/>
<g opacity="0.3">
<path d="M237.094 186.279L247.964 187.219L237.134 200.679L237.094 186.279Z" fill="white"/>
</g>
<path d="M295.676 150.949L295.686 155.529L265.426 172.729L265.406 168.149L295.676 150.949Z" fill="white"/>
<path d="M288.256 162.379V165.739L265.416 178.809L265.406 175.449L288.256 162.379Z" fill="white"/>
<path d="M276.936 173.891L276.946 177.251L265.416 183.791L265.406 180.441L276.936 173.891Z" fill="white"/>
<g opacity="0.6">
<path d="M260.441 202.139L260.501 222.729C260.499 223.429 260.313 224.116 259.962 224.721C259.611 225.326 259.107 225.829 258.501 226.179L223.581 246.179C223.38 246.297 223.151 246.359 222.918 246.36C222.685 246.361 222.455 246.301 222.253 246.186C222.05 246.07 221.881 245.903 221.763 245.702C221.646 245.501 221.583 245.272 221.581 245.039L221.531 224.449C221.534 223.749 221.72 223.062 222.071 222.457C222.422 221.852 222.925 221.349 223.531 220.999L258.451 200.999C258.652 200.881 258.88 200.818 259.113 200.816C259.346 200.815 259.575 200.875 259.777 200.991C259.98 201.107 260.147 201.274 260.264 201.476C260.381 201.677 260.442 201.906 260.441 202.139Z" fill="white"/>
</g>
<path d="M237.094 218.66L247.964 219.6L237.134 233.06L237.094 218.66Z" fill="#08803A"/>
<g opacity="0.3">
<path d="M237.094 218.66L247.964 219.6L237.134 233.06L237.094 218.66Z" fill="white"/>
</g>
<path d="M292.386 185.15L292.396 189.73L265.426 205.12L265.406 200.53L292.386 185.15Z" fill="white"/>
<path d="M278.246 200.57L278.256 203.93L265.416 211.19L265.406 207.83L278.246 200.57Z" fill="white"/>
<path d="M286.006 201.051V204.411L265.416 216.181L265.406 212.821L286.006 201.051Z" fill="white"/>
<g opacity="0.6">
<path d="M260.441 234.52L260.501 255.11C260.499 255.81 260.313 256.497 259.962 257.102C259.611 257.707 259.107 258.21 258.501 258.56L223.581 278.56C223.38 278.677 223.151 278.74 222.918 278.741C222.685 278.742 222.455 278.682 222.253 278.567C222.05 278.451 221.881 278.284 221.763 278.083C221.646 277.882 221.583 277.653 221.581 277.42L221.531 256.83C221.534 256.13 221.72 255.443 222.071 254.838C222.422 254.233 222.925 253.73 223.531 253.38L258.451 233.38C258.652 233.262 258.88 233.199 259.113 233.197C259.346 233.196 259.575 233.256 259.777 233.372C259.98 233.488 260.147 233.655 260.264 233.857C260.381 234.058 260.442 234.287 260.441 234.52Z" fill="white"/>
</g>
<path d="M237.094 251.051L247.964 251.981L237.134 265.441L237.094 251.051Z" fill="#08803A"/>
<g opacity="0.3">
<path d="M237.094 251.051L247.964 251.981L237.134 265.441L237.094 251.051Z" fill="white"/>
</g>
<path d="M295.946 215.57L295.956 220.16L265.426 237.5L265.406 232.91L295.946 215.57Z" fill="white"/>
<path d="M283.696 229.77L283.706 233.13L265.416 243.57L265.406 240.21L283.696 229.77Z" fill="white"/>
<path d="M290.376 230.85L290.386 234.21L265.416 248.56L265.406 245.2L290.376 230.85Z" fill="white"/>
<path d="M111.696 203.23L111.706 206.59L93.4163 217.03L93.4062 213.68L111.696 203.23Z" fill="white"/>
<path d="M104.936 212.109L104.946 215.469L93.4163 222.019L93.4062 218.659L104.936 212.109Z" fill="white"/>
<path d="M180.89 199.839C180.891 199.354 180.764 198.878 180.522 198.458C180.28 198.038 179.931 197.69 179.511 197.448C179.09 197.206 178.614 197.08 178.129 197.082C177.644 197.084 177.168 197.214 176.75 197.459L107.11 237.849C105.861 238.579 104.824 239.622 104.103 240.877C103.382 242.131 103.002 243.552 103 244.999V253.359L180.91 208.159L180.89 199.839Z" fill="#08803A"/>
<path d="M103 253.399L103.11 302.259C103.112 302.743 103.241 303.217 103.484 303.636C103.727 304.054 104.075 304.401 104.494 304.642C104.914 304.883 105.389 305.009 105.873 305.009C106.356 305.009 106.831 304.881 107.25 304.639L176.89 264.239C178.149 263.51 179.193 262.461 179.917 261.198C180.64 259.936 181.017 258.504 181.01 257.049L180.91 208.199L103 253.399Z" fill="#08803A"/>
<g opacity="0.5">
<path d="M110.081 236.128L104.031 252.798L109.421 249.678L115.471 232.998L110.081 236.128Z" fill="white"/>
<path d="M122.925 228.679L116.875 245.349L122.265 242.229L128.315 225.559L122.925 228.679Z" fill="white"/>
<path d="M135.761 221.229L129.711 237.909L135.101 234.779L141.151 218.109L135.761 221.229Z" fill="white"/>
<path d="M148.589 213.788L142.539 230.458L147.929 227.328L153.979 210.658L148.589 213.788Z" fill="white"/>
<path d="M161.433 206.339L155.383 223.009L160.773 219.889L166.823 203.209L161.433 206.339Z" fill="white"/>
<path d="M176.749 197.459L174.269 198.889L168.219 215.569L173.609 212.439L179.109 197.279C178.727 197.128 178.317 197.067 177.908 197.098C177.499 197.129 177.103 197.252 176.749 197.459Z" fill="white"/>
</g>
<path opacity="0.9" d="M162.64 249.709L143.25 237.709L124 272.009L134.73 265.819L134.8 288.659L151.97 278.699L151.9 255.899L162.64 249.709Z" fill="white"/>
<path d="M151.065 308.041L181.575 290.431L181.565 286.561L151.055 304.181L151.065 308.041Z" fill="white"/>
<path d="M194.474 279.109L185.844 284.089L185.854 287.949L194.484 282.969L194.474 279.109Z" fill="white"/>
<path d="M130.736 329.35L130.726 325.49L122.086 330.47L122.106 334.33L130.736 329.35Z" fill="white"/>
<path d="M146.546 306.779L104.906 330.819L104.916 334.679L146.556 310.639L146.546 306.779Z" fill="white"/>
<path d="M99.02 338.081L99.01 334.221L71.75 349.961L71.76 353.821L99.02 338.081Z" fill="white"/>
<path d="M115.611 338.081L115.601 334.221L71.7812 359.521L71.7913 363.381L115.611 338.081Z" fill="white"/>
<path d="M137.242 321.731L137.252 325.591L165.672 309.181V305.311L137.242 321.731Z" fill="white"/>
<path d="M367.51 17.4232C360.69 13.4832 354.92 15.4232 353.09 21.5332C351.435 18.1679 348.88 15.3264 345.71 13.3232C340.37 10.2432 336.01 12.7232 335.99 18.8632V21.6832L328.81 17.5432C325.06 15.3832 322.02 17.1232 322 21.4232C322.124 23.7697 322.802 26.0535 323.976 28.0885C325.151 30.1235 326.79 31.8521 328.76 33.1332L389.59 68.2532C393.33 70.4132 396.39 68.6832 396.4 64.3732C396.275 62.0258 395.596 59.7414 394.419 57.7063C393.243 55.6712 391.602 53.9432 389.63 52.6632L382.41 48.5132V43.3232C382.49 33.8232 375.8 22.2032 367.51 17.4232Z" fill="#E6E6E6"/>
<path d="M356.17 26L365.26 42.63L359.77 39.46L359.73 51.75L352.47 47.56L352.5 35.27L347 32.09L356.17 26Z" fill="#08803A"/>
<path d="M359.764 53.4712L359.754 58.1812L352.484 53.9812L352.494 49.2812L359.764 53.4712Z" fill="#08803A"/>
<path d="M359.764 60.0711L359.754 62.4211L352.484 58.2211L352.494 55.8711L359.764 60.0711Z" fill="#08803A"/>
<path d="M359.764 63.9908L359.754 65.4108L352.484 61.2208L352.494 59.8008L359.764 63.9908Z" fill="#08803A"/>
<g opacity="0.2">
<path d="M356.029 25.9141L365.119 42.5441L359.629 39.3741L359.589 51.6641L352.329 47.4741L352.359 35.1841L346.859 32.0041L356.029 25.9141Z" fill="white"/>
<path d="M359.632 53.3853L359.622 58.0953L352.352 53.8953L352.362 49.1953L359.632 53.3853Z" fill="white"/>
<path d="M359.632 59.9852L359.622 62.3352L352.352 58.1352L352.362 55.7852L359.632 59.9852Z" fill="white"/>
<path d="M359.632 63.9048L359.622 65.3248L352.352 61.1348L352.362 59.7148L359.632 63.9048Z" fill="white"/>
</g>
<path d="M114.591 78.6497C121.661 74.5597 127.591 76.5597 129.591 82.9197C131.299 79.4271 133.944 76.4776 137.231 74.3997C142.781 71.1997 147.291 73.7797 147.311 80.1497V83.0697L154.751 78.7697C158.641 76.5297 161.751 78.3397 161.811 82.7697C161.683 85.2017 160.983 87.5692 159.766 89.6789C158.55 91.7887 156.852 93.581 154.811 94.9097L91.7006 131.35C87.8106 133.6 84.7006 131.8 84.6406 127.35C84.7657 124.916 85.4652 122.546 86.6818 120.434C87.8984 118.322 89.5977 116.529 91.6406 115.2L99.0906 110.9V105.52C99.0506 95.6297 106.001 83.6097 114.591 78.6497Z" fill="#E6E6E6"/>
<path d="M125.753 135.289L134.733 118.869L129.313 121.999L129.273 109.859L122.103 113.999L122.133 126.139L116.703 129.279L125.753 135.289Z" fill="#08803A"/>
<path d="M129.307 108.16L129.297 103.52L122.117 107.66L122.137 112.31L129.307 108.16Z" fill="#08803A"/>
<path d="M129.307 101.65L129.297 99.3301L122.117 103.48L122.137 105.8L129.307 101.65Z" fill="#08803A"/>
<path d="M129.307 97.7791L129.297 96.3691L122.117 100.519L122.137 101.919L129.307 97.7791Z" fill="#08803A"/>
<g opacity="0.2">
<path d="M125.753 135.289L134.733 118.869L129.313 121.999L129.273 109.859L122.103 113.999L122.133 126.139L116.703 129.279L125.753 135.289Z" fill="white"/>
<path d="M129.315 108.16L129.305 103.52L122.125 107.66L122.145 112.31L129.315 108.16Z" fill="white"/>
<path d="M129.315 101.65L129.305 99.3301L122.125 103.48L122.145 105.8L129.315 101.65Z" fill="white"/>
<path d="M129.315 97.7791L129.305 96.3691L122.125 100.519L122.145 101.919L129.315 97.7791Z" fill="white"/>
</g>
<path d="M275.164 296.72V360.4L356.164 313.64V250L275.164 296.72ZM284.074 301.99L347.164 265.54V308.42L284.074 344.76V301.99Z" fill="#08803A"/>
<path d="M275.164 296.721L266.164 291.561V355.241L275.164 360.401V296.721Z" fill="#08803A"/>
<path d="M356.164 249.981L347.164 244.811L266.164 291.561L275.164 296.721L356.164 249.981Z" fill="#08803A"/>
<path opacity="0.3" d="M356.164 249.981L347.164 244.811L266.164 291.561L275.164 296.721L356.164 249.981Z" fill="white"/>
<path d="M338.164 303.251L347.164 308.421V265.541L338.164 270.741V303.251Z" fill="#08803A"/>
<path d="M284.07 344.76V334.41L338.16 303.25L347.16 308.42L284.07 344.76Z" fill="#08803A"/>
<path opacity="0.2" d="M275.164 296.721L266.164 291.561V355.241L275.164 360.401V296.721Z" fill="white"/>
<path opacity="0.2" d="M338.164 303.251L347.164 308.421V265.541L338.164 270.741V303.251Z" fill="white"/>
<path opacity="0.3" d="M284.07 344.76V334.41L338.16 303.25L347.16 308.42L284.07 344.76Z" fill="white"/>
<path d="M358.541 235.181C358.251 234.415 357.703 233.775 356.991 233.371L351.531 230.261C350.174 229.472 348.631 229.057 347.061 229.057C345.491 229.057 343.949 229.472 342.591 230.261L262.591 277.701C261.88 278.107 261.334 278.752 261.051 279.521C259.982 281.858 259.436 284.401 259.454 286.972C259.471 289.542 260.05 292.078 261.151 294.401C261.491 295.038 261.995 295.573 262.611 295.951L268.071 299.071C269.43 299.856 270.972 300.27 272.541 300.27C274.111 300.27 275.653 299.856 277.011 299.071L357.011 251.641C357.641 251.277 358.143 250.729 358.451 250.071C359.552 247.746 360.131 245.208 360.147 242.636C360.162 240.063 359.614 237.519 358.541 235.181Z" fill="#455A64"/>
<path opacity="0.3" d="M276.999 287.001L356.999 239.571C357.734 239.145 358.292 238.471 358.574 237.67C358.857 236.869 358.844 235.994 358.539 235.201C359.609 237.539 360.154 240.082 360.137 242.652C360.12 245.223 359.54 247.758 358.439 250.081C358.131 250.74 357.628 251.288 356.999 251.651L276.999 299.081C275.573 299.914 273.94 300.327 272.289 300.271V288.171C273.938 288.233 275.571 287.827 276.999 287.001Z" fill="black"/>
<path opacity="0.2" d="M261.001 279.531C260.702 280.322 260.694 281.194 260.978 281.991C261.262 282.787 261.819 283.457 262.551 283.881L268.001 287.001C269.289 287.746 270.744 288.152 272.231 288.181V300.261C270.746 300.231 269.291 299.829 268.001 299.091L262.571 296.001C261.955 295.624 261.451 295.089 261.111 294.451C260.002 292.124 259.418 289.581 259.399 287.003C259.38 284.426 259.927 281.875 261.001 279.531Z" fill="black"/>
<path d="M419.94 330.001C419.65 329.239 419.106 328.599 418.4 328.191L354.18 291.111C352.821 290.326 351.279 289.912 349.71 289.912C348.14 289.912 346.599 290.326 345.24 291.111L281.48 328.161C280.768 328.57 280.22 329.213 279.93 329.981C278.09 333.351 277.48 348.171 280.03 353.051C280.368 353.69 280.872 354.226 281.49 354.601L345.71 391.681C347.069 392.467 348.61 392.881 350.18 392.881C351.749 392.881 353.291 392.467 354.65 391.681L418.4 354.631C419.029 354.268 419.532 353.72 419.84 353.061C422.39 348.191 421.78 333.371 419.94 330.001Z" fill="#455A64"/>
<path opacity="0.1" d="M419.94 330.001C419.65 329.239 419.106 328.599 418.4 328.191L354.18 291.111C352.821 290.326 351.279 289.912 349.71 289.912C348.14 289.912 346.599 290.326 345.24 291.111L281.48 328.161C280.768 328.57 280.22 329.213 279.93 329.981C278.09 333.351 277.48 348.171 280.03 353.051C280.368 353.69 280.872 354.226 281.49 354.601L345.71 391.681C347.069 392.467 348.61 392.881 350.18 392.881C351.749 392.881 353.291 392.467 354.65 391.681L418.4 354.631C419.029 354.268 419.532 353.72 419.84 353.061C422.39 348.191 421.78 333.371 419.94 330.001Z" fill="black"/>
<path opacity="0.3" d="M354.647 371.41L418.397 334.36C419.134 333.939 419.695 333.266 419.978 332.466C420.26 331.666 420.246 330.791 419.938 330C421.777 333.37 422.387 348.19 419.837 353.07C419.53 353.728 419.027 354.276 418.397 354.64L354.647 391.69C353.216 392.511 351.587 392.923 349.938 392.88V372.61C351.589 372.656 353.22 372.24 354.647 371.41Z" fill="black"/>
<path opacity="0.2" d="M279.93 330C279.632 330.792 279.625 331.665 279.911 332.461C280.197 333.258 280.756 333.928 281.49 334.35L345.71 371.43C347.001 372.167 348.454 372.572 349.94 372.61V392.88C348.453 392.847 346.999 392.442 345.71 391.7L281.49 354.62C280.872 354.245 280.368 353.709 280.03 353.07C277.48 348.19 278.09 333.37 279.93 330Z" fill="black"/>
<path d="M419.94 307.521C419.65 306.758 419.106 306.119 418.4 305.711L354.18 268.631C352.821 267.845 351.279 267.432 349.71 267.432C348.14 267.432 346.599 267.845 345.24 268.631L281.48 305.701C280.767 306.113 280.219 306.76 279.93 307.531C278.09 310.901 277.48 325.721 280.03 330.601C280.368 331.242 280.872 331.781 281.49 332.161L345.71 369.231C347.068 370.02 348.61 370.435 350.18 370.435C351.75 370.435 353.292 370.02 354.65 369.231L418.4 332.231C419.029 331.867 419.532 331.319 419.84 330.661C422.39 325.711 421.78 310.891 419.94 307.521Z" fill="#455A64"/>
<path opacity="0.1" d="M419.94 307.521C419.65 306.758 419.106 306.119 418.4 305.711L354.18 268.631C352.821 267.845 351.279 267.432 349.71 267.432C348.14 267.432 346.599 267.845 345.24 268.631L281.48 305.701C280.767 306.113 280.219 306.76 279.93 307.531C278.09 310.901 277.48 325.721 280.03 330.601C280.368 331.242 280.872 331.781 281.49 332.161L345.71 369.231C347.068 370.02 348.61 370.435 350.18 370.435C351.75 370.435 353.292 370.02 354.65 369.231L418.4 332.231C419.029 331.867 419.532 331.319 419.84 330.661C422.39 325.711 421.78 310.891 419.94 307.521Z" fill="black"/>
<path d="M433.418 232L372.698 196.92C372.161 196.605 371.551 196.436 370.928 196.43H370.628C365.078 196.43 360.728 199.79 357.508 203.67L357.368 203.83C357.044 204.234 356.806 204.7 356.668 205.2L339.238 270.1C338.741 271.933 338.863 273.879 339.587 275.635C340.31 277.391 341.594 278.859 343.238 279.81L403.998 314.86C404.645 315.236 405.392 315.407 406.138 315.35C413.088 314.64 417.138 310.35 419.218 308.07C419.614 307.637 419.898 307.116 420.048 306.55L437.468 241.67C437.947 239.837 437.809 237.897 437.078 236.15C436.346 234.403 435.06 232.945 433.418 232Z" fill="#455A64"/>
<path opacity="0.1" d="M433.418 232L372.698 196.92C372.16 196.605 371.55 196.436 370.928 196.43H370.628C365.078 196.43 360.728 199.79 357.508 203.67C358.075 203.052 358.837 202.647 359.666 202.522C360.496 202.396 361.343 202.558 362.068 202.98L422.788 238C424.516 239.002 425.844 240.57 426.548 242.44L437.148 236.32C436.432 234.497 435.117 232.973 433.418 232Z" fill="black"/>
<path opacity="0.2" d="M426.549 242.47C427.181 244.157 427.272 245.999 426.809 247.74L409.389 312.62C409.194 313.359 408.773 314.02 408.186 314.509C407.598 314.998 406.872 315.292 406.109 315.35C413.059 314.64 417.109 310.35 419.189 308.07C419.585 307.638 419.869 307.116 420.019 306.55L437.439 241.67C437.908 239.907 437.806 238.041 437.149 236.34L426.549 242.47Z" fill="black"/>
<path opacity="0.1" d="M339.241 270.101L356.651 205.221C356.788 204.721 357.026 204.255 357.351 203.851L357.491 203.691C360.711 199.811 365.061 196.501 370.611 196.451H370.911C371.534 196.452 372.146 196.621 372.681 196.941L433.421 232.001C433.851 232.252 434.26 232.54 434.641 232.861C435 233.167 435.335 233.502 435.641 233.861C436.264 234.596 436.758 235.431 437.101 236.331C437.262 236.747 437.389 237.175 437.481 237.611C437.481 237.821 437.561 238.041 437.591 238.251C437.585 238.267 437.585 238.285 437.591 238.301C437.591 238.511 437.591 238.711 437.591 238.911C437.596 238.954 437.596 238.998 437.591 239.041C437.591 239.221 437.591 239.401 437.591 239.591C437.591 239.781 437.591 239.731 437.591 239.801V240.271C437.591 240.391 437.591 240.501 437.541 240.621C437.491 240.741 437.541 240.851 437.491 240.961C437.441 241.071 437.401 241.421 437.341 241.651L420.001 306.561C419.851 307.127 419.566 307.649 419.171 308.081C417.171 310.351 413.041 314.651 406.091 315.361C405.344 315.419 404.598 315.248 403.951 314.871L343.241 279.821C341.594 278.87 340.309 277.401 339.585 275.642C338.862 273.884 338.741 271.936 339.241 270.101Z" fill="black"/>
<path opacity="0.3" d="M354.647 348.94L418.397 311.88C419.134 311.458 419.695 310.786 419.978 309.986C420.26 309.185 420.246 308.31 419.938 307.52C421.777 310.89 422.387 325.71 419.837 330.59C419.53 331.248 419.027 331.796 418.397 332.16L354.647 369.16C353.219 369.987 351.588 370.399 349.938 370.35V350.13C351.587 350.172 353.216 349.76 354.647 348.94Z" fill="black"/>
<path opacity="0.2" d="M279.93 307.52C279.633 308.31 279.626 309.181 279.912 309.976C280.198 310.771 280.757 311.439 281.49 311.86L345.71 349C347.001 349.736 348.454 350.142 349.94 350.18V370.4C348.453 370.367 346.999 369.961 345.71 369.22L281.49 332.15C280.872 331.77 280.368 331.231 280.03 330.59C277.48 325.71 278.09 310.89 279.93 307.52Z" fill="black"/>
<path d="M301.914 353.46C302.59 357.016 302.975 360.622 303.064 364.24L305.624 363.24C306.837 362.783 308.158 362.693 309.423 362.981C310.687 363.269 311.838 363.923 312.734 364.86L312.864 364.99C313.322 365.472 313.948 365.758 314.612 365.788C315.276 365.817 315.925 365.589 316.424 365.15C316.692 364.918 316.908 364.633 317.06 364.313C317.212 363.993 317.295 363.645 317.304 363.29L317.644 352.4L301.914 353.46Z" fill="#FFA8A7"/>
<path d="M311.794 393.941C306.484 399.621 296.704 404.581 289.594 399.741L290.394 401.551C297.504 406.391 307.274 401.431 312.594 395.751C317.914 390.071 314.454 386.131 319.234 381.091C321.039 379.367 322.448 377.272 323.364 374.951C323.154 374.411 322.944 373.701 322.694 372.891C321.666 375.258 320.223 377.422 318.434 379.281C313.654 384.321 317.104 388.261 311.794 393.941Z" fill="#F5F5F5"/>
<path d="M320.08 367.001C319.26 365.838 318.692 364.516 318.41 363.121C318.357 362.798 318.236 362.491 318.055 362.218C317.874 361.946 317.637 361.715 317.36 361.541L317.3 363.371C317.283 363.878 317.117 364.369 316.823 364.782C316.528 365.195 316.118 365.513 315.644 365.694C315.17 365.875 314.654 365.913 314.158 365.802C313.663 365.691 313.212 365.437 312.86 365.071L312.73 364.941C311.835 364.003 310.683 363.35 309.419 363.062C308.155 362.774 306.834 362.864 305.62 363.321L303.02 364.321C302.635 364.467 302.304 364.73 302.073 365.072C301.842 365.413 301.722 365.818 301.73 366.231C301.9 373.681 298.42 383.581 294.73 389.011C290.98 390.561 287.73 395.681 289.39 399.431L289.55 399.801C296.66 404.641 306.44 399.681 311.75 394.001C317.06 388.321 313.61 384.381 318.39 379.341C320.18 377.482 321.623 375.318 322.65 372.951C322.072 370.859 321.208 368.856 320.08 367.001Z" fill="#08803A"/>
<path d="M309.69 377.71C309.9 377.793 310.134 377.795 310.346 377.716C310.557 377.637 310.732 377.482 310.835 377.281C310.939 377.08 310.964 376.848 310.906 376.629C310.848 376.411 310.71 376.222 310.52 376.1C308.965 375.219 307.208 374.756 305.42 374.756C303.633 374.756 301.876 375.219 300.32 376.1C300.16 376.68 300 377.27 299.82 377.85C301.313 376.974 303.007 376.501 304.737 376.477C306.467 376.452 308.174 376.877 309.69 377.71Z" fill="white"/>
<path d="M311.002 373.68C311.106 373.733 311.221 373.765 311.338 373.774C311.456 373.782 311.573 373.768 311.685 373.731C311.797 373.693 311.9 373.634 311.988 373.557C312.077 373.48 312.149 373.386 312.202 373.28C312.309 373.07 312.33 372.826 312.261 372.6C312.192 372.375 312.038 372.185 311.832 372.07C310.203 371.178 308.372 370.717 306.515 370.733C304.657 370.749 302.835 371.24 301.222 372.16C301.112 372.76 300.982 373.37 300.852 373.98C304.002 372.35 307.072 371.7 311.002 373.68Z" fill="white"/>
<path d="M308.251 381.721C308.466 381.823 308.713 381.837 308.938 381.761C309.164 381.684 309.351 381.523 309.461 381.311C309.567 381.103 309.589 380.86 309.519 380.636C309.45 380.412 309.296 380.224 309.091 380.111C307.568 379.25 305.852 378.789 304.104 378.772C302.355 378.755 300.63 379.181 299.091 380.011C298.871 380.641 298.631 381.261 298.391 381.871C299.879 380.991 301.571 380.514 303.301 380.487C305.03 380.461 306.736 380.886 308.251 381.721Z" fill="white"/>
<path d="M294.769 389.001C291.019 390.551 287.769 395.671 289.429 399.421L289.589 399.791C296.589 404.561 306.179 399.791 311.589 394.241C307.069 385.421 297.719 387.611 294.769 389.001Z" fill="white"/>
<path d="M306.683 385.63C306.895 385.723 307.134 385.732 307.351 385.655C307.569 385.579 307.75 385.423 307.857 385.218C307.963 385.013 307.988 384.776 307.926 384.553C307.865 384.331 307.721 384.14 307.523 384.02C305.999 383.163 304.283 382.706 302.535 382.69C300.787 382.674 299.063 383.101 297.523 383.93C297.213 384.63 296.883 385.29 296.523 385.93C299.633 384.3 302.753 383.65 306.683 385.63Z" fill="white"/>
<path d="M290.753 375.111C289.938 378.643 288.834 382.101 287.453 385.451L290.183 385.601C291.478 385.683 292.72 386.143 293.755 386.926C294.79 387.708 295.572 388.778 296.003 390.001L296.063 390.171C296.288 390.796 296.745 391.31 297.339 391.606C297.934 391.902 298.619 391.958 299.253 391.761C299.591 391.654 299.904 391.479 300.172 391.247C300.44 391.015 300.658 390.731 300.813 390.411L305.523 380.581L290.753 375.111Z" fill="#FFA8A7"/>
<path d="M283.455 416.141C276.295 419.191 265.345 419.791 260.805 412.491V414.491C265.345 421.791 276.295 421.201 283.455 418.141C290.615 415.081 289.035 410.141 295.455 407.421C297.8 406.567 299.935 405.22 301.715 403.471C301.715 402.891 301.835 402.161 301.935 401.311C300.04 403.064 297.845 404.463 295.455 405.441C289.005 408.091 290.605 413.081 283.455 416.141Z" fill="#F5F5F5"/>
<path d="M301.924 394.8C301.63 393.409 301.63 391.971 301.924 390.58C302.008 390.263 302.022 389.931 301.965 389.609C301.908 389.286 301.782 388.979 301.594 388.71L300.804 390.36C300.65 390.679 300.432 390.963 300.163 391.196C299.895 391.428 299.582 391.603 299.244 391.71C298.61 391.906 297.925 391.85 297.331 391.554C296.737 391.258 296.279 390.744 296.054 390.12L296.004 390C295.563 388.781 294.773 387.719 293.733 386.946C292.693 386.172 291.449 385.722 290.154 385.65L287.384 385.5C286.964 385.468 286.544 385.57 286.185 385.791C285.826 386.011 285.546 386.34 285.384 386.73C282.534 393.61 275.384 401.25 269.824 404.73C265.764 404.63 260.734 408 260.734 412.1V412.51C265.274 419.81 276.224 419.21 283.384 416.16C290.544 413.11 288.964 408.11 295.384 405.43C297.774 404.453 299.969 403.054 301.864 401.3C302.19 399.147 302.21 396.959 301.924 394.8Z" fill="#08803A"/>
<path d="M288.074 400.44C288.15 400.531 288.242 400.607 288.347 400.662C288.452 400.718 288.566 400.752 288.684 400.763C288.802 400.775 288.921 400.762 289.035 400.727C289.148 400.692 289.253 400.635 289.344 400.56C289.436 400.487 289.513 400.398 289.57 400.296C289.628 400.194 289.664 400.082 289.678 399.966C289.692 399.85 289.683 399.732 289.652 399.619C289.62 399.507 289.567 399.401 289.494 399.31C288.423 397.878 287.001 396.748 285.364 396.028C283.728 395.308 281.933 395.022 280.154 395.2C279.774 395.68 279.384 396.14 278.984 396.6C280.702 396.399 282.443 396.647 284.036 397.32C285.629 397.993 287.021 399.068 288.074 400.44Z" fill="white"/>
<path d="M290.902 397.29C291.06 397.454 291.274 397.553 291.501 397.567C291.728 397.581 291.953 397.51 292.13 397.367C292.307 397.223 292.424 397.019 292.458 396.794C292.491 396.569 292.44 396.339 292.312 396.15C291.18 394.676 289.69 393.515 287.984 392.779C286.278 392.042 284.411 391.753 282.562 391.94C282.222 392.45 281.862 392.94 281.492 393.47C285.002 393.22 288.102 393.88 290.902 397.29Z" fill="white"/>
<path d="M285.14 403.531C285.291 403.719 285.511 403.84 285.751 403.866C285.991 403.892 286.232 403.822 286.42 403.671C286.609 403.52 286.729 403.3 286.755 403.06C286.782 402.82 286.711 402.579 286.56 402.391C285.512 400.994 284.129 399.884 282.539 399.164C280.948 398.444 279.201 398.137 277.46 398.271C277 398.761 276.54 399.271 276.07 399.691C277.785 399.494 279.521 399.744 281.111 400.417C282.7 401.09 284.088 402.163 285.14 403.531Z" fill="white"/>
<path d="M269.895 404.711C265.835 404.611 260.805 407.981 260.805 412.081V412.491C265.285 419.681 275.965 419.201 283.125 416.271C282.575 406.441 273.135 404.671 269.895 404.711Z" fill="white"/>
<path d="M282.129 406.48C282.287 406.644 282.5 406.743 282.728 406.757C282.955 406.771 283.179 406.699 283.356 406.556C283.534 406.413 283.651 406.209 283.684 405.983C283.718 405.758 283.666 405.528 283.539 405.34C282.491 403.94 281.107 402.828 279.514 402.108C277.921 401.388 276.172 401.082 274.429 401.22C273.849 401.73 273.289 402.22 272.719 402.66C276.219 402.41 279.339 403.07 282.129 406.48Z" fill="white"/>
<path d="M332.765 282.09L297.005 302C293.762 303.81 291.168 306.592 289.59 309.954C288.011 313.316 287.527 317.088 288.205 320.74L295.145 358.15L289.455 376.26C294.365 382.85 305.655 383.18 305.655 383.18C311.945 370.56 316.565 365.18 320.145 354.62C323.725 344.06 326.145 336.74 326.145 336.74L355.865 328.61C362.669 326.764 368.762 322.918 373.355 317.569C377.948 312.22 380.829 305.615 381.625 298.61C382.135 294.12 382.155 291.05 382.155 291.05L332.765 282.09Z" fill="#08803A"/>
<path opacity="0.4" d="M332.765 282.09L297.005 302C293.762 303.81 291.168 306.592 289.59 309.954C288.011 313.316 287.527 317.088 288.205 320.74L295.145 358.15L289.455 376.26C294.365 382.85 305.655 383.18 305.655 383.18C311.945 370.56 316.565 365.18 320.145 354.62C323.725 344.06 326.145 336.74 326.145 336.74L355.865 328.61C362.669 326.764 368.762 322.918 373.355 317.569C377.948 312.22 380.829 305.615 381.625 298.61C382.135 294.12 382.155 291.05 382.155 291.05L332.765 282.09Z" fill="black"/>
<path opacity="0.2" d="M333.003 292.15C333.013 296.144 334.429 300.006 337.003 303.06L311.742 318.87C308.025 321.203 305.276 324.801 304.003 329L295.062 358.23L303.133 325.68C304.057 321.937 306.412 318.706 309.693 316.68L333.022 302.26C330.672 296.24 333.003 292.15 333.003 292.15Z" fill="black"/>
<path d="M358.004 307.05C358.033 307.209 358.033 307.371 358.004 307.53C357.953 307.659 357.889 307.783 357.814 307.9C357.716 308.027 357.609 308.148 357.494 308.26C357.341 308.388 357.177 308.502 357.004 308.6L330.814 323.83C330.572 323.958 330.322 324.068 330.064 324.16L329.774 324.24L329.394 324.34L328.924 324.42H328.814C328.601 324.435 328.387 324.435 328.174 324.42H328.004C327.791 324.435 327.577 324.435 327.364 324.42H327.274C327.069 324.397 326.865 324.364 326.664 324.32H326.554C326.374 324.277 326.197 324.224 326.024 324.16H325.924C325.726 324.08 325.532 323.99 325.344 323.89L282.134 298.89C281.96 298.792 281.796 298.678 281.644 298.55L281.514 298.41C281.432 298.332 281.355 298.248 281.284 298.16C281.284 298.11 281.284 298.05 281.204 298C281.155 297.92 281.111 297.836 281.074 297.75C281.074 297.69 281.074 297.63 281.074 297.57C281.069 297.49 281.069 297.41 281.074 297.33V298.86C281.069 298.943 281.069 299.027 281.074 299.11C281.074 299.17 281.074 299.23 281.074 299.28C281.111 299.366 281.155 299.45 281.204 299.53L281.284 299.69C281.355 299.778 281.432 299.862 281.514 299.94C281.555 299.989 281.598 300.036 281.644 300.08C281.796 300.212 281.96 300.329 282.134 300.43L325.344 325.38C325.532 325.48 325.726 325.57 325.924 325.65H326.024C326.196 325.718 326.373 325.772 326.554 325.81H326.664C326.865 325.857 327.069 325.894 327.274 325.92H327.364C327.574 325.92 327.784 325.92 328.004 325.92H328.104C328.314 325.92 328.534 325.92 328.744 325.92H328.854L329.324 325.84L329.704 325.75L329.994 325.66C330.253 325.573 330.504 325.462 330.744 325.33L356.934 310.1C357.11 310.006 357.274 309.892 357.424 309.76C357.539 309.648 357.646 309.527 357.744 309.4C357.821 309.284 357.885 309.16 357.934 309.03C357.949 308.914 357.949 308.796 357.934 308.68V307.01L358.004 307.05Z" fill="#E0E0E0"/>
<path opacity="0.2" d="M358.004 307.05C358.033 307.209 358.033 307.371 358.004 307.53C357.953 307.659 357.889 307.783 357.814 307.9C357.716 308.027 357.609 308.148 357.494 308.26C357.341 308.388 357.177 308.502 357.004 308.6L330.814 323.83C330.572 323.958 330.322 324.068 330.064 324.16L329.774 324.24L329.394 324.34L328.924 324.42H328.814C328.601 324.435 328.387 324.435 328.174 324.42H328.004C327.791 324.435 327.577 324.435 327.364 324.42H327.274C327.069 324.397 326.865 324.364 326.664 324.32H326.554C326.374 324.277 326.197 324.224 326.024 324.16H325.924C325.726 324.08 325.532 323.99 325.344 323.89L282.134 298.89C281.96 298.792 281.796 298.678 281.644 298.55L281.514 298.41C281.432 298.332 281.355 298.248 281.284 298.16C281.284 298.11 281.284 298.05 281.204 298C281.155 297.92 281.111 297.836 281.074 297.75C281.074 297.69 281.074 297.63 281.074 297.57C281.069 297.49 281.069 297.41 281.074 297.33V298.86C281.069 298.943 281.069 299.027 281.074 299.11C281.074 299.17 281.074 299.23 281.074 299.28C281.111 299.366 281.155 299.45 281.204 299.53L281.284 299.69C281.355 299.778 281.432 299.862 281.514 299.94C281.555 299.989 281.598 300.036 281.644 300.08C281.796 300.212 281.96 300.329 282.134 300.43L325.344 325.38C325.532 325.48 325.726 325.57 325.924 325.65H326.024C326.196 325.718 326.373 325.772 326.554 325.81H326.664C326.865 325.857 327.069 325.894 327.274 325.92H327.364C327.574 325.92 327.784 325.92 328.004 325.92H328.104C328.314 325.92 328.534 325.92 328.744 325.92H328.854L329.324 325.84L329.704 325.75L329.994 325.66C330.253 325.573 330.504 325.462 330.744 325.33L356.934 310.1C357.11 310.006 357.274 309.892 357.424 309.76C357.539 309.648 357.646 309.527 357.744 309.4C357.821 309.284 357.885 309.16 357.934 309.03C357.949 308.914 357.949 308.796 357.934 308.68V307.01L358.004 307.05Z" fill="black"/>
<path d="M281.074 297.82C281.111 297.906 281.154 297.99 281.204 298.07C281.204 298.12 281.254 298.18 281.284 298.23C281.355 298.318 281.432 298.402 281.514 298.48L281.644 298.62C281.796 298.748 281.96 298.862 282.134 298.96L325.344 323.96C325.532 324.06 325.726 324.15 325.924 324.23H326.024C326.197 324.294 326.374 324.347 326.554 324.39H326.664C326.865 324.434 327.069 324.467 327.274 324.49H327.364C327.577 324.505 327.791 324.505 328.004 324.49H328.104C328.317 324.505 328.531 324.505 328.744 324.49H328.854L329.324 324.41L329.704 324.31L329.994 324.23C330.251 324.138 330.502 324.028 330.744 323.9L356.934 308.67C357.107 308.572 357.271 308.458 357.424 308.33C357.539 308.218 357.645 308.097 357.744 307.97C357.819 307.853 357.882 307.729 357.934 307.6C357.963 307.442 357.963 307.279 357.934 307.12C357.881 306.802 357.753 306.502 357.56 306.244C357.367 305.986 357.114 305.779 356.824 305.64L313.604 280.69C312.77 280.266 311.849 280.045 310.914 280.045C309.979 280.045 309.057 280.266 308.224 280.69L282.034 295.91C281.752 296.054 281.511 296.265 281.331 296.525C281.151 296.785 281.039 297.086 281.004 297.4C280.999 297.48 280.999 297.56 281.004 297.64C281.064 297.7 281.054 297.76 281.074 297.82Z" fill="#E0E0E0"/>
<path d="M284.672 297.4L326.672 321.64C326.725 321.674 326.782 321.701 326.842 321.72H326.932C327.039 321.762 327.15 321.795 327.262 321.82H327.492H327.652H328.052C328.195 321.834 328.339 321.834 328.482 321.82H328.762L329.102 321.72C329.204 321.696 329.302 321.655 329.392 321.6L342.892 313.75L299.522 288.75L284.672 297.4Z" fill="#E0E0E0"/>
<path d="M324.623 290.731L316.723 295.381C316.603 295.451 316.503 295.552 316.434 295.673C316.365 295.794 316.328 295.931 316.328 296.071C316.328 296.21 316.365 296.347 316.434 296.468C316.503 296.589 316.603 296.69 316.723 296.761L328.543 303.581C328.744 303.697 328.972 303.758 329.203 303.758C329.435 303.758 329.663 303.697 329.863 303.581L337.763 298.941C337.884 298.87 337.983 298.769 338.053 298.648C338.122 298.527 338.158 298.39 338.158 298.251C338.158 298.111 338.122 297.974 338.053 297.853C337.983 297.732 337.884 297.631 337.763 297.561L325.953 290.741C325.753 290.619 325.524 290.555 325.29 290.553C325.056 290.551 324.825 290.613 324.623 290.731Z" fill="#E0E0E0"/>
<path opacity="0.4" d="M284.672 297.4L326.672 321.64C326.725 321.674 326.782 321.701 326.842 321.72H326.932C327.039 321.762 327.15 321.795 327.262 321.82H327.492H327.652H328.052C328.195 321.834 328.339 321.834 328.482 321.82H328.762L329.102 321.72C329.204 321.696 329.302 321.655 329.392 321.6L342.892 313.75L299.522 288.75L284.672 297.4Z" fill="black"/>
<path opacity="0.4" d="M324.623 290.731L316.723 295.381C316.603 295.451 316.503 295.552 316.434 295.673C316.365 295.794 316.328 295.931 316.328 296.071C316.328 296.21 316.365 296.347 316.434 296.468C316.503 296.589 316.603 296.69 316.723 296.761L328.543 303.581C328.744 303.697 328.972 303.758 329.203 303.758C329.435 303.758 329.663 303.697 329.863 303.581L337.763 298.941C337.884 298.87 337.983 298.769 338.053 298.648C338.122 298.527 338.158 298.39 338.158 298.251C338.158 298.111 338.122 297.974 338.053 297.853C337.983 297.732 337.884 297.631 337.763 297.561L325.953 290.741C325.753 290.619 325.524 290.555 325.29 290.553C325.056 290.551 324.825 290.613 324.623 290.731Z" fill="black"/>
<path d="M322.464 233.53L320.514 264.89L300.274 282.34C299.094 282.829 297.816 283.031 296.544 282.93L289.044 282.31C288.163 282.237 287.281 282.444 286.524 282.9L282.224 285.5C281.794 285.772 281.409 286.109 281.084 286.5L279.004 289C278.862 289.166 278.756 289.36 278.692 289.57C278.629 289.779 278.61 289.999 278.636 290.216C278.663 290.434 278.734 290.643 278.845 290.831C278.957 291.019 279.106 291.182 279.284 291.31L280.614 292.25C281.31 292.751 282.131 293.051 282.986 293.118C283.841 293.185 284.698 293.016 285.464 292.63L288.794 290.95L295.654 291.7V293.5L293.794 295.09C293.584 295.281 293.417 295.515 293.305 295.775C293.192 296.036 293.137 296.318 293.141 296.601C293.146 296.885 293.211 297.165 293.332 297.421C293.453 297.678 293.628 297.906 293.844 298.09C293.844 298.09 298.434 296.73 302.594 290.09L326.824 279.14C329.316 278.013 331.448 276.22 332.985 273.957C334.522 271.695 335.404 269.052 335.534 266.32L337.684 220.5L334.334 220.92C331.195 221.308 328.291 222.781 326.124 225.083C323.956 227.386 322.661 230.374 322.464 233.53Z" fill="#FFA8A7"/>
<path d="M337.659 220.49L333.989 220.73C330.65 220.938 327.497 222.343 325.11 224.686C322.722 227.03 321.259 230.156 320.989 233.49L319.469 252.4C324.719 258.98 338.389 256.22 338.389 256.22L337.659 220.49Z" fill="#455A64"/>
<path opacity="0.5" d="M337.659 220.49L333.989 220.73C330.65 220.938 327.497 222.343 325.11 224.686C322.722 227.03 321.259 230.156 320.989 233.49L319.469 252.4C324.719 258.98 338.389 256.22 338.389 256.22L337.659 220.49Z" fill="white"/>
<path d="M382.649 293.901C376.299 300.001 345.799 301.121 330.229 286.301C331.729 275.851 331.229 264.641 330.229 253.561C329.229 242.481 322.759 223.101 335.129 220.851C351.649 217.621 362.439 217.851 373.479 224.101C385.259 243.731 383.639 273.111 382.649 293.901Z" fill="#455A64"/>
<path opacity="0.3" d="M382.649 293.901C376.299 300.001 345.799 301.121 330.229 286.301C331.729 275.851 331.229 264.641 330.229 253.561C329.229 242.481 322.759 223.101 335.129 220.851C351.649 217.621 362.439 217.851 373.479 224.101C385.259 243.731 383.639 273.111 382.649 293.901Z" fill="white"/>
<path d="M392.612 273.001L387.942 255.631L371.562 259.221L375.482 272.691L351.482 289.691L343.412 293.091C341.273 293.99 339.422 295.461 338.062 297.341L331.472 306.461C331.413 306.582 331.389 306.717 331.402 306.851C331.443 307.086 331.55 307.305 331.711 307.482C331.872 307.659 332.081 307.786 332.311 307.849C332.542 307.912 332.786 307.908 333.014 307.837C333.243 307.767 333.447 307.633 333.602 307.451C335.072 305.781 336.282 304.241 337.812 302.771L333.932 308.021C333.803 308.197 333.713 308.398 333.667 308.611C333.621 308.824 333.621 309.045 333.666 309.258C333.712 309.471 333.801 309.673 333.93 309.849C334.058 310.025 334.223 310.172 334.412 310.281C334.852 310.54 335.322 310.745 335.812 310.891C336.763 311.136 337.761 311.14 338.714 310.902C339.667 310.665 340.546 310.194 341.272 309.531L346.352 304.871L347.762 304.381C351.865 302.957 355.437 300.316 358.002 296.811L386.152 285.881C388.628 284.909 390.657 283.056 391.85 280.679C393.042 278.301 393.314 275.566 392.612 273.001Z" fill="#FFA8A7"/>
<path d="M390.501 257.931L390.001 255.631C384.051 228.631 379.311 226.631 371.331 222.961C363.571 229.721 364.871 241.211 364.871 241.211L371.821 262.001L372.031 262.601C375.265 263.112 378.57 262.961 381.744 262.158C384.919 261.356 387.898 259.917 390.501 257.931Z" fill="#455A64"/>
<path opacity="0.5" d="M390.501 257.931L390.001 255.631C384.051 228.631 379.311 226.631 371.331 222.961C363.571 229.721 364.871 241.211 364.871 241.211L371.821 262.001L372.031 262.601C375.265 263.112 378.57 262.961 381.744 262.158C384.919 261.356 387.898 259.917 390.501 257.931Z" fill="white"/>
<path d="M334.334 212.72C333.909 213.817 333.851 215.021 334.169 216.153C334.486 217.286 335.162 218.284 336.094 219C337.049 219.683 338.14 220.152 339.293 220.375C340.446 220.597 341.633 220.569 342.774 220.29C345.051 219.731 347.188 218.71 349.054 217.29C350.654 216.15 352.254 214.84 354.194 214.54C356.134 214.24 358.054 215.36 358.114 217.32C358.911 217.179 359.662 216.85 360.307 216.361C360.952 215.873 361.472 215.239 361.824 214.51C362.318 215.173 363.006 215.667 363.792 215.923C364.578 216.179 365.424 216.185 366.214 215.94C366.994 215.643 367.664 215.116 368.136 214.428C368.607 213.74 368.858 212.925 368.854 212.09C369.682 212.581 370.661 212.75 371.605 212.566C372.549 212.381 373.392 211.856 373.974 211.09C372.963 210.838 372.019 210.372 371.203 209.724C370.388 209.076 369.721 208.261 369.247 207.333C368.773 206.405 368.503 205.387 368.456 204.346C368.409 203.306 368.586 202.267 368.974 201.3C370.074 198.59 372.804 196.49 372.924 193.57C372.881 192.31 372.394 191.106 371.548 190.171C370.703 189.236 369.554 188.63 368.304 188.46C369.367 187.679 370.155 186.58 370.552 185.321C370.949 184.063 370.936 182.711 370.514 181.46C370.029 180.188 369.169 179.094 368.047 178.322C366.925 177.551 365.596 177.138 364.234 177.14C364.578 176.655 364.753 176.071 364.733 175.477C364.713 174.883 364.5 174.311 364.124 173.85C363.735 173.403 363.261 173.037 362.728 172.776C362.196 172.515 361.616 172.363 361.024 172.33C359.839 172.271 358.652 172.372 357.494 172.63L353.694 173.3C350.954 169.05 346.004 166.24 341.174 167.7C339.714 168.15 338.364 168.86 336.934 169.4C335.534 170.016 333.986 170.218 332.474 169.98C331.721 169.842 331.026 169.483 330.478 168.949C329.929 168.415 329.552 167.73 329.394 166.98C327.684 168.12 327.064 171.15 327.994 172.98C326.076 173.046 324.244 173.79 322.824 175.08C322.138 175.705 321.613 176.485 321.293 177.355C320.972 178.226 320.866 179.161 320.984 180.08C321.131 180.999 321.549 181.853 322.185 182.532C322.822 183.211 323.647 183.684 324.554 183.89C323.357 185.101 322.515 186.616 322.12 188.272C321.725 189.928 321.792 191.66 322.314 193.28C322.934 194.705 323.727 196.049 324.674 197.28C325.616 198.516 326.349 199.898 326.844 201.37C327.086 202.112 327.16 202.898 327.059 203.671C326.959 204.444 326.687 205.185 326.264 205.84C325.81 206.469 325.147 206.914 324.393 207.098C323.64 207.281 322.846 207.19 322.154 206.84C322.418 208.03 322.94 209.148 323.683 210.114C324.426 211.08 325.372 211.87 326.454 212.43C328.594 213.54 332.244 213.82 334.334 212.72Z" fill="#263238"/>
<path d="M357.927 208.94V220.55C357.932 221.328 357.77 222.098 357.453 222.809C357.136 223.519 356.67 224.154 356.087 224.67C353.024 227.332 349.039 228.689 344.987 228.45C344.163 228.457 343.356 228.209 342.677 227.74C342.27 227.335 341.985 226.825 341.854 226.266C341.723 225.707 341.752 225.123 341.938 224.58C342.129 223.968 342.416 223.391 342.788 222.87C343.379 222.003 343.696 220.979 343.698 219.93V208.93L357.927 208.94Z" fill="#FFA8A7"/>
<path opacity="0.2" d="M349.483 218.321C347.598 218.886 345.662 219.268 343.703 219.461V208.941H357.933V211.421C357.616 212.126 357.227 212.796 356.773 213.421C354.927 215.789 352.373 217.506 349.483 218.321Z" fill="black"/>
<path d="M343.094 190.32C344.864 189.81 346.734 188.88 348.434 189.57C349.324 190.052 350.134 190.669 350.834 191.4C352.327 192.627 354.202 193.292 356.134 193.28C356.284 193.562 356.357 193.88 356.344 194.2L356.124 199.05C356.061 199.385 356.074 199.73 356.16 200.061C356.246 200.391 356.405 200.698 356.624 200.96C356.882 201.136 357.187 201.23 357.499 201.23C357.812 201.23 358.117 201.136 358.374 200.96C358.888 200.6 359.321 200.137 359.644 199.6C360.349 198.484 361.207 197.474 362.194 196.6C362.694 196.173 363.279 195.857 363.91 195.672C364.541 195.488 365.203 195.439 365.854 195.53C367.954 195.96 369.194 198.34 369.044 200.53C368.959 201.632 368.599 202.697 367.999 203.626C367.398 204.554 366.575 205.319 365.604 205.85C364.614 206.321 363.521 206.536 362.426 206.477C361.331 206.418 360.268 206.085 359.334 205.51C359.654 209.33 357.044 212.92 353.764 214.9C350.484 216.88 346.614 217.59 342.834 218.26C340.764 218.62 338.584 218.97 336.624 218.26C335.034 217.6 333.711 216.428 332.864 214.93C332.036 213.436 331.42 211.834 331.034 210.17C329.024 202.625 328.515 194.76 329.534 187.02C333.164 190.14 339.364 191.4 343.094 190.32Z" fill="#FFA8A7"/>
<path d="M340.188 198.74L335.828 206.07L341.018 207.05L340.188 198.74Z" fill="#F28F8F"/>
<path d="M346.003 209.58L342.062 211.5C342.402 211.948 342.879 212.274 343.42 212.427C343.962 212.58 344.538 212.553 345.062 212.35C345.512 212.065 345.85 211.635 346.021 211.131C346.192 210.627 346.186 210.08 346.003 209.58Z" fill="#F28F8F"/>
<path opacity="0.3" d="M346.003 209.58L342.062 211.5C342.402 211.948 342.879 212.274 343.42 212.427C343.962 212.58 344.538 212.553 345.062 212.35C345.512 212.065 345.85 211.635 346.021 211.131C346.192 210.627 346.186 210.08 346.003 209.58Z" fill="black"/>
<path d="M343.711 212.48C344.171 212.569 344.646 212.524 345.081 212.35C345.443 212.146 345.736 211.84 345.923 211.47C346.11 211.099 346.182 210.681 346.131 210.27C345.567 210.264 345.019 210.455 344.581 210.81C344.333 211.017 344.128 211.271 343.979 211.558C343.83 211.844 343.739 212.158 343.711 212.48Z" fill="#F28F8F"/>
<path d="M347.71 199.001C347.749 199.399 347.629 199.796 347.376 200.105C347.123 200.415 346.757 200.611 346.36 200.651C345.962 200.691 345.564 200.571 345.255 200.318C344.946 200.064 344.749 199.699 344.71 199.301C344.673 198.906 344.793 198.513 345.044 198.207C345.294 197.9 345.656 197.704 346.05 197.661C346.247 197.637 346.447 197.654 346.638 197.708C346.829 197.763 347.007 197.856 347.162 197.981C347.317 198.106 347.445 198.26 347.539 198.436C347.633 198.611 347.691 198.803 347.71 199.001Z" fill="#263238"/>
<path d="M335.203 199.801C335.243 200.199 335.123 200.596 334.87 200.905C334.616 201.215 334.251 201.411 333.853 201.451C333.455 201.491 333.058 201.371 332.748 201.118C332.439 200.864 332.243 200.499 332.203 200.101C332.183 199.904 332.202 199.705 332.26 199.515C332.317 199.326 332.411 199.149 332.536 198.996C332.661 198.843 332.816 198.716 332.99 198.622C333.165 198.529 333.356 198.471 333.553 198.451C333.75 198.431 333.949 198.45 334.138 198.508C334.328 198.565 334.504 198.659 334.657 198.784C334.811 198.909 334.938 199.064 335.031 199.238C335.125 199.413 335.183 199.604 335.203 199.801Z" fill="#263238"/>
<path d="M333.164 194.001L330.104 196.611C329.917 196.218 329.856 195.777 329.927 195.348C329.999 194.919 330.2 194.522 330.504 194.211C330.884 193.933 331.334 193.766 331.804 193.729C332.274 193.691 332.745 193.786 333.164 194.001Z" fill="#263238"/>
<path d="M345.852 192.58L349.372 194.53C349.477 194.108 349.45 193.664 349.294 193.258C349.139 192.852 348.862 192.503 348.502 192.26C348.074 192.062 347.599 191.987 347.131 192.044C346.663 192.1 346.22 192.286 345.852 192.58Z" fill="#263238"/>
<path d="M343.359 228.13L345.779 225.03C352.609 224.23 356.669 218.19 357.929 216.65C358.678 216.821 359.329 217.281 359.739 217.93L360.989 219.93C359.989 225.93 352.369 231.93 349.869 232.93C349.375 231.297 348.614 229.757 347.619 228.37C346.947 228.693 346.203 228.84 345.459 228.798C344.714 228.756 343.991 228.527 343.359 228.13Z" fill="#455A64"/>
<path opacity="0.5" d="M343.359 228.13L345.779 225.03C352.609 224.23 356.669 218.19 357.929 216.65C358.678 216.821 359.329 217.281 359.739 217.93L360.989 219.93C359.989 225.93 352.369 231.93 349.869 232.93C349.375 231.297 348.614 229.757 347.619 228.37C346.947 228.693 346.203 228.84 345.459 228.798C344.714 228.756 343.991 228.527 343.359 228.13Z" fill="white"/>
<path opacity="0.1" d="M346.002 226.121C346.635 226.815 347.194 227.572 347.672 228.381C347.043 228.663 346.361 228.803 345.672 228.791C346.07 227.961 346.185 227.023 346.002 226.121Z" fill="black"/>
<path d="M343.357 228.13C342.527 225.9 343.707 223.57 343.707 220.49V218.49C342.948 219.764 341.873 220.821 340.587 221.56C339.529 223.216 338.799 225.059 338.438 226.99C339.237 225.963 340.12 225.003 341.077 224.12C341.107 226.81 342.277 227.87 343.357 228.13Z" fill="#455A64"/>
<path opacity="0.5" d="M343.357 228.13C342.527 225.9 343.707 223.57 343.707 220.49V218.49C342.948 219.764 341.873 220.821 340.587 221.56C339.529 223.216 338.799 225.059 338.438 226.99C339.237 225.963 340.12 225.003 341.077 224.12C341.107 226.81 342.277 227.87 343.357 228.13Z" fill="white"/>
<path opacity="0.1" d="M339.68 225.5C339.967 224.26 340.52 223.096 341.3 222.09C341.142 222.745 341.065 223.416 341.07 224.09C340.581 224.534 340.116 225.004 339.68 225.5Z" fill="black"/>
<path d="M327.778 322.371L323.308 293.911C323.187 293.14 322.895 292.406 322.454 291.763C322.013 291.119 321.433 290.582 320.758 290.191L277.238 264.891C277.064 264.788 276.869 264.728 276.668 264.714C276.466 264.7 276.264 264.733 276.078 264.811L275.078 265.321L275.428 265.451C275.311 265.693 275.27 265.965 275.308 266.231L279.788 294.681C279.907 295.452 280.198 296.187 280.64 296.831C281.081 297.475 281.662 298.012 282.338 298.401L325.848 323.701C325.939 323.754 326.037 323.794 326.138 323.821V324.241L327.138 323.741C327.376 323.61 327.567 323.407 327.682 323.161C327.797 322.914 327.831 322.638 327.778 322.371Z" fill="#E0E0E0"/>
<path opacity="0.3" d="M327.778 322.371L323.308 293.911C323.187 293.14 322.895 292.406 322.454 291.763C322.013 291.119 321.433 290.582 320.758 290.191L277.238 264.891C277.064 264.788 276.869 264.728 276.668 264.714C276.466 264.7 276.264 264.733 276.078 264.811L275.078 265.321L275.428 265.451C275.311 265.693 275.27 265.965 275.308 266.231L279.788 294.681C279.907 295.452 280.198 296.187 280.64 296.831C281.081 297.475 281.662 298.012 282.338 298.401L325.848 323.701C325.939 323.754 326.037 323.794 326.138 323.821V324.241L327.138 323.741C327.376 323.61 327.567 323.407 327.682 323.161C327.797 322.914 327.831 322.638 327.778 322.371Z" fill="black"/>
<path d="M319.885 290.631L276.365 265.321C276.15 265.197 275.905 265.136 275.658 265.146C275.41 265.155 275.171 265.235 274.967 265.375C274.762 265.515 274.602 265.71 274.505 265.938C274.407 266.166 274.376 266.416 274.415 266.661L278.885 295.111C279.005 295.883 279.296 296.619 279.737 297.265C280.178 297.91 280.758 298.449 281.435 298.841L325.005 324.141C325.22 324.28 325.471 324.353 325.727 324.351C325.983 324.349 326.233 324.272 326.446 324.13C326.659 323.987 326.825 323.785 326.925 323.549C327.024 323.313 327.052 323.053 327.005 322.801L322.525 294.351C322.396 293.571 322.091 292.831 321.634 292.187C321.176 291.542 320.578 291.01 319.885 290.631Z" fill="#E0E0E0"/>
<path d="M298.793 291.359C299.897 292.049 300.85 292.956 301.592 294.026C302.335 295.095 302.852 296.304 303.113 297.579C303.393 299.799 301.933 300.63 299.823 299.41C298.72 298.719 297.768 297.812 297.025 296.742C296.283 295.673 295.765 294.465 295.503 293.19C295.223 291 296.693 290.149 298.793 291.359Z" fill="white"/>
<path d="M358.109 344.77V408.45L439.109 361.68V298L358.109 344.77ZM366.999 350L430.089 313.56V356.43L366.999 392.81V350Z" fill="#08803A"/>
<path d="M358.109 344.771L349.109 339.611V403.291L358.109 408.451V344.771Z" fill="#08803A"/>
<path d="M439.109 298.021L430.109 292.861L349.109 339.611L358.109 344.771L439.109 298.021Z" fill="#08803A"/>
<path opacity="0.3" d="M439.109 298.021L430.109 292.861L349.109 339.611L358.109 344.771L439.109 298.021Z" fill="white"/>
<path d="M421.109 351.3L430.109 356.46V313.58L421.109 318.79V351.3Z" fill="#08803A"/>
<path d="M367.023 392.811V382.461L421.113 351.301L430.113 356.461L367.023 392.811Z" fill="#08803A"/>
<path opacity="0.2" d="M358.109 344.771L349.109 339.611V403.291L358.109 408.451V344.771Z" fill="white"/>
<path opacity="0.2" d="M421.109 351.3L430.109 356.46V313.58L421.109 318.79V351.3Z" fill="white"/>
<path opacity="0.3" d="M367.023 392.811V382.461L421.113 351.301L430.113 356.461L367.023 392.811Z" fill="white"/>
<path d="M441.494 283.231C441.201 282.467 440.653 281.828 439.944 281.421L434.484 278.301C433.126 277.515 431.584 277.102 430.014 277.102C428.445 277.102 426.903 277.515 425.544 278.301L345.544 325.731C344.832 326.141 344.287 326.789 344.004 327.561C342.935 329.897 342.389 332.438 342.407 335.007C342.424 337.576 343.003 340.11 344.104 342.431C344.443 343.072 344.947 343.611 345.564 343.991L351.024 347.101C352.383 347.886 353.925 348.3 355.494 348.3C357.064 348.3 358.606 347.886 359.964 347.101L439.964 299.661C440.593 299.3 441.095 298.756 441.404 298.101C442.502 295.779 443.079 293.244 443.095 290.676C443.11 288.107 442.564 285.566 441.494 283.231Z" fill="#455A64"/>
<path opacity="0.3" d="M359.921 335.001L439.921 287.561C440.653 287.135 441.21 286.463 441.492 285.664C441.774 284.865 441.763 283.992 441.461 283.201C442.531 285.539 443.076 288.082 443.059 290.652C443.042 293.223 442.462 295.758 441.361 298.081C441.052 298.736 440.549 299.281 439.921 299.641L359.921 347.081C358.49 347.902 356.86 348.314 355.211 348.271V336.221C356.863 336.255 358.493 335.833 359.921 335.001Z" fill="black"/>
<path opacity="0.2" d="M343.998 327.58C343.697 328.371 343.688 329.243 343.972 330.04C344.256 330.838 344.815 331.508 345.548 331.93L350.998 335C352.287 335.741 353.742 336.146 355.228 336.18V348.3C353.742 348.266 352.287 347.861 350.998 347.12L345.518 344C344.901 343.62 344.396 343.081 344.058 342.44C342.965 340.117 342.393 337.584 342.383 335.017C342.373 332.45 342.924 329.912 343.998 327.58Z" fill="black"/>
<path d="M232.042 295.738L243.582 316.838L236.612 312.808L236.562 328.408L227.352 323.078L227.392 307.488L220.422 303.468L232.042 295.738Z" fill="#08803A"/>
<path d="M236.623 330.59L236.603 336.55L227.383 331.23L227.403 325.27L236.623 330.59Z" fill="#08803A"/>
<path d="M236.623 338.949L236.603 341.929L227.383 336.609L227.403 333.619L236.623 338.949Z" fill="#08803A"/>
<path d="M236.623 343.93L236.603 345.73L227.383 340.4L227.403 338.6L236.623 343.93Z" fill="#08803A"/>
<path d="M406.151 242.439L417.681 263.539L410.711 259.519L410.671 275.109L401.451 269.789L401.501 254.199L394.531 250.179L406.151 242.439Z" fill="#08803A"/>
<path d="M410.722 277.289L410.702 283.259L401.492 277.939L401.502 271.969L410.722 277.289Z" fill="#08803A"/>
<path d="M410.722 285.65L410.702 288.63L401.492 283.31L401.502 280.33L410.722 285.65Z" fill="#08803A"/>
<path d="M410.722 290.629L410.702 292.429L401.492 287.109L401.502 285.309L410.722 290.629Z" fill="#08803A"/>
<path d="M286.042 180.119L297.582 201.219L290.612 197.199L290.562 212.789L281.352 207.469L281.392 191.879L274.422 187.849L286.042 180.119Z" fill="#08803A"/>
<path d="M290.623 214.968L290.603 220.928L281.383 215.608L281.403 209.648L290.623 214.968Z" fill="#08803A"/>
<path d="M290.623 223.33L290.603 226.31L281.383 220.99L281.403 218.01L290.623 223.33Z" fill="#08803A"/>
<path d="M290.623 228.308L290.603 230.108L281.383 224.788L281.403 222.988L290.623 228.308Z" fill="#08803A"/>
<path opacity="0.7" d="M495.928 117.601C495.928 110.441 492.182 103.966 486.136 99.315C486.336 98.3693 486.439 97.4054 486.442 96.4387C486.442 86.8918 476.736 79.1319 464.655 78.9115C460.983 69.6706 450.066 63 437.116 63C426.81 63 417.765 67.2594 412.637 73.6607C411.343 73.4837 410.039 73.3937 408.732 73.3915C396.419 73.3915 386.432 81.2493 386.432 90.9431C386.431 92.5846 386.721 94.2132 387.289 95.7533C379.443 99.878 374.266 106.904 374.266 114.884C374.266 122.57 379.064 129.363 386.432 133.537V133.782C386.432 143.194 395.832 150.917 407.655 151.309C414.167 157.674 424.154 161.749 435.354 161.749C442.707 161.813 449.949 159.948 456.357 156.34C457.365 156.453 458.378 156.51 459.392 156.511C471.705 156.511 481.693 148.653 481.693 138.959V138.788C490.31 134.137 495.928 126.389 495.928 117.601Z" fill="#08803A"/>
<path opacity="0.7" d="M373.298 169.143C373.298 170.746 371.438 172.044 369.149 172.044C366.86 172.044 365 170.746 365 169.143C365 167.54 366.86 166.242 369.149 166.242C371.438 166.242 373.298 167.54 373.298 169.143Z" fill="#08803A"/>
<path opacity="0.7" d="M402.044 162.215C402.044 166.854 396.646 170.611 389.988 170.611C383.33 170.611 377.969 166.878 377.969 162.215C377.969 157.551 383.366 153.818 390.025 153.818C396.683 153.818 402.044 157.613 402.044 162.215Z" fill="#08803A"/>
<path d="M433.931 115.465C436.469 110.884 441.347 108.181 444.181 104.127C447.181 99.8754 445.5 91.9321 436.996 91.9321C431.426 91.9321 428.69 96.1509 427.537 99.6446L419 96.052C421.34 89.0316 427.701 83 436.963 83C444.709 83 450.015 86.5267 452.718 90.9433C455.025 94.7337 456.376 101.82 452.817 107.094C448.861 112.927 445.071 114.707 443.028 118.465C442.204 119.981 441.874 120.97 441.874 125.848H432.349C432.316 123.277 431.92 119.091 433.931 115.465ZM443.588 139.031C443.588 142.657 440.622 145.623 436.996 145.623C433.37 145.623 430.404 142.657 430.404 139.031C430.404 135.406 433.37 132.44 436.996 132.44C440.622 132.44 443.588 135.406 443.588 139.031Z" fill="white"/>
</svg>
