<svg width="500" height="500" viewBox="0 0 500 500" fill="none" xmlns="http://www.w3.org/2000/svg">
<path d="M292.004 117L303.384 68.59C303.384 66.45 304.884 63.44 306.764 62.59C307.701 62.1521 308.76 62.0497 309.764 62.3L336.874 69.2C337.705 69.3916 338.461 69.8238 339.048 70.4427C339.635 71.0617 340.026 71.8398 340.174 72.68L341.644 80L377.104 89C381.924 89.8 383.924 94.26 382.704 97.6L371.894 138.44C370.174 143.15 365.014 145.72 360.894 144.67L298.214 128.73C293.924 127.65 291.244 122.93 292.004 117Z" fill="#E0E0E0"/>
<path d="M291.25 116.001L301.25 75.5011C302.43 72.4011 305.14 70.5711 307.63 71.2111L378.67 89.3011C381.67 90.0711 383.14 94.0711 381.8 97.8611L372.8 135.381C370.43 144.711 364.8 146.231 360.51 145.151L298.24 129.301C291.84 127.671 288.88 124.001 291.25 116.001Z" fill="#EBEBEB"/>
<path d="M338.523 120.221C337.37 120.219 336.224 120.044 335.123 119.701C332.929 119.027 330.983 117.717 329.533 115.938C328.082 114.158 327.192 111.988 326.974 109.703C326.757 107.417 327.221 105.119 328.31 103.097C329.398 101.076 331.062 99.4229 333.09 98.3468C335.118 97.2706 337.419 96.8198 339.703 97.0514C341.987 97.283 344.151 98.1866 345.922 99.648C347.693 101.109 348.99 103.063 349.651 105.261C350.311 107.46 350.305 109.805 349.633 112.001C348.903 114.378 347.43 116.459 345.43 117.938C343.431 119.417 341.01 120.217 338.523 120.221ZM338.523 97.9806C336.557 97.9798 334.629 98.5249 332.954 99.5553C331.279 100.586 329.923 102.061 329.038 103.816C328.152 105.572 327.771 107.539 327.937 109.498C328.103 111.458 328.81 113.332 329.979 114.914C331.148 116.495 332.733 117.721 334.558 118.454C336.382 119.188 338.374 119.4 340.312 119.068C342.251 118.736 344.059 117.872 345.535 116.573C347.011 115.274 348.098 113.591 348.673 111.711C349.156 110.125 349.26 108.449 348.978 106.816C348.697 105.182 348.037 103.638 347.051 102.306C346.066 100.973 344.782 99.8898 343.303 99.1423C341.824 98.3948 340.191 98.0038 338.533 98.0006L338.523 97.9806Z" fill="#E0E0E0"/>
<path d="M335.908 107.79L337.378 103.01L340.788 106.67L344.198 110.34L339.318 111.46L334.438 112.58L335.908 107.79Z" fill="#E0E0E0"/>
<path d="M125.761 369.659L72.3014 398.549C70.5284 399.508 68.4472 399.723 66.5156 399.148C64.5839 398.572 62.9601 397.252 62.0014 395.479L22.0014 321.479C21.0422 319.705 20.8268 317.622 21.4024 315.689C21.9781 313.756 23.2977 312.13 25.0714 311.169L59.0014 292.859L99.8614 305.719L128.861 359.349C129.335 360.23 129.631 361.195 129.731 362.19C129.832 363.184 129.736 364.189 129.448 365.147C129.16 366.104 128.686 366.996 128.054 367.77C127.421 368.544 126.642 369.186 125.761 369.659Z" fill="#EBEBEB"/>
<path d="M93.0978 341.351C93.0978 341.351 93.5378 341.091 94.2578 340.481C95.2909 339.551 96.0339 338.343 96.3978 337.001C96.8068 335.492 96.6941 333.889 96.0778 332.451C95.8378 331.921 95.5278 331.381 95.2178 330.811L90.9978 323.161L88.5578 318.691L87.2678 316.311C86.8655 315.489 86.3724 314.714 85.7978 314.001C84.5341 312.546 82.7723 311.615 80.8578 311.391C79.8538 311.26 78.8337 311.331 77.8578 311.601C76.8681 311.909 75.9207 312.339 75.0378 312.881L50.5378 326.191C49.5618 326.849 48.7551 327.728 48.1833 328.757C47.6116 329.786 47.291 330.935 47.2478 332.111C47.1897 333.264 47.4128 334.414 47.8978 335.461C48.3878 336.461 48.9978 337.531 49.5378 338.561L55.9978 350.411C56.5078 351.331 56.9978 352.341 57.5278 353.161C58.097 353.967 58.8253 354.648 59.6678 355.161C60.483 355.65 61.3882 355.971 62.3296 356.103C63.271 356.235 64.2294 356.177 65.1478 355.931C66.0218 355.652 66.8607 355.273 67.6478 354.801L69.9978 353.541L74.4878 351.131L88.0578 343.921L91.7878 342.001L92.7878 341.511C92.8954 341.452 93.0095 341.405 93.1278 341.371C93.0323 341.449 92.9283 341.516 92.8178 341.571L91.8778 342.121C90.9978 342.601 89.7778 343.291 88.2278 344.121L74.7578 351.511L70.2578 354.001L67.8778 355.301C67.0575 355.799 66.1815 356.198 65.2678 356.491C63.7527 356.905 62.1466 356.839 60.6707 356.302C59.1949 355.764 57.9221 354.782 57.0278 353.491C56.4178 352.561 56.0278 351.641 55.4578 350.691L48.9978 338.861C48.4478 337.861 47.8678 336.861 47.3278 335.721C46.8032 334.586 46.5596 333.341 46.6178 332.091C46.6649 330.814 47.0128 329.566 47.6331 328.449C48.2534 327.332 49.1287 326.376 50.1878 325.661C58.9178 320.851 67.1878 316.451 74.7678 312.361C75.7063 311.793 76.7148 311.349 77.7678 311.041C78.8003 310.763 79.8776 310.692 80.9378 310.831C82.9846 311.081 84.8641 312.087 86.2078 313.651C86.8083 314.397 87.3216 315.209 87.7378 316.071C88.1678 316.881 88.5978 317.671 89.0178 318.451C89.8445 320.011 90.6445 321.508 91.4178 322.941C92.9478 325.801 94.3278 328.391 95.5378 330.671C95.8478 331.241 96.1378 331.781 96.3978 332.351C96.6192 332.897 96.7736 333.468 96.8578 334.051C97.0368 335.264 96.8998 336.502 96.4601 337.646C96.0204 338.79 95.2928 339.801 94.3478 340.581C93.9681 340.894 93.5476 341.153 93.0978 341.351Z" fill="#FAFAFA"/>
<path d="M97.2097 334.6C96.9979 334.568 96.7923 334.504 96.5997 334.41L94.9197 333.75C93.3897 333.1 91.3097 332.24 88.7897 331.19L84.5797 329.39L82.2297 328.39L80.9997 327.87C80.6212 327.722 80.2076 327.687 79.8097 327.77C79.4011 327.858 79.0268 328.062 78.7321 328.359C78.4375 328.655 78.2352 329.031 78.1497 329.44C77.9897 330.39 77.8297 331.36 77.6597 332.35C77.3197 334.35 76.9797 336.35 76.6597 338.51C76.4997 339.46 76.3397 340.39 76.1897 341.27L76.1297 341.62L75.7897 341.52L70.2197 340L68.8997 339.62C68.5101 339.473 68.096 339.402 67.6797 339.41C67.2937 339.428 66.9187 339.544 66.5898 339.747C66.261 339.95 65.9891 340.233 65.7997 340.57C65.6234 340.926 65.4924 341.302 65.4097 341.69L65.0797 342.86C64.8597 343.63 64.6497 344.37 64.4397 345.09C64.0397 346.53 63.6497 347.86 63.2997 349.09L61.6197 354.83C61.4297 355.44 61.2697 355.95 61.1297 356.37C61.0871 356.555 61.0199 356.733 60.9297 356.9C60.9319 356.71 60.9623 356.521 61.0197 356.34C61.1197 355.91 61.2397 355.39 61.3897 354.76C61.7697 353.31 62.2697 351.36 62.8897 348.97C63.2097 347.74 63.5697 346.4 63.9497 344.97C64.1497 344.237 64.3497 343.487 64.5497 342.72C64.6597 342.34 64.7597 341.94 64.8697 341.55C64.9571 341.116 65.1017 340.696 65.2997 340.3C65.534 339.877 65.8712 339.519 66.2802 339.26C66.6891 339.002 67.1567 338.85 67.6397 338.82C68.1233 338.806 68.6052 338.884 69.0597 339.05L70.3897 339.42L75.9397 340.96L75.5297 341.21C75.6797 340.33 75.8397 339.4 75.9997 338.45L76.9997 332.3C77.173 331.3 77.343 330.32 77.5097 329.36C77.621 328.835 77.8841 328.354 78.2663 327.977C78.6485 327.6 79.1331 327.344 79.6597 327.24C80.166 327.14 80.6903 327.189 81.1697 327.38L82.3997 327.92L84.7397 328.92L88.9997 330.77L94.9997 333.52L96.6297 334.29C96.8324 334.375 97.0266 334.479 97.2097 334.6Z" fill="#FAFAFA"/>
<path d="M68.5523 331.44C68.5523 331.39 68.8323 331.21 69.2623 330.78C69.8567 330.166 70.2387 329.377 70.3523 328.53C70.4325 327.919 70.3603 327.299 70.1422 326.723C69.9241 326.147 69.5668 325.634 69.1023 325.23C68.5378 324.757 67.8439 324.464 67.111 324.391C66.3781 324.317 65.6401 324.466 64.9928 324.818C64.3456 325.17 63.8192 325.708 63.482 326.363C63.1449 327.018 63.0125 327.759 63.1023 328.49C63.188 329.102 63.4237 329.683 63.7883 330.182C64.153 330.681 64.6352 331.082 65.1923 331.35C65.9606 331.717 66.8259 331.829 67.6623 331.67C67.9713 331.576 68.2851 331.5 68.6023 331.44C68.3555 331.671 68.0519 331.833 67.7223 331.91C66.8271 332.188 65.8615 332.135 65.0023 331.76C64.3532 331.484 63.785 331.047 63.3512 330.49C62.9174 329.934 62.6321 329.277 62.5223 328.58C62.395 327.72 62.535 326.842 62.9234 326.064C63.3118 325.287 63.9298 324.647 64.6937 324.232C65.4576 323.818 66.3305 323.648 67.1942 323.746C68.0579 323.844 68.8706 324.205 69.5223 324.78C70.0463 325.254 70.4414 325.853 70.6706 326.521C70.8997 327.189 70.9554 327.904 70.8323 328.6C70.6674 329.541 70.1708 330.393 69.4323 331C69.1802 331.218 68.8777 331.369 68.5523 331.44Z" fill="#FAFAFA"/>
<path d="M51.2734 375.662L118.133 339.526L129.435 360.438C130.237 361.921 130.417 363.663 129.934 365.28C129.452 366.896 128.348 368.255 126.864 369.057L71.1945 399.144C69.7106 399.946 67.9688 400.126 66.3524 399.644C64.736 399.162 63.3774 398.057 62.5754 396.573L51.2734 375.662Z" fill="#E0E0E0"/>
<path d="M59 292.859L70.26 313.679C70.7003 314.497 71.2976 315.22 72.0177 315.806C72.7379 316.393 73.5666 316.832 74.4565 317.097C75.3465 317.363 76.2801 317.45 77.2038 317.355C78.1276 317.259 79.0235 316.982 79.84 316.539L99.84 305.719L59 292.859Z" fill="#EBEBEB"/>
<path d="M71.5 315.361C71.5 315.361 73.97 320.561 80.61 319.111C80.86 319.051 81.11 318.981 81.35 318.901C84.22 317.961 103.08 311.711 102.87 311.321L99.87 305.721L79.87 316.551C79.87 316.551 74.73 319.081 71.5 315.361Z" fill="#E0E0E0"/>
<path d="M85.3698 373.13L87.5698 371.94L89.8498 376.16C89.0909 377.692 87.8702 378.948 86.3598 379.75C83.0898 381.52 79.4698 380.58 77.7798 377.44C76.0898 374.3 77.2798 370.77 80.5898 368.98C81.3817 368.503 82.2684 368.206 83.1876 368.109C84.1068 368.012 85.0361 368.118 85.9098 368.42L85.1398 370.68C84.5988 370.485 84.0222 370.409 83.4493 370.457C82.8763 370.506 82.3206 370.677 81.8198 370.96C81.3818 371.193 80.9942 371.511 80.6791 371.895C80.3639 372.278 80.1274 372.72 79.983 373.195C79.8386 373.67 79.7891 374.169 79.8375 374.663C79.8859 375.157 80.0311 375.637 80.2648 376.075C80.4986 376.513 80.8163 376.9 81.1998 377.215C81.5834 377.53 82.0253 377.767 82.5003 377.911C82.9752 378.056 83.474 378.105 83.9681 378.057C84.4621 378.009 84.9418 377.863 85.3798 377.63C86.0384 377.293 86.5971 376.79 86.9998 376.17L85.3698 373.13Z" fill="#FAFAFA"/>
<path d="M87.0703 365.71L89.4703 364.41L95.0903 374.8L92.6903 376.1L87.0703 365.71Z" fill="#FAFAFA"/>
<path d="M95.3838 363.71L96.8738 366.45L101.684 363.85L102.684 365.78L97.8738 368.39L99.8738 372.17L97.4638 373.47L91.8438 363.08L99.7038 358.83L100.704 360.76L95.3838 363.71Z" fill="#FAFAFA"/>
<path d="M382.788 421.649L344.998 403.389C343.748 402.783 342.789 401.706 342.332 400.394C341.874 399.082 341.956 397.642 342.558 396.389L367.818 344.109C368.425 342.859 369.502 341.9 370.814 341.443C372.126 340.986 373.566 341.067 374.818 341.669L398.818 353.239L408.128 381.309L389.798 419.199C389.499 419.821 389.08 420.377 388.566 420.836C388.051 421.296 387.452 421.649 386.801 421.877C386.15 422.104 385.46 422.201 384.772 422.162C384.083 422.123 383.409 421.949 382.788 421.649Z" fill="#EBEBEB"/>
<path d="M385.444 391.921C385.444 391.921 385.764 392.061 386.394 392.221C387.326 392.426 388.298 392.36 389.194 392.031C389.834 391.787 390.414 391.409 390.894 390.921C391.168 390.646 391.41 390.34 391.614 390.011C391.814 389.661 391.994 389.271 392.184 388.861C392.944 387.251 393.824 385.421 394.784 383.411C395.264 382.411 395.784 381.341 396.294 380.231L397.104 378.551C397.406 377.99 397.64 377.396 397.804 376.781C398.103 375.489 397.914 374.132 397.274 372.971C396.957 372.369 396.526 371.836 396.004 371.401C395.43 370.972 394.805 370.616 394.144 370.341L376.754 362.001C375.99 361.722 375.171 361.627 374.364 361.723C373.556 361.818 372.782 362.102 372.104 362.551C371.438 362.987 370.886 363.577 370.494 364.271C370.124 364.961 369.784 365.721 369.424 366.441C368.014 369.341 366.664 372.141 365.374 374.801C365.064 375.471 364.694 376.131 364.444 376.801C364.222 377.443 364.134 378.123 364.184 378.801C364.24 379.455 364.427 380.092 364.735 380.673C365.042 381.254 365.464 381.766 365.974 382.181C366.48 382.559 367.031 382.875 367.614 383.121L369.294 383.941L372.454 385.481L381.974 390.161L384.554 391.451L385.224 391.801L385.444 391.931C385.359 391.915 385.278 391.884 385.204 391.841L384.514 391.531L381.904 390.321L372.314 385.761L369.144 384.251L367.454 383.441C366.845 383.179 366.27 382.843 365.744 382.441C365.19 382 364.732 381.45 364.399 380.826C364.065 380.202 363.863 379.516 363.804 378.811C363.734 378.07 363.826 377.322 364.074 376.621C364.344 375.911 364.694 375.301 365.004 374.621C366.284 371.951 367.634 369.151 369.004 366.251C369.364 365.521 369.684 364.801 370.084 364.051C370.509 363.296 371.109 362.655 371.834 362.181C372.563 361.698 373.395 361.392 374.263 361.288C375.131 361.184 376.011 361.284 376.834 361.581C383.054 364.531 388.834 367.391 394.214 369.971C394.901 370.264 395.549 370.64 396.144 371.091C396.986 371.769 397.621 372.671 397.975 373.693C398.328 374.715 398.387 375.817 398.144 376.871C397.967 377.506 397.719 378.12 397.404 378.701L396.584 380.381C396.054 381.481 395.534 382.531 395.044 383.541L392.404 389.001C392.204 389.401 392.024 389.791 391.804 390.161C391.592 390.505 391.336 390.821 391.044 391.101C390.537 391.601 389.926 391.983 389.254 392.221C388.327 392.542 387.325 392.584 386.374 392.341C386.045 392.246 385.732 392.104 385.444 391.921Z" fill="#FAFAFA"/>
<path d="M390.869 391.501C390.81 391.366 390.766 391.225 390.739 391.081C390.649 390.761 390.549 390.361 390.429 389.871C390.169 388.751 389.819 387.241 389.429 385.411C389.209 384.411 388.979 383.411 388.729 382.321C388.599 381.761 388.469 381.191 388.339 380.601C388.269 380.311 388.209 380.011 388.139 379.711C388.086 379.505 387.99 379.314 387.857 379.149C387.724 378.984 387.557 378.849 387.367 378.754C387.178 378.66 386.97 378.607 386.758 378.599C386.546 378.592 386.335 378.63 386.139 378.711L384.309 379.611L380.439 381.521L378.709 382.371L378.489 382.481L378.409 382.251L376.999 378.561L376.679 377.661C376.603 377.384 376.477 377.123 376.309 376.891C376.138 376.685 375.919 376.524 375.672 376.423C375.424 376.322 375.155 376.284 374.889 376.311C374.62 376.354 374.358 376.432 374.109 376.541L373.319 376.831L371.819 377.381L369.119 378.381L365.219 379.761L364.169 380.111C364.047 380.159 363.919 380.193 363.789 380.211C363.789 380.211 363.899 380.131 364.139 380.031L365.139 379.611L368.979 378.101L371.659 377.101L373.159 376.531L373.949 376.231C374.227 376.105 374.519 376.015 374.819 375.961C375.152 375.922 375.49 375.967 375.801 376.093C376.112 376.219 376.387 376.421 376.599 376.681C376.797 376.949 376.946 377.251 377.039 377.571L377.369 378.461C377.819 379.661 378.279 380.911 378.749 382.191L378.449 382.061L380.179 381.211L384.049 379.311L385.899 378.411C386.237 378.261 386.612 378.214 386.977 378.277C387.342 378.339 387.68 378.507 387.949 378.761C388.214 378.999 388.399 379.314 388.479 379.661C388.549 379.961 388.619 380.271 388.679 380.571C388.809 381.161 388.929 381.731 389.049 382.291C389.279 383.401 389.489 384.441 389.689 385.391C390.069 387.241 390.369 388.761 390.599 389.891L390.819 391.111C390.855 391.238 390.872 391.369 390.869 391.501Z" fill="#FAFAFA"/>
<path d="M381.068 374.181C381.068 374.181 381.308 374.241 381.718 374.301C382.302 374.394 382.899 374.292 383.418 374.011C383.788 373.811 384.103 373.525 384.338 373.177C384.573 372.828 384.721 372.429 384.768 372.011C384.812 371.644 384.775 371.271 384.659 370.92C384.544 370.568 384.353 370.246 384.101 369.976C383.848 369.706 383.539 369.495 383.196 369.356C382.853 369.218 382.484 369.156 382.114 369.175C381.745 369.195 381.384 369.294 381.057 369.467C380.73 369.641 380.445 369.883 380.222 370.178C379.998 370.473 379.842 370.813 379.764 371.174C379.685 371.536 379.687 371.91 379.768 372.271C379.871 372.85 380.159 373.38 380.588 373.781C380.898 374.071 381.118 374.181 381.098 374.221C381.078 374.261 380.848 374.221 380.478 373.911C379.966 373.522 379.61 372.961 379.478 372.331C379.37 371.857 379.384 371.362 379.521 370.895C379.657 370.427 379.911 370.002 380.258 369.661C380.684 369.218 381.239 368.921 381.844 368.812C382.449 368.703 383.072 368.787 383.626 369.053C384.18 369.319 384.636 369.753 384.929 370.293C385.222 370.833 385.337 371.452 385.258 372.061C385.204 372.545 385.027 373.007 384.746 373.404C384.464 373.8 384.087 374.12 383.648 374.331C383.066 374.611 382.403 374.675 381.778 374.511C381.515 374.471 381.269 374.356 381.068 374.181Z" fill="#FAFAFA"/>
<path d="M349.312 382.383L396.538 405.202L390.251 418.213C389.517 419.732 388.21 420.897 386.618 421.452C385.025 422.007 383.277 421.906 381.758 421.173L345.985 403.887C344.466 403.153 343.301 401.846 342.746 400.253C342.191 398.66 342.292 396.912 343.026 395.394L349.312 382.383Z" fill="#E0E0E0"/>
<path d="M398.805 353.23L391.695 368C391.134 369.166 391.057 370.507 391.483 371.729C391.908 372.952 392.801 373.955 393.965 374.52L408.115 381.35L398.805 353.23Z" fill="#EBEBEB"/>
<path d="M391.264 369.33C390.735 370.449 390.604 371.714 390.891 372.918C391.178 374.121 391.867 375.191 392.844 375.95L393.264 376.28C394.954 377.5 406.064 385.54 406.204 385.28L408.114 381.28L394.004 374.47C394.004 374.47 390.484 372.64 391.264 369.33Z" fill="#E0E0E0"/>
<path d="M364.521 400.439L366.081 401.189L364.641 404.189C363.474 404.383 362.275 404.209 361.211 403.689C360.673 403.471 360.186 403.145 359.78 402.73C359.373 402.316 359.057 401.822 358.849 401.28C358.642 400.738 358.549 400.159 358.575 399.579C358.601 398.999 358.746 398.431 359.001 397.909C359.256 397.388 359.616 396.925 360.058 396.549C360.5 396.172 361.014 395.891 361.57 395.722C362.125 395.553 362.709 395.5 363.286 395.567C363.862 395.634 364.419 395.818 364.921 396.109C365.508 396.36 366.032 396.736 366.457 397.211C366.882 397.686 367.197 398.249 367.381 398.859L365.801 399.339C365.693 398.956 365.503 398.601 365.244 398.299C364.985 397.997 364.664 397.755 364.301 397.589C363.993 397.432 363.656 397.337 363.31 397.312C362.964 397.286 362.617 397.329 362.289 397.439C361.96 397.549 361.656 397.723 361.396 397.951C361.135 398.18 360.922 398.458 360.77 398.769C360.618 399.081 360.53 399.419 360.51 399.765C360.49 400.111 360.539 400.458 360.655 400.784C360.771 401.111 360.95 401.412 361.183 401.668C361.416 401.925 361.697 402.133 362.011 402.279C362.464 402.515 362.971 402.629 363.481 402.609L364.521 400.439Z" fill="#FAFAFA"/>
<path d="M369.362 398.391L371.062 399.211L367.513 406.561L365.812 405.731L369.362 398.391Z" fill="#FAFAFA"/>
<path d="M373.84 402.241L372.91 404.181L376.31 405.821L375.65 407.181L372.25 405.541L370.95 408.221L369.25 407.401L372.8 400.051L378.35 402.731L377.7 404.101L373.84 402.241Z" fill="#FAFAFA"/>
<path d="M119.414 108.31L35.5781 127.572L50.9778 194.596L134.813 175.333L119.414 108.31Z" fill="#FAFAFA"/>
<path d="M119.411 108.31L119.001 108.42L117.831 108.7L113.281 109.77L96.1312 113.77L35.6213 127.77L35.7913 127.5C40.3813 147.5 45.6413 170.32 51.2113 194.5L50.9113 194.31L134.761 175.09L134.601 175.34L123.541 126.71C122.221 120.85 121.181 116.25 120.471 113.11C120.121 111.54 119.851 110.34 119.671 109.52C119.491 108.7 119.411 108.27 119.411 108.27C119.411 108.27 119.511 108.67 119.701 109.47C119.891 110.27 120.181 111.47 120.541 113.01C121.271 116.14 122.341 120.71 123.711 126.53L135.001 175.29V175.49H134.801L51.0013 194.84L50.7513 194.9L50.7013 194.65C45.1513 170.45 39.9113 147.58 35.3313 127.65L35.2812 127.43L35.5013 127.38L96.2012 113.55L113.331 109.68L117.851 108.68L119.001 108.43L119.411 108.31Z" fill="#E0E0E0"/>
<path d="M117.379 113.219L39.4297 131.129L52.8902 189.712L130.839 171.802L117.379 113.219Z" fill="#EBEBEB"/>
<path d="M52.8906 189.711L71.7506 147.041L93.8506 165.951L102.491 151.141L130.841 171.811L52.8906 189.711Z" fill="#E0E0E0"/>
<path d="M94.7526 137.06C95.0316 138.274 94.9441 139.544 94.5013 140.709C94.0585 141.873 93.2803 142.881 92.265 143.603C91.2498 144.325 90.0431 144.731 88.7976 144.767C87.5521 144.804 86.3237 144.47 85.2678 143.809C84.2119 143.147 83.3758 142.187 82.8654 141.051C82.3549 139.914 82.193 138.652 82.4001 137.423C82.6072 136.194 83.1741 135.054 84.0289 134.148C84.8837 133.241 85.9882 132.609 87.2026 132.33C88.8311 131.956 90.5413 132.244 91.9572 133.131C93.3731 134.018 94.3786 135.431 94.7526 137.06Z" fill="#E0E0E0"/>
<path d="M208.282 49.2547L78.4141 54.6523L82.7295 158.483L212.597 153.085L208.282 49.2547Z" fill="#FAFAFA"/>
<path d="M208.284 49.2402C208.284 49.2402 208.064 49.2402 207.654 49.2402L205.834 49.3302L198.784 49.6702L172.194 50.8602L78.4338 55.0002L78.7538 54.6502C80.0538 85.5502 81.5338 120.98 83.1138 158.47L82.7238 158.11L212.594 152.77L212.294 153.09C211.064 121.83 210.034 95.9102 209.294 77.7802C208.954 68.7202 208.684 61.6102 208.494 56.7802C208.414 54.3602 208.344 52.5002 208.304 51.2202C208.264 49.9402 208.254 49.2902 208.254 49.2902C208.254 49.2902 208.304 49.9102 208.364 51.1502C208.424 52.3902 208.514 54.2502 208.634 56.6402C208.854 61.5002 209.174 68.5802 209.634 77.6402C210.434 95.8102 211.564 121.79 212.934 153.14V153.45H212.614L82.7538 158.85H82.3738V158.48C80.8238 120.99 79.3737 85.5602 78.0938 54.6602V54.3202H78.4338L172.434 50.5802L198.944 49.5802L205.944 49.3302H207.734L208.284 49.2402Z" fill="#E0E0E0"/>
<path d="M203.91 55.9815L83.1641 61L86.936 151.752L207.682 146.733L203.91 55.9815Z" fill="#EBEBEB"/>
<path d="M86.9375 151.75L126.757 93.5801L154.357 127.79L171.287 108.19L207.677 146.73L86.9375 151.75Z" fill="#E0E0E0"/>
<path d="M163.692 85.1303C163.767 87.009 163.284 88.8679 162.304 90.4721C161.323 92.0763 159.889 93.3538 158.182 94.1432C156.476 94.9326 154.574 95.1984 152.716 94.9071C150.859 94.6158 149.129 93.7803 147.746 92.5064C146.363 91.2325 145.389 89.5772 144.947 87.7498C144.504 85.9224 144.613 84.0048 145.26 82.2395C145.907 80.4741 147.063 78.9401 148.582 77.8313C150.1 76.7226 151.913 76.0889 153.792 76.0103C155.041 75.958 156.288 76.1525 157.462 76.5827C158.636 77.0129 159.714 77.6704 160.633 78.5175C161.553 79.3645 162.296 80.3846 162.821 81.5193C163.346 82.654 163.642 83.8811 163.692 85.1303Z" fill="#E0E0E0"/>
<path d="M177.443 221.569L157.053 163.999C155.683 161.759 155.193 157.689 156.573 155.549C157.241 154.477 158.258 153.669 159.453 153.259L192.053 142.389C193.042 142.043 194.11 141.992 195.127 142.242C196.145 142.493 197.067 143.034 197.783 143.799L204.143 150.409L246.823 136.219C252.333 133.849 257.363 137.129 258.323 141.389L274.273 190.779C275.623 196.779 271.993 202.879 267.043 204.529L191.663 229.669C186.483 231.359 180.593 228.259 177.443 221.569Z" fill="#FE6100"/>
<g opacity="0.3">
<path d="M177.443 221.569L157.053 163.999C155.683 161.759 155.193 157.689 156.573 155.549C157.241 154.477 158.258 153.669 159.453 153.259L192.053 142.389C193.042 142.043 194.11 141.992 195.127 142.242C196.145 142.493 197.067 143.034 197.783 143.799L204.143 150.409L246.823 136.219C252.333 133.849 257.363 137.129 258.323 141.389L274.273 190.779C275.623 196.779 271.993 202.879 267.043 204.529L191.663 229.669C186.483 231.359 180.593 228.259 177.443 221.569Z" fill="black"/>
</g>
<path d="M176.301 220.999L159.711 172.519C158.861 168.519 160.461 164.839 163.451 163.839L248.941 135.329C252.561 134.129 256.731 137.329 257.861 142.099L273.491 186.849C277.231 198.069 272.381 203.409 267.271 205.119L192.361 230.119C184.661 232.669 179.141 230.779 176.301 220.999Z" fill="#FE6100"/>
<path d="M238.32 192.999C238.32 192.999 238.72 192.849 239.41 192.449C240.405 191.834 241.2 190.945 241.7 189.889C242.253 188.688 242.394 187.338 242.1 186.049C241.97 185.579 241.8 185.049 241.62 184.559L239.24 177.559L237.86 173.479C237.62 172.779 237.38 172.049 237.13 171.309C236.915 170.564 236.617 169.846 236.24 169.169C235.601 168.109 234.678 167.25 233.574 166.69C232.471 166.129 231.233 165.89 230 165.999C229.13 166.112 228.276 166.334 227.46 166.659L205.12 174.159C204.212 174.566 203.413 175.181 202.786 175.954C202.159 176.727 201.722 177.636 201.51 178.609C201.3 179.56 201.321 180.547 201.57 181.489C201.83 182.419 202.18 183.379 202.48 184.309C203.734 188.062 204.93 191.665 206.07 195.119C206.37 195.959 206.61 196.859 206.94 197.629C207.454 198.744 208.301 199.673 209.365 200.288C210.429 200.902 211.657 201.171 212.88 201.059C213.65 200.957 214.405 200.766 215.13 200.489L217.31 199.769L221.4 198.429L233.75 194.429L237.12 193.359L238 193.089L238.3 193.019L238.01 193.149L237.15 193.459L233.82 194.629L221.52 198.819L217.44 200.199L215.27 200.929C214.517 201.224 213.732 201.429 212.93 201.539C211.609 201.668 210.281 201.383 209.129 200.724C207.977 200.064 207.058 199.063 206.5 197.859C206.12 196.999 205.9 196.169 205.59 195.299L202 184.519C201.69 183.519 201.35 182.669 201.07 181.659C200.801 180.638 200.78 179.568 201.01 178.539C201.234 177.482 201.706 176.493 202.385 175.654C203.065 174.814 203.934 174.148 204.92 173.709C212.92 170.979 220.43 168.519 227.33 166.219C228.183 165.888 229.073 165.663 229.98 165.549C231.296 165.433 232.618 165.691 233.793 166.295C234.968 166.898 235.948 167.822 236.62 168.959C237.013 169.667 237.322 170.419 237.54 171.199C237.79 171.939 238.03 172.659 238.26 173.369C238.73 174.789 239.18 176.159 239.6 177.459C240.46 180.059 241.23 182.459 241.91 184.459C242.08 184.979 242.25 185.459 242.37 185.979C242.475 186.465 242.522 186.961 242.51 187.459C242.489 188.49 242.201 189.499 241.675 190.387C241.15 191.275 240.404 192.013 239.51 192.529C239.138 192.74 238.737 192.898 238.32 192.999Z" fill="#FAFAFA"/>
<path d="M242.735 187.998C242.565 187.935 242.404 187.851 242.255 187.748L241.005 186.998L236.275 183.998L233.005 181.828L231.195 180.648L230.255 180.038C229.953 179.859 229.605 179.772 229.255 179.788C228.902 179.8 228.56 179.914 228.27 180.116C227.981 180.318 227.756 180.601 227.625 180.928L226.795 183.288L225.035 188.288C224.755 189.058 224.495 189.808 224.235 190.518L224.135 190.808L223.865 190.678L219.485 188.558L218.485 188.058C218.177 187.876 217.838 187.753 217.485 187.698C217.16 187.664 216.831 187.71 216.528 187.832C216.224 187.954 215.955 188.148 215.745 188.398C215.542 188.664 215.377 188.957 215.255 189.268L214.815 190.188L213.955 191.958L212.425 195.118L210.185 199.648L209.555 200.868C209.483 201.012 209.399 201.149 209.305 201.278C209.333 201.117 209.387 200.962 209.465 200.818C209.605 200.478 209.785 200.068 210.005 199.568C210.525 198.408 211.235 196.858 212.095 194.968C212.545 193.968 213.035 192.918 213.565 191.778C213.835 191.198 214.105 190.608 214.395 189.998C214.535 189.688 214.685 189.378 214.825 189.058C214.964 188.705 215.145 188.369 215.365 188.058C215.623 187.74 215.956 187.491 216.336 187.336C216.715 187.18 217.127 187.122 217.535 187.168C217.941 187.225 218.331 187.361 218.685 187.568L219.685 188.058L224.085 190.158L223.705 190.308C223.965 189.598 224.225 188.848 224.495 188.078L226.275 183.078L227.125 180.708C227.292 180.286 227.581 179.923 227.955 179.665C228.329 179.407 228.771 179.266 229.225 179.258C229.662 179.249 230.093 179.367 230.465 179.598L231.465 180.218L233.255 181.428L236.465 183.588L241.105 186.758L242.345 187.648C242.488 187.749 242.619 187.866 242.735 187.998Z" fill="#FAFAFA"/>
<path d="M219.332 181.19C219.332 181.19 219.592 181.05 220.012 180.75C220.6 180.329 221.035 179.729 221.252 179.04C221.408 178.543 221.439 178.014 221.343 177.502C221.247 176.989 221.027 176.508 220.702 176.1C220.301 175.612 219.762 175.255 219.156 175.077C218.55 174.898 217.904 174.907 217.302 175.1C216.703 175.301 216.179 175.679 215.801 176.185C215.422 176.69 215.206 177.299 215.182 177.93C215.163 178.451 215.274 178.969 215.504 179.437C215.735 179.904 216.077 180.308 216.502 180.61C217.084 181.029 217.785 181.25 218.502 181.24C218.774 181.206 219.048 181.186 219.322 181.18C219.322 181.18 219.072 181.37 218.522 181.45C217.734 181.551 216.936 181.366 216.272 180.93C215.775 180.605 215.368 180.159 215.088 179.635C214.809 179.111 214.666 178.524 214.672 177.93C214.683 177.188 214.924 176.468 215.362 175.869C215.8 175.27 216.414 174.822 217.118 174.587C217.822 174.352 218.582 174.341 219.292 174.557C220.002 174.772 220.628 175.203 221.082 175.79C221.447 176.262 221.687 176.818 221.78 177.407C221.872 177.996 221.815 178.599 221.612 179.16C221.34 179.905 220.812 180.529 220.122 180.92C219.642 181.19 219.342 181.22 219.332 181.19Z" fill="#FAFAFA"/>
<path d="M101.431 429.461L64.0007 271.371C62.4307 264.751 64.5407 257.621 69.7107 253.511C72.255 251.438 75.4288 250.291 78.7107 250.261L182.311 247.001C185.035 246.946 187.716 247.686 190.025 249.132C192.334 250.578 194.171 252.666 195.311 255.141L205.631 276.561L337.101 276.691C346.761 276.691 356.901 290.091 355.751 301.341L367.001 433.001C365.371 448.881 351.351 460.831 337.721 460.831H130.001C115.761 460.871 103.711 448.441 101.431 429.461Z" fill="#FE6100"/>
<g opacity="0.3">
<path d="M101.431 429.461L64.0007 271.371C62.4307 264.751 64.5407 257.621 69.7107 253.511C72.255 251.438 75.4288 250.291 78.7107 250.261L182.311 247.001C185.035 246.946 187.716 247.686 190.025 249.132C192.334 250.578 194.171 252.666 195.311 255.141L205.631 276.561L337.101 276.691C346.761 276.691 356.901 290.091 355.751 301.341L367.001 433.001C365.371 448.881 351.351 460.831 337.721 460.831H130.001C115.761 460.871 103.711 448.441 101.431 429.461Z" fill="black"/>
</g>
<path d="M103.22 434.061L93.3203 258.921L338.52 255.211L347.12 430.741L103.22 434.061Z" fill="#E0E0E0"/>
<path d="M102.103 266.1C102.078 266.418 101.96 266.721 101.766 266.973C101.571 267.225 101.307 267.415 101.006 267.519C100.705 267.624 100.38 267.638 100.071 267.561C99.7616 267.484 99.4817 267.318 99.2651 267.085C99.0486 266.851 98.9048 266.559 98.8514 266.245C98.7979 265.931 98.8371 265.608 98.9642 265.316C99.0912 265.024 99.3006 264.775 99.5668 264.6C99.833 264.425 100.144 264.331 100.463 264.33C100.687 264.338 100.908 264.39 101.112 264.483C101.316 264.576 101.499 264.709 101.651 264.874C101.804 265.038 101.922 265.231 102 265.442C102.077 265.652 102.112 265.876 102.103 266.1Z" fill="#EBEBEB"/>
<path d="M108.462 266.1C108.437 266.418 108.32 266.721 108.125 266.973C107.93 267.225 107.666 267.415 107.365 267.519C107.064 267.624 106.739 267.638 106.43 267.561C106.121 267.484 105.841 267.318 105.625 267.085C105.408 266.851 105.264 266.559 105.211 266.245C105.157 265.931 105.196 265.608 105.324 265.316C105.451 265.024 105.66 264.775 105.926 264.6C106.192 264.425 106.504 264.331 106.822 264.33C107.047 264.338 107.267 264.39 107.471 264.483C107.675 264.576 107.858 264.709 108.011 264.874C108.163 265.038 108.282 265.231 108.359 265.442C108.437 265.652 108.472 265.876 108.462 266.1Z" fill="#EBEBEB"/>
<path d="M114.83 266.1C114.804 266.418 114.687 266.721 114.492 266.973C114.297 267.225 114.033 267.415 113.732 267.519C113.431 267.624 113.106 267.638 112.797 267.561C112.488 267.484 112.208 267.318 111.992 267.085C111.775 266.851 111.631 266.559 111.578 266.245C111.524 265.931 111.564 265.608 111.691 265.316C111.818 265.024 112.027 264.775 112.293 264.6C112.56 264.425 112.871 264.331 113.19 264.33C113.641 264.348 114.068 264.545 114.375 264.876C114.682 265.208 114.846 265.648 114.83 266.1Z" fill="#EBEBEB"/>
<path d="M189.987 266.102L204.777 354.002L88.4072 371.482L73.6172 283.582L189.987 266.102Z" fill="#EBEBEB"/>
<path d="M190 266.102L189.44 266.202L187.81 266.462L181.49 267.462L157.68 271.112L73.6803 283.872L73.9303 283.542C78.3503 309.702 83.4003 339.692 88.7603 371.432L88.3703 371.162L204.75 353.732L204.51 354.042C200.12 327.562 196.51 305.622 193.93 290.272C192.67 282.592 191.68 276.572 191 272.442C190.67 270.392 190.42 268.822 190.24 267.742C190.06 266.662 190 266.102 190 266.102C190 266.102 190.11 266.622 190.3 267.672C190.49 268.722 190.76 270.292 191.11 272.312C191.82 276.422 192.85 282.422 194.17 290.062C196.8 305.442 200.55 327.432 205.07 353.962L205.12 354.222H204.84L88.4603 371.802L88.1303 371.852L88.0703 371.532C82.7403 339.792 77.7103 309.802 73.3203 283.632V283.352H73.6203L157.87 270.852L181.64 267.352L187.91 266.452L189.51 266.222L190 266.102Z" fill="#263238"/>
<path d="M91.4925 365.342L199.693 349.092L186.762 272.262L78.5625 288.512L91.4925 365.342Z" fill="#455A64"/>
<g opacity="0.3">
<path d="M91.4922 365.34L121.252 311.91L149.682 338.27L162.872 319.91L199.692 349.09L91.4922 365.34Z" fill="black"/>
</g>
<g opacity="0.3">
<path d="M153.608 301.051C153.762 302.136 153.698 303.241 153.419 304.301C153.141 305.361 152.653 306.355 151.985 307.224C151.317 308.093 150.483 308.82 149.53 309.362C148.577 309.904 147.526 310.25 146.438 310.381C144.235 310.758 141.972 310.262 140.13 308.998C138.287 307.734 137.009 305.801 136.568 303.611C136.412 302.526 136.475 301.421 136.752 300.361C137.03 299.301 137.516 298.307 138.183 297.438C138.85 296.569 139.685 295.842 140.637 295.299C141.589 294.757 142.64 294.411 143.728 294.281C145.932 293.898 148.199 294.392 150.045 295.657C151.89 296.921 153.169 298.857 153.608 301.051Z" fill="black"/>
</g>
<path d="M110.294 442.372L106.984 271.962L357.764 271.432L356.734 439.832L110.294 442.372Z" fill="#EBEBEB"/>
<path d="M121.517 278.631C121.492 278.949 121.375 279.252 121.18 279.504C120.985 279.756 120.721 279.946 120.42 280.051C120.119 280.155 119.794 280.17 119.485 280.092C119.176 280.015 118.896 279.85 118.679 279.616C118.463 279.382 118.319 279.091 118.265 278.776C118.212 278.462 118.251 278.14 118.378 277.847C118.505 277.555 118.715 277.306 118.981 277.131C119.247 276.956 119.558 276.862 119.877 276.861C120.329 276.88 120.755 277.076 121.062 277.408C121.37 277.739 121.533 278.179 121.517 278.631Z" fill="#E0E0E0"/>
<path d="M127.392 278.631C127.367 278.949 127.249 279.253 127.054 279.505C126.859 279.758 126.594 279.947 126.292 280.052C125.991 280.156 125.665 280.17 125.356 280.092C125.047 280.014 124.767 279.847 124.551 279.612C124.335 279.378 124.192 279.085 124.139 278.77C124.087 278.456 124.128 278.132 124.256 277.84C124.385 277.549 124.596 277.3 124.863 277.126C125.131 276.953 125.443 276.86 125.762 276.861C125.985 276.87 126.205 276.923 126.407 277.017C126.61 277.111 126.793 277.244 126.944 277.408C127.095 277.573 127.213 277.765 127.29 277.975C127.367 278.185 127.401 278.408 127.392 278.631Z" fill="#E0E0E0"/>
<path d="M115.283 278.631C115.257 278.949 115.14 279.252 114.945 279.504C114.75 279.756 114.486 279.946 114.185 280.051C113.884 280.155 113.559 280.17 113.25 280.092C112.941 280.015 112.661 279.85 112.445 279.616C112.228 279.382 112.085 279.091 112.031 278.776C111.978 278.462 112.017 278.14 112.144 277.847C112.271 277.555 112.48 277.306 112.746 277.131C113.013 276.956 113.324 276.862 113.643 276.861C114.095 276.88 114.521 277.076 114.828 277.408C115.135 277.739 115.299 278.179 115.283 278.631Z" fill="#E0E0E0"/>
<path d="M116.117 446.531V284.501L365.867 283.971L352.457 450.011L116.117 446.531Z" fill="#FAFAFA"/>
<path d="M103.997 428.592L118.937 306.842C120.097 297.322 126.877 290.262 134.867 290.262H362.997C372.647 290.262 380.137 300.432 378.997 311.982L366.997 432.272C363.497 457.272 353.887 460.872 340.257 460.872H127.077C112.817 460.872 98.9973 457.292 103.997 428.592Z" fill="#FE6100"/>
<path d="M44.8203 460.869C44.8203 460.729 138.59 460.609 254.22 460.609C369.85 460.609 463.65 460.729 463.65 460.869C463.65 461.009 369.9 461.129 254.22 461.129C138.54 461.129 44.8203 460.999 44.8203 460.869Z" fill="#263238"/>
<path d="M412.43 425.58C412.56 426.58 414.91 453.2 414.91 453.2H427.12L429.26 425.69L412.43 425.58Z" fill="#EB996E"/>
<path d="M413.53 451.369V452.319C413.53 452.319 397.09 458.389 396.82 461.469L429.12 462.229L428.93 451.479C426.507 452.57 423.876 453.125 421.218 453.106C418.561 453.087 415.938 452.494 413.53 451.369Z" fill="#FE6100"/>
<g opacity="0.6">
<path d="M425.536 454.83C425.844 454.934 426.104 455.146 426.266 455.428C426.429 455.71 426.482 456.042 426.416 456.36C426.327 456.674 426.12 456.941 425.838 457.105C425.557 457.269 425.223 457.317 424.906 457.24C424.579 457.132 424.304 456.906 424.134 456.607C423.964 456.308 423.912 455.956 423.986 455.62C424.113 455.304 424.359 455.049 424.671 454.911C424.983 454.773 425.336 454.762 425.656 454.88" fill="white"/>
</g>
<g opacity="0.6">
<path d="M429.075 462.231L429.025 459.641L398.095 459.861C398.095 459.861 396.635 460.451 396.775 461.471L429.075 462.231Z" fill="white"/>
</g>
<path d="M413.376 452.41C413.376 452.57 414.166 452.66 414.926 453.19C415.686 453.72 416.086 454.38 416.236 454.32C416.386 454.26 416.166 453.32 415.236 452.73C414.306 452.14 413.346 452.27 413.376 452.41Z" fill="#263238"/>
<path d="M410 453.73C410 453.88 410.64 454.17 411.16 454.85C411.68 455.53 411.81 456.24 411.97 456.23C412.13 456.22 412.25 455.34 411.59 454.51C410.93 453.68 410 453.58 410 453.73Z" fill="#263238"/>
<path d="M407.939 457.74C408.079 457.74 408.319 457 407.939 456.12C407.559 455.24 406.819 454.89 406.749 455.02C406.679 455.15 407.129 455.62 407.429 456.34C407.729 457.06 407.779 457.72 407.939 457.74Z" fill="#263238"/>
<path d="M423.18 430.67C423.3 431.67 425.65 458.29 425.65 458.29H437.87L440.01 430.79L423.18 430.67Z" fill="#FFBE9D"/>
<path d="M437.899 454.32C437.899 454.32 429.319 460.41 425.169 455.14L424.079 457.69L419.209 475.88C419.041 476.45 419.087 477.062 419.339 477.6C419.592 478.138 420.033 478.565 420.579 478.8C420.995 478.969 421.451 479.015 421.893 478.932C422.334 478.848 422.743 478.639 423.069 478.33C426.599 474.97 439.519 462.56 439.389 460.88L439.339 456.41C439.334 455.958 439.195 455.518 438.938 455.145C438.682 454.773 438.32 454.486 437.899 454.32Z" fill="#FE6100"/>
<g opacity="0.6">
<path d="M421 478.93L439.4 459.32V460.32C439.425 460.721 439.359 461.122 439.209 461.494C439.058 461.866 438.826 462.2 438.53 462.47C437.04 464.47 432.92 468.97 423.15 478.35C422.87 478.618 422.528 478.812 422.155 478.917C421.782 479.021 421.389 479.033 421.01 478.95L421 478.93Z" fill="white"/>
</g>
<g opacity="0.6">
<path d="M436.699 456.42C436.414 456.626 436.215 456.929 436.141 457.273C436.067 457.617 436.123 457.975 436.299 458.28C436.496 458.572 436.798 458.776 437.142 458.853C437.486 458.929 437.846 458.871 438.149 458.69C438.457 458.47 438.67 458.141 438.746 457.77C438.822 457.399 438.755 457.014 438.559 456.69C438.32 456.399 437.977 456.214 437.603 456.173C437.23 456.132 436.855 456.238 436.559 456.47" fill="white"/>
</g>
<path d="M426.298 468.89C425.754 468.166 425.075 467.555 424.298 467.09C423.457 466.748 422.557 466.571 421.648 466.57C421.648 466.51 421.918 466.33 422.458 466.26C423.17 466.179 423.889 466.307 424.528 466.63C425.166 466.948 425.7 467.441 426.068 468.05C426.328 468.53 426.358 468.87 426.298 468.89Z" fill="#263238"/>
<path d="M424.646 472C423.998 471.631 423.331 471.297 422.646 471C421.906 470.857 421.158 470.76 420.406 470.71C420.76 470.487 421.162 470.354 421.578 470.321C421.994 470.288 422.412 470.356 422.796 470.52C424.116 470.88 424.766 471.9 424.646 472Z" fill="#263238"/>
<path d="M429.363 465C428.409 464.339 427.406 463.75 426.363 463.24C425.246 462.894 424.107 462.623 422.953 462.43C424.156 462.117 425.43 462.238 426.553 462.77C427.724 463.158 428.719 463.948 429.363 465Z" fill="#263238"/>
<path d="M429.773 459.41C429.713 459.55 428.443 459.01 426.773 458.94C425.103 458.87 423.773 459.27 423.773 459.13C424.705 458.629 425.755 458.391 426.812 458.44C427.869 458.489 428.892 458.825 429.773 459.41Z" fill="#263238"/>
<path d="M425.844 458.89C425.826 458.586 425.877 458.281 425.994 458C426.215 457.23 426.589 456.512 427.094 455.89C427.421 455.397 427.903 455.027 428.464 454.84C428.652 454.804 428.845 454.823 429.023 454.894C429.2 454.965 429.353 455.085 429.464 455.24C429.653 455.57 429.713 455.958 429.634 456.33C429.437 457.079 428.987 457.738 428.36 458.193C427.733 458.649 426.968 458.874 426.194 458.83C425.429 458.765 424.701 458.475 424.101 457.996C423.501 457.517 423.057 456.871 422.824 456.14C422.768 455.955 422.752 455.76 422.778 455.568C422.804 455.377 422.871 455.193 422.974 455.03C423.091 454.884 423.249 454.778 423.428 454.724C423.606 454.671 423.797 454.673 423.974 454.73C424.511 454.952 424.977 455.315 425.324 455.78C425.848 456.384 426.259 457.079 426.534 457.83C426.658 458.094 426.729 458.379 426.744 458.67C426.309 457.711 425.74 456.819 425.054 456.02C424.738 455.628 424.329 455.322 423.864 455.13C423.765 455.092 423.656 455.088 423.553 455.116C423.45 455.145 423.36 455.206 423.294 455.29C423.18 455.52 423.159 455.785 423.234 456.03C423.46 456.66 423.863 457.212 424.396 457.618C424.928 458.025 425.567 458.268 426.234 458.32C426.888 458.36 427.535 458.177 428.071 457.801C428.607 457.425 429 456.878 429.184 456.25C429.244 455.991 429.212 455.718 429.094 455.48C429.038 455.389 428.955 455.317 428.856 455.276C428.758 455.235 428.648 455.226 428.544 455.25C428.073 455.412 427.665 455.716 427.374 456.12C426.705 456.946 426.187 457.883 425.844 458.89Z" fill="#263238"/>
<path d="M455.12 282.289L395.12 294.479L394.95 306.089C394.921 307.994 395.028 309.899 395.27 311.789L402.47 368.569L412.95 447.419L423.03 446.859L423.14 449.959L440 448.999C440 448.999 450.47 400.539 449.63 389.759C447.92 367.669 451.54 356.579 454.28 345.269C457.25 333.049 468.12 304.079 455.12 282.289Z" fill="#263238"/>
<path d="M416.766 307.43C416.755 307.529 416.755 307.63 416.766 307.73C416.766 307.95 416.766 308.24 416.766 308.61C416.766 309.42 416.836 310.56 416.886 312.02C417.006 315.02 417.186 319.26 417.406 324.53C417.896 335.12 418.566 349.7 419.296 365.81C420.026 381.92 420.796 396.51 421.296 407.1C421.576 412.36 421.806 416.63 421.956 419.61L422.166 423.01C422.166 423.38 422.166 423.67 422.226 423.89C422.215 423.989 422.215 424.09 422.226 424.19C422.233 424.09 422.233 423.99 422.226 423.89C422.226 423.67 422.226 423.38 422.226 423.01C422.226 422.2 422.156 421.06 422.106 419.6C421.986 416.6 421.806 412.35 421.586 407.09C421.096 396.5 420.436 381.92 419.696 365.8C418.956 349.68 418.196 335.11 417.696 324.53C417.416 319.26 417.196 314.99 417.036 312.01C416.946 310.56 416.876 309.42 416.836 308.61C416.836 308.24 416.786 307.95 416.766 307.73C416.773 307.63 416.773 307.53 416.766 307.43Z" fill="#455A64"/>
<path d="M422.276 423.381C422.218 423.728 422.194 424.079 422.206 424.431C422.206 425.191 422.206 426.151 422.206 427.281C422.206 429.691 422.206 433.011 422.346 436.681C422.486 440.351 422.606 443.681 422.766 446.081C422.846 447.281 422.916 448.251 422.986 448.921C422.997 449.258 423.044 449.593 423.126 449.921C423.167 449.589 423.167 449.253 423.126 448.921C423.126 448.161 423.126 447.201 423.046 446.071C422.976 443.571 422.876 440.301 422.766 436.681C422.656 433.061 422.566 429.791 422.486 427.281C422.436 426.151 422.396 425.201 422.366 424.441C422.376 424.085 422.346 423.73 422.276 423.381Z" fill="#455A64"/>
<path d="M363.558 200.07C363.558 200.07 391.808 197.54 394.378 197.01C396.948 196.48 404.858 196.81 404.858 196.81L395.618 222.63L357.428 218.21C350.828 216.05 345.428 203.72 345.428 203.72L332.898 179.91L346.208 178.74L363.558 200.07Z" fill="#FFBE9D"/>
<path d="M434.519 197.901C435.009 198.071 449.679 203.371 453.949 206.171C456.949 208.171 457.249 213.171 455.779 216.491L448.479 232.911L444.399 253.221L457.609 285.001L458.939 290.241L395.099 294.751L392.289 288.131L395.619 258.131V220.331L404.859 196.811L420.669 197.011L434.519 197.901Z" fill="#FE6100"/>
<g opacity="0.3">
<path d="M399.773 272C400.472 271.323 401.356 270.867 402.313 270.69C413.837 267.333 425.583 264.79 437.463 263.08C440.223 262.69 443.103 262.36 445.743 263.25C448.383 264.14 451.393 266.67 451.143 269.44L451.523 270.37C446.628 273.231 440.993 274.575 435.333 274.23C431.963 274.08 428.273 273.41 425.443 275.23C423.533 276.47 422.443 278.64 420.793 280.23C419.71 281.265 418.411 282.046 416.99 282.518C415.568 282.99 414.06 283.141 412.573 282.96C411.09 282.761 409.667 282.246 408.401 281.449C407.134 280.652 406.054 279.592 405.233 278.34C404.333 276.95 403.543 275.18 401.923 274.87C401.243 274.74 400.473 274.87 399.923 274.52C399.745 274.367 399.599 274.179 399.495 273.968C399.391 273.757 399.33 273.527 399.316 273.292C399.302 273.057 399.335 272.822 399.413 272.6C399.492 272.378 399.614 272.174 399.773 272Z" fill="black"/>
</g>
<path d="M453.369 205.779C455.377 206.838 457.057 208.425 458.229 210.369C460.619 213.929 468.569 237.369 468.569 237.369L448.289 245.779L443.289 235.009L453.369 205.779Z" fill="#FE6100"/>
<path d="M448.416 223C448.302 223.247 448.224 223.51 448.186 223.78C448.076 224.29 447.926 225.03 447.766 225.95C447.446 227.78 447.076 230.33 446.766 233.16C446.456 235.99 446.396 238.57 446.386 240.44C446.386 241.37 446.386 242.12 446.386 242.64C446.373 242.912 446.4 243.185 446.466 243.45C446.599 242.455 446.673 241.454 446.686 240.45C446.786 238.59 446.946 236.03 447.206 233.21C447.466 230.39 447.786 227.84 448.026 225.99C448.214 225.002 448.344 224.003 448.416 223Z" fill="#263238"/>
<path d="M415.461 236.41C415.419 236.685 415.419 236.965 415.461 237.24C415.535 237.994 415.672 238.74 415.871 239.47C416.529 241.901 417.784 244.129 419.522 245.952C421.259 247.775 423.424 249.136 425.821 249.91C426.538 250.146 427.274 250.32 428.021 250.43C428.296 250.468 428.575 250.468 428.851 250.43C428.851 250.35 427.691 250.21 425.921 249.56C423.615 248.725 421.534 247.367 419.842 245.592C418.151 243.817 416.894 241.673 416.171 239.33C415.621 237.58 415.541 236.4 415.461 236.41Z" fill="#263238"/>
<path d="M397.524 196.74C393.944 196.74 379.694 198.53 379.694 198.53L378.164 221.63L395.614 223.75L407.614 196.75C407.614 196.75 401.114 196.71 397.524 196.74Z" fill="#FE6100"/>
<path d="M389.086 162.351C389.135 162.123 389.261 161.92 389.444 161.776C389.626 161.631 389.853 161.555 390.086 161.561C389.954 161.434 389.859 161.274 389.811 161.098C389.764 160.922 389.765 160.736 389.816 160.561C389.923 160.323 390.119 160.136 390.362 160.041C390.605 159.946 390.876 159.949 391.116 160.051C390.953 159.795 390.858 159.502 390.839 159.2C390.82 158.897 390.878 158.595 391.008 158.321C391.138 158.047 391.335 157.811 391.582 157.634C391.828 157.457 392.115 157.346 392.416 157.311C392.222 157.017 392.117 156.675 392.112 156.323C392.107 155.972 392.202 155.626 392.387 155.328C392.573 155.029 392.839 154.789 393.156 154.637C393.473 154.486 393.827 154.428 394.176 154.471C393.947 154.268 393.799 153.989 393.76 153.685C393.722 153.381 393.795 153.074 393.967 152.821C394.138 152.567 394.396 152.385 394.692 152.307C394.988 152.23 395.302 152.263 395.576 152.401C395.492 152.128 395.486 151.838 395.56 151.563C395.634 151.287 395.784 151.039 395.993 150.845C396.202 150.652 396.462 150.521 396.742 150.469C397.022 150.417 397.311 150.445 397.576 150.551C397.527 150.275 397.549 149.992 397.64 149.728C397.732 149.464 397.889 149.227 398.097 149.041C398.306 148.854 398.558 148.724 398.831 148.663C399.104 148.602 399.388 148.611 399.656 148.691C399.581 148.421 399.606 148.133 399.725 147.88C399.844 147.627 400.05 147.425 400.306 147.311C400.565 147.209 400.851 147.203 401.114 147.295C401.376 147.387 401.597 147.57 401.736 147.811C401.624 147.484 401.633 147.128 401.761 146.807C401.889 146.486 402.129 146.223 402.436 146.064C402.742 145.905 403.096 145.862 403.432 145.942C403.768 146.022 404.064 146.22 404.266 146.501C404.19 146.195 404.221 145.872 404.354 145.587C404.487 145.301 404.713 145.07 404.996 144.931C405.286 144.807 405.611 144.788 405.914 144.877C406.217 144.967 406.479 145.159 406.656 145.421C406.638 144.997 406.749 144.579 406.977 144.221C407.204 143.863 407.535 143.584 407.926 143.421C408.322 143.272 408.756 143.253 409.164 143.366C409.571 143.479 409.933 143.719 410.196 144.051C410.222 143.675 410.39 143.323 410.668 143.068C410.945 142.813 411.309 142.675 411.686 142.681C412.439 142.721 413.168 142.962 413.796 143.381C413.943 143.089 414.183 142.854 414.478 142.713C414.773 142.572 415.106 142.532 415.426 142.601C416.062 142.755 416.656 143.049 417.166 143.461C417.252 143.087 417.435 142.742 417.696 142.461L418.866 142.961C418.473 142.71 418.183 142.326 418.05 141.879C417.916 141.432 417.949 140.952 418.141 140.526C418.333 140.101 418.671 139.76 419.095 139.564C419.518 139.368 419.998 139.331 420.446 139.461C419.746 138.551 420.556 137.291 421.326 136.461L422.006 135.721C422.196 135.482 422.431 135.282 422.696 135.131C422.981 135.006 423.302 134.991 423.598 135.089C423.893 135.186 424.142 135.39 424.296 135.661C424.25 135.353 424.313 135.039 424.474 134.773C424.634 134.506 424.883 134.304 425.176 134.201C425.473 134.113 425.792 134.132 426.077 134.254C426.362 134.377 426.595 134.595 426.736 134.871C426.929 134.59 427.187 134.361 427.489 134.202C427.79 134.044 428.125 133.961 428.466 133.961C428.806 133.961 429.142 134.044 429.443 134.202C429.745 134.361 430.003 134.59 430.196 134.871C430.196 134.241 431.126 134.091 431.676 134.391C432.226 134.691 432.676 135.231 433.326 135.251C433.705 135.214 434.08 135.144 434.446 135.041C434.912 134.981 435.383 135.106 435.757 135.391C436.132 135.675 436.379 136.095 436.446 136.561C437.044 136.347 437.697 136.347 438.295 136.56C438.893 136.773 439.398 137.187 439.726 137.731C441.287 137.799 442.787 138.355 444.016 139.321C444.636 139.711 445.326 140.541 444.796 141.061C445.103 141.02 445.415 141.046 445.711 141.138C446.007 141.23 446.279 141.385 446.509 141.592C446.739 141.799 446.922 142.054 447.044 142.339C447.166 142.623 447.224 142.931 447.216 143.241C447.531 143.186 447.855 143.216 448.155 143.327C448.455 143.438 448.72 143.627 448.923 143.874C449.126 144.121 449.26 144.417 449.312 144.733C449.363 145.048 449.33 145.372 449.216 145.671C449.439 145.63 449.669 145.653 449.879 145.736C450.09 145.82 450.273 145.961 450.407 146.143C450.542 146.325 450.622 146.542 450.64 146.768C450.657 146.993 450.611 147.22 450.506 147.421C450.744 147.379 450.988 147.4 451.215 147.482C451.442 147.564 451.643 147.704 451.799 147.888C451.954 148.072 452.059 148.294 452.103 148.531C452.146 148.769 452.126 149.013 452.046 149.241C452.776 149.031 453.346 150.061 453.046 150.751C452.643 151.4 452.012 151.875 451.276 152.081C451.825 151.973 452.394 152.08 452.866 152.381C453.296 152.731 453.346 153.541 452.866 153.771C453.175 153.773 453.48 153.841 453.76 153.972C454.04 154.102 454.289 154.292 454.489 154.527C454.689 154.763 454.836 155.038 454.92 155.336C455.004 155.633 455.023 155.945 454.976 156.251C455.21 156.246 455.44 156.309 455.638 156.432C455.837 156.556 455.995 156.734 456.095 156.946C456.194 157.157 456.23 157.393 456.198 157.625C456.167 157.856 456.069 158.074 455.916 158.251C456.171 158.395 456.384 158.601 456.537 158.851C456.69 159.1 456.776 159.385 456.788 159.677C456.8 159.969 456.737 160.26 456.606 160.521C456.474 160.783 456.278 161.006 456.036 161.171C456.38 161.415 456.671 161.727 456.892 162.086C457.112 162.446 457.258 162.847 457.319 163.265C457.381 163.682 457.358 164.108 457.25 164.516C457.143 164.925 456.955 165.307 456.696 165.641C456.891 165.771 457.047 165.953 457.145 166.166C457.243 166.379 457.28 166.615 457.252 166.848C457.224 167.082 457.132 167.302 456.986 167.486C456.841 167.67 456.647 167.81 456.426 167.891C456.608 168.228 456.706 168.603 456.714 168.986C456.722 169.369 456.638 169.748 456.47 170.092C456.302 170.436 456.054 170.735 455.747 170.965C455.441 171.194 455.084 171.347 454.706 171.411C455.034 171.373 455.365 171.453 455.64 171.637C455.914 171.82 456.116 172.094 456.208 172.411C456.3 172.728 456.277 173.068 456.143 173.369C456.009 173.671 455.773 173.916 455.476 174.061V174.211C455.426 174.511 455.236 174.781 455.166 175.071V175.141C455.251 175.374 455.292 175.622 455.286 175.871V176.031C455.392 176.326 455.469 176.63 455.516 176.941C455.636 178.361 454.076 179.411 453.056 180.551C452.496 181.176 452.068 181.907 451.796 182.701C451.506 183.621 451.036 184.881 449.986 184.701C450.137 184.918 450.227 185.172 450.248 185.436C450.269 185.7 450.219 185.965 450.104 186.204C449.99 186.443 449.814 186.647 449.594 186.796C449.375 186.944 449.12 187.032 448.856 187.051C449.406 187.201 449.326 187.971 448.856 188.321C448.356 188.604 447.831 188.838 447.286 189.021C446.716 189.321 446.286 189.801 445.786 190.141C445.537 190.337 445.235 190.456 444.918 190.483C444.602 190.51 444.285 190.443 444.006 190.291L443.916 190.471C444.226 190.701 444.116 191.231 443.806 191.471C443.467 191.667 443.075 191.751 442.686 191.711H441.386C439.682 192.374 437.841 192.607 436.026 192.391C435.658 192.747 435.187 192.976 434.68 193.046C434.173 193.117 433.656 193.023 433.206 192.781C432.672 193.109 432.07 193.311 431.446 193.37C430.821 193.429 430.192 193.344 429.606 193.121C429.069 192.912 428.598 192.56 428.246 192.104C427.893 191.647 427.672 191.103 427.606 190.531L426.066 190.271L420.416 192.131C419.285 192.647 418.012 192.763 416.806 192.461C416.388 192.802 415.875 193.003 415.336 193.038C414.798 193.072 414.263 192.936 413.806 192.651C413.229 193.062 412.547 193.302 411.839 193.343C411.131 193.383 410.427 193.223 409.806 192.881C409.556 193.258 409.208 193.56 408.799 193.754C408.39 193.948 407.936 194.026 407.486 193.981C407.077 193.896 406.662 193.836 406.246 193.801C405.436 193.801 404.516 194.381 403.886 193.941C403.516 193.681 403.486 193.181 403.176 192.851C402.716 192.529 402.183 192.326 401.626 192.261C401.076 192.111 400.086 189.461 400.286 188.981C398.976 189.051 398.036 186.801 397.456 184.881C396.973 184.552 396.625 184.062 396.475 183.498C396.324 182.934 396.381 182.335 396.636 181.811C395.902 181.478 395.273 180.953 394.815 180.291C394.357 179.629 394.088 178.854 394.036 178.051C393.496 178.051 393.096 177.551 392.956 177.051C392.891 176.512 392.757 175.984 392.556 175.481C392.296 175.051 391.826 174.751 391.666 174.271C391.585 173.942 391.585 173.599 391.666 173.271C391.906 172.031 392.136 170.781 392.376 169.541C392.173 169.489 391.985 169.387 391.831 169.245C391.677 169.102 391.561 168.924 391.493 168.725C391.426 168.526 391.409 168.314 391.444 168.107C391.48 167.9 391.566 167.705 391.696 167.541L390.376 166.701C390.416 166.528 390.494 166.366 390.605 166.227C390.715 166.089 390.856 165.977 391.016 165.901L389.846 165.241C390.025 165.075 390.156 164.864 390.225 164.629C390.293 164.395 390.297 164.147 390.236 163.911L392.506 163.311L390.116 163.931C389.823 163.777 389.575 163.552 389.395 163.275C389.214 162.998 389.108 162.68 389.086 162.351Z" fill="#263238"/>
<path d="M434.998 155.801L419.398 152.421C413.638 151.661 407.238 157.291 406.728 163.081C406.158 169.521 405.728 177.401 406.358 182.221C407.648 191.931 415.028 193.351 415.028 193.351L414.918 197.351C414.839 200.102 415.842 202.774 417.712 204.793C419.582 206.813 422.169 208.018 424.918 208.151C426.298 208.218 427.676 208.013 428.976 207.546C430.276 207.08 431.471 206.361 432.493 205.433C433.514 204.504 434.343 203.382 434.931 202.133C435.519 200.883 435.854 199.53 435.918 198.151L437.918 159.581C437.959 158.707 437.687 157.847 437.152 157.155C436.618 156.462 435.854 155.982 434.998 155.801Z" fill="#FFBE9D"/>
<path d="M408.141 169.749C408.137 170.066 408.256 170.373 408.472 170.605C408.687 170.838 408.984 170.979 409.301 170.999C409.459 171.016 409.618 171.001 409.77 170.954C409.922 170.908 410.063 170.832 410.185 170.73C410.308 170.629 410.408 170.504 410.481 170.363C410.554 170.222 410.598 170.068 410.611 169.909C410.619 169.586 410.502 169.272 410.284 169.033C410.066 168.795 409.763 168.65 409.441 168.629C409.281 168.613 409.119 168.629 408.966 168.677C408.813 168.725 408.671 168.804 408.549 168.909C408.428 169.014 408.329 169.143 408.258 169.287C408.188 169.432 408.148 169.589 408.141 169.749Z" fill="#263238"/>
<path d="M407.997 167.53C408.107 167.74 409.187 167.15 410.497 167.41C411.807 167.67 412.617 168.57 412.797 168.41C412.977 168.25 412.797 167.99 412.447 167.57C411.971 167.046 411.335 166.694 410.637 166.57C409.954 166.447 409.248 166.56 408.637 166.89C408.107 167.15 407.907 167.44 407.997 167.53Z" fill="#263238"/>
<path d="M421.196 170.58C421.185 170.902 421.3 171.216 421.516 171.455C421.733 171.694 422.034 171.839 422.356 171.86C422.513 171.876 422.672 171.861 422.823 171.816C422.975 171.77 423.116 171.695 423.238 171.595C423.359 171.494 423.46 171.37 423.534 171.23C423.607 171.09 423.652 170.937 423.666 170.78C423.675 170.456 423.558 170.14 423.34 169.9C423.122 169.66 422.82 169.513 422.496 169.49C422.339 169.475 422.18 169.491 422.029 169.538C421.879 169.585 421.739 169.661 421.618 169.762C421.497 169.864 421.397 169.988 421.325 170.129C421.252 170.269 421.209 170.422 421.196 170.58Z" fill="#263238"/>
<path d="M420.885 168.5C421.055 168.7 422.145 167.92 423.665 167.97C425.185 168.02 426.275 168.83 426.445 168.64C426.615 168.45 426.355 168.22 425.885 167.85C425.247 167.362 424.468 167.092 423.665 167.08C422.875 167.055 422.097 167.282 421.445 167.73C420.995 168.08 420.805 168.42 420.885 168.5Z" fill="#263238"/>
<path d="M416.387 177.58C415.688 177.346 414.963 177.198 414.227 177.14C413.887 177.14 413.567 177.02 413.517 176.78C413.5 176.43 413.587 176.082 413.767 175.78C414.117 174.96 414.467 174.11 414.847 173.21C415.837 171.036 416.65 168.786 417.277 166.48C416.102 168.569 415.099 170.749 414.277 173L413.277 175.58C413.053 175.989 412.979 176.463 413.067 176.92C413.115 177.041 413.189 177.15 413.285 177.238C413.38 177.326 413.494 177.392 413.617 177.43C413.803 177.486 413.994 177.516 414.187 177.52C414.915 177.637 415.655 177.658 416.387 177.58Z" fill="#263238"/>
<path d="M415.068 193.351C419.608 193.527 424.107 192.444 428.068 190.221C428.068 190.221 424.548 196.831 414.898 195.681L415.068 193.351Z" fill="#EB996E"/>
<path d="M420.339 165.489C420.509 165.839 421.819 165.489 423.399 165.569C424.979 165.649 426.269 165.909 426.449 165.569C426.529 165.399 426.269 165.079 425.729 164.779C425.009 164.419 424.216 164.228 423.41 164.219C422.605 164.21 421.808 164.385 421.079 164.729C420.529 164.999 420.269 165.329 420.339 165.489Z" fill="#263238"/>
<path d="M408.048 164C408.268 164.33 409.308 164.17 410.518 164.33C411.728 164.49 412.718 164.85 412.998 164.58C413.118 164.44 412.998 164.11 412.598 163.76C412.04 163.325 411.372 163.054 410.668 162.98C409.968 162.882 409.255 162.993 408.618 163.3C408.148 163.58 407.998 163.87 408.048 164Z" fill="#263238"/>
<path d="M436.574 172.91C436.714 172.85 442.354 171.21 442.164 176.96C441.974 182.71 436.234 181.33 436.234 181.16C436.234 180.99 436.574 172.91 436.574 172.91Z" fill="#FFBE9D"/>
<path d="M438.069 178.999C438.069 178.999 438.159 179.079 438.329 179.159C438.569 179.257 438.838 179.257 439.079 179.159C439.457 178.937 439.769 178.617 439.983 178.234C440.198 177.851 440.307 177.418 440.299 176.979C440.328 176.485 440.25 175.99 440.069 175.529C440.02 175.349 439.928 175.182 439.801 175.045C439.674 174.907 439.515 174.802 439.339 174.739C439.224 174.708 439.102 174.716 438.993 174.763C438.884 174.811 438.794 174.894 438.739 174.999C438.659 175.149 438.689 175.269 438.659 175.279C438.629 175.289 438.539 175.179 438.589 174.939C438.629 174.8 438.713 174.677 438.829 174.589C438.909 174.532 439 174.491 439.096 174.469C439.192 174.446 439.292 174.443 439.389 174.459C439.62 174.519 439.832 174.635 440.007 174.797C440.182 174.96 440.313 175.163 440.389 175.389C440.616 175.894 440.716 176.447 440.679 176.999C440.691 177.511 440.551 178.015 440.277 178.448C440.003 178.88 439.607 179.222 439.139 179.429C438.984 179.475 438.82 179.483 438.662 179.451C438.503 179.42 438.355 179.351 438.229 179.249C438.069 179.179 438.049 179.049 438.069 178.999Z" fill="#EB996E"/>
<path d="M445.159 186.13C442.349 187.05 443.319 173.54 440.929 171.8C438.539 170.06 437.809 176.75 434.599 174.33C432.509 172.76 433.959 171.79 432.779 169.46C431.219 166.39 426.589 165.94 425.009 162.88C424.089 161.09 424.449 158.88 423.449 157.11C422.449 155.34 420.569 154.7 418.729 154.28C416.889 153.86 414.959 153.64 413.339 152.67C411.719 151.7 410.549 149.67 411.339 147.91C419.263 147.912 427.159 148.859 434.859 150.73C436.649 151.16 438.529 151.73 439.729 153.11C440.929 154.49 441.179 156.67 441.319 158.6L443.389 186.94" fill="#263238"/>
<path d="M423.344 134.11C423.344 134.11 423.284 134.05 423.154 133.95C422.964 133.805 422.733 133.725 422.494 133.72C422.308 133.713 422.122 133.745 421.95 133.816C421.777 133.887 421.622 133.994 421.494 134.13C421.165 134.492 420.98 134.961 420.974 135.45V135.59L420.854 135.53C420.508 135.386 420.129 135.338 419.758 135.391C419.387 135.444 419.037 135.595 418.744 135.83C418.412 136.111 418.181 136.492 418.086 136.916C417.99 137.34 418.035 137.784 418.214 138.18L418.504 138.84L418.024 138.31C417.827 138.127 417.578 138.009 417.312 137.972C417.046 137.934 416.774 137.979 416.534 138.1C416.238 138.24 415.998 138.477 415.854 138.771C415.711 139.066 415.672 139.4 415.744 139.72C415.801 140.033 415.931 140.328 416.124 140.58C416.2 140.702 416.298 140.809 416.415 140.893C416.532 140.977 416.664 141.037 416.804 141.07C416.86 141.071 416.914 141.053 416.959 141.021C417.004 140.989 417.037 140.943 417.054 140.89C417.054 140.8 417.054 140.72 416.904 140.7C416.782 140.697 416.661 140.734 416.561 140.804C416.46 140.874 416.384 140.974 416.344 141.09C416.211 141.567 416.246 142.076 416.444 142.53C416.69 143.232 417.074 143.878 417.574 144.43C417.924 144.82 418.164 144.99 418.154 145.01C418.144 145.03 418.084 145.01 417.974 144.9C417.81 144.772 417.653 144.635 417.504 144.49C416.974 143.947 416.562 143.3 416.294 142.59C416.057 142.097 416.011 141.535 416.164 141.01C416.219 140.85 416.326 140.714 416.467 140.621C416.608 140.529 416.776 140.486 416.944 140.5C417.042 140.514 417.131 140.564 417.194 140.64C417.228 140.683 417.251 140.734 417.261 140.788C417.271 140.842 417.269 140.897 417.254 140.95C417.226 141.048 417.167 141.134 417.086 141.195C417.005 141.256 416.906 141.29 416.804 141.29C416.62 141.279 416.445 141.208 416.304 141.09C416.167 140.985 416.046 140.86 415.944 140.72C415.722 140.426 415.574 140.083 415.514 139.72C415.449 139.356 415.491 138.981 415.634 138.64C415.789 138.278 416.08 137.991 416.444 137.84C416.729 137.701 417.049 137.652 417.361 137.7C417.674 137.749 417.965 137.892 418.194 138.11L417.994 138.24C417.804 137.794 417.762 137.3 417.874 136.828C417.985 136.357 418.245 135.933 418.614 135.62C418.936 135.365 419.321 135.202 419.728 135.151C420.136 135.1 420.549 135.162 420.924 135.33L420.794 135.41C420.815 134.876 421.028 134.369 421.394 133.98C421.539 133.839 421.712 133.731 421.901 133.662C422.091 133.593 422.293 133.565 422.494 133.58C422.75 133.598 422.992 133.7 423.184 133.87C423.228 133.913 423.269 133.96 423.304 134.01C423.304 134.01 423.354 134.11 423.344 134.11Z" fill="#263238"/>
<path d="M402.994 145.91C402.994 145.91 402.994 145.91 402.924 145.79C402.89 145.656 402.89 145.515 402.924 145.38C402.977 145.158 403.104 144.961 403.284 144.82C403.401 144.719 403.54 144.649 403.69 144.616C403.841 144.583 403.997 144.588 404.144 144.63L404.054 144.71C404.034 144.54 404.053 144.368 404.11 144.207C404.168 144.045 404.262 143.899 404.384 143.78C404.52 143.632 404.691 143.521 404.882 143.458C405.073 143.395 405.277 143.382 405.474 143.42L405.354 143.49C405.426 143.131 405.573 142.79 405.784 142.49C405.912 142.328 406.087 142.209 406.284 142.15C406.392 142.117 406.506 142.106 406.618 142.12C406.73 142.134 406.838 142.171 406.934 142.23L406.764 142.3C406.815 142.006 406.954 141.735 407.163 141.522C407.372 141.309 407.641 141.165 407.934 141.11C408.252 141.066 408.576 141.128 408.856 141.285C409.136 141.442 409.357 141.686 409.484 141.98L409.874 142.93L409.274 142.1C409.192 141.972 409.134 141.83 409.104 141.68C409.066 141.446 409.095 141.205 409.187 140.986C409.279 140.767 409.43 140.578 409.624 140.44C409.812 140.318 410.024 140.24 410.246 140.213C410.468 140.185 410.693 140.208 410.904 140.28C411.315 140.4 411.67 140.663 411.904 141.02C412.111 141.341 412.248 141.703 412.304 142.08H412.094C412.125 141.872 412.221 141.678 412.368 141.527C412.516 141.377 412.707 141.276 412.914 141.24C413.259 141.183 413.612 141.247 413.914 141.42C414.419 141.682 414.851 142.063 415.174 142.53C415.391 142.82 415.513 143.169 415.524 143.53C415.533 143.624 415.533 143.717 415.524 143.81C415.524 143.88 415.524 143.91 415.524 143.9C415.524 143.89 415.524 143.77 415.524 143.53C415.499 143.165 415.363 142.816 415.134 142.53C414.804 142.11 414.384 141.768 413.904 141.53C413.621 141.376 413.293 141.323 412.974 141.38C412.81 141.411 412.66 141.492 412.543 141.612C412.427 141.732 412.35 141.885 412.324 142.05L412.264 143L412.124 142.06C412.081 141.706 411.942 141.369 411.724 141.086C411.506 140.803 411.216 140.584 410.884 140.45C410.705 140.389 410.513 140.369 410.325 140.392C410.136 140.414 409.955 140.479 409.794 140.58C409.641 140.694 409.521 140.847 409.447 141.023C409.373 141.199 409.348 141.391 409.374 141.58C409.395 141.695 409.439 141.804 409.504 141.9L409.304 142.01C409.199 141.764 409.016 141.559 408.783 141.427C408.55 141.295 408.28 141.244 408.014 141.28C407.765 141.324 407.535 141.443 407.356 141.622C407.177 141.801 407.058 142.031 407.014 142.28V142.45L406.874 142.35C406.727 142.28 406.561 142.263 406.402 142.301C406.244 142.339 406.103 142.431 406.004 142.56C405.809 142.829 405.673 143.136 405.604 143.46V143.55H405.514C405.348 143.518 405.177 143.529 405.016 143.582C404.855 143.634 404.71 143.727 404.594 143.85C404.488 143.951 404.405 144.074 404.352 144.211C404.298 144.347 404.275 144.494 404.284 144.64V144.75H404.174C404.048 144.713 403.915 144.706 403.786 144.733C403.657 144.759 403.536 144.816 403.434 144.9C403.267 145.022 403.141 145.194 403.074 145.39C402.998 145.552 402.97 145.733 402.994 145.91Z" fill="#263238"/>
<path d="M442.069 161.589C442.199 161.296 442.264 160.979 442.259 160.659C442.245 160.279 442.138 159.909 441.949 159.579C441.695 159.135 441.28 158.806 440.789 158.659H440.719V158.589C440.781 158.392 440.785 158.181 440.732 157.981C440.679 157.781 440.571 157.6 440.419 157.459C440.25 157.306 440.036 157.212 439.809 157.189C439.531 157.202 439.257 157.113 439.039 156.939C438.857 156.711 438.74 156.438 438.699 156.149C438.659 155.946 438.573 155.754 438.448 155.588C438.323 155.422 438.163 155.286 437.979 155.19C437.794 155.094 437.591 155.04 437.384 155.033C437.176 155.026 436.97 155.066 436.779 155.149L436.369 155.339L436.659 154.989C436.836 154.764 436.932 154.486 436.932 154.199C436.932 153.913 436.836 153.635 436.659 153.409C436.45 153.185 436.165 153.045 435.86 153.015C435.554 152.986 435.248 153.069 434.999 153.249L434.729 153.459L434.829 153.129C434.94 152.721 434.918 152.288 434.768 151.892C434.617 151.497 434.344 151.16 433.989 150.929C433.605 150.699 433.155 150.605 432.711 150.661C432.267 150.717 431.854 150.921 431.539 151.239L431.299 151.489V151.149C431.351 150.534 431.207 149.918 430.889 149.389C430.603 148.895 430.189 148.487 429.689 148.209C429.199 147.948 428.642 147.84 428.089 147.899C427.56 147.953 427.054 148.141 426.618 148.446C426.183 148.75 425.832 149.161 425.599 149.639L425.479 149.919L425.389 149.629C425.309 149.391 425.178 149.172 425.006 148.989C424.833 148.806 424.623 148.663 424.389 148.569C423.924 148.371 423.405 148.339 422.919 148.479C422.026 148.784 421.273 149.402 420.799 150.219L420.739 150.309L420.659 150.239C420.225 149.869 419.716 149.597 419.168 149.44C418.619 149.283 418.044 149.245 417.479 149.329C416.614 149.451 415.815 149.86 415.209 150.489C414.816 150.887 414.507 151.36 414.299 151.879C414.159 152.239 414.119 152.439 414.109 152.439C414.131 152.241 414.178 152.046 414.249 151.859C414.439 151.323 414.739 150.832 415.129 150.419C415.743 149.754 416.565 149.317 417.459 149.179C418.046 149.091 418.644 149.126 419.216 149.283C419.787 149.44 420.32 149.714 420.779 150.089H420.639C421.139 149.229 421.93 148.576 422.869 148.249C423.398 148.099 423.961 148.131 424.469 148.339C424.74 148.443 424.984 148.603 425.186 148.811C425.388 149.018 425.543 149.266 425.639 149.539H425.429C425.673 149.021 426.047 148.575 426.516 148.246C426.984 147.916 427.53 147.714 428.099 147.659C428.697 147.591 429.302 147.71 429.829 147.999C430.37 148.292 430.82 148.728 431.129 149.259C431.468 149.832 431.621 150.496 431.569 151.159L431.359 151.069C431.695 150.711 432.142 150.477 432.627 150.405C433.112 150.333 433.608 150.426 434.033 150.67C434.459 150.914 434.79 151.294 434.972 151.75C435.155 152.205 435.178 152.709 435.039 153.179L434.869 153.059C435.004 152.928 435.163 152.824 435.338 152.754C435.512 152.685 435.699 152.65 435.887 152.652C436.075 152.655 436.261 152.694 436.434 152.768C436.607 152.842 436.763 152.95 436.894 153.084C437.026 153.219 437.129 153.378 437.199 153.552C437.269 153.727 437.304 153.914 437.301 154.102C437.299 154.29 437.26 154.476 437.186 154.648C437.111 154.821 437.004 154.978 436.869 155.109L436.749 154.949C437.051 154.825 437.382 154.796 437.7 154.866C438.018 154.936 438.308 155.101 438.529 155.339C438.999 155.799 438.879 156.509 439.209 156.849C439.402 156.994 439.639 157.068 439.879 157.059C440.139 157.086 440.381 157.199 440.569 157.379C440.743 157.539 440.866 157.747 440.922 157.976C440.979 158.205 440.968 158.446 440.889 158.669V158.579C441.405 158.746 441.838 159.104 442.099 159.579C442.288 159.926 442.387 160.314 442.389 160.709C442.389 160.953 442.342 161.194 442.249 161.419C442.198 161.484 442.137 161.542 442.069 161.589Z" fill="#455A64"/>
<path d="M396.148 162.68C396.07 162.574 396.003 162.46 395.948 162.34C395.77 162.019 395.616 161.684 395.488 161.34C395.273 160.778 395.231 160.165 395.368 159.58C395.462 159.202 395.656 158.857 395.928 158.58C396.077 158.425 396.255 158.303 396.453 158.22C396.651 158.137 396.864 158.096 397.078 158.1L396.978 158.22C396.932 157.895 396.965 157.563 397.077 157.255C397.189 156.946 397.375 156.67 397.618 156.45C397.875 156.192 398.195 156.006 398.546 155.912C398.897 155.817 399.267 155.816 399.618 155.91L399.478 156.04C399.417 155.689 399.431 155.33 399.519 154.985C399.607 154.64 399.767 154.318 399.988 154.04C400.227 153.741 400.532 153.502 400.879 153.34C401.226 153.179 401.606 153.1 401.988 153.11C402.289 153.111 402.587 153.165 402.868 153.27C403.128 153.35 403.408 153.42 403.588 153.27C403.768 153.12 403.808 152.85 403.978 152.6C404.136 152.359 404.34 152.151 404.578 151.99C405.019 151.69 405.549 151.55 406.081 151.593C406.612 151.637 407.113 151.862 407.498 152.23H407.318C407.413 151.711 407.574 151.207 407.798 150.73C407.999 150.286 408.354 149.93 408.798 149.73C409.209 149.585 409.657 149.585 410.068 149.73C410.413 149.82 410.748 149.944 411.068 150.1C411.516 150.321 411.93 150.603 412.298 150.94L412.568 151.22C412.628 151.29 412.658 151.33 412.648 151.33C412.162 150.88 411.613 150.502 411.018 150.21C410.696 150.065 410.362 149.951 410.018 149.87C409.818 149.8 409.606 149.771 409.395 149.784C409.183 149.797 408.976 149.851 408.786 149.944C408.595 150.037 408.425 150.167 408.285 150.325C408.144 150.484 408.037 150.669 407.968 150.87C407.759 151.332 407.611 151.819 407.528 152.32V152.53L407.388 152.37C407.035 152.043 406.58 151.847 406.1 151.814C405.62 151.782 405.143 151.914 404.748 152.19C404.533 152.33 404.349 152.514 404.208 152.73C404.144 152.842 404.087 152.959 404.038 153.08C403.988 153.236 403.89 153.372 403.758 153.47C403.616 153.561 403.445 153.596 403.278 153.57C403.128 153.553 402.981 153.52 402.838 153.47C402.388 153.307 401.898 153.286 401.435 153.409C400.972 153.533 400.558 153.794 400.248 154.16C400.051 154.412 399.908 154.701 399.827 155.011C399.746 155.321 399.729 155.644 399.778 155.96V156.14L399.598 156.09C399.287 156.004 398.959 156.003 398.648 156.087C398.336 156.172 398.053 156.338 397.828 156.57C397.606 156.761 397.435 157.005 397.33 157.279C397.225 157.553 397.19 157.849 397.228 158.14V158.26H397.108C396.923 158.258 396.739 158.294 396.567 158.364C396.395 158.435 396.239 158.539 396.108 158.67C395.86 158.918 395.678 159.224 395.578 159.56C395.435 160.118 395.463 160.707 395.658 161.25C395.898 162.19 396.188 162.66 396.148 162.68Z" fill="#455A64"/>
<path d="M451.465 152.58C451.443 152.267 451.372 151.96 451.255 151.67C451.106 151.323 450.885 151.013 450.605 150.76C450.23 150.416 449.752 150.205 449.245 150.16H449.155V150.08C449.341 149.631 449.341 149.128 449.155 148.68C449.056 148.419 448.901 148.183 448.701 147.99C448.5 147.796 448.259 147.649 447.995 147.56H447.915V147.48C447.982 147.254 448.001 147.017 447.97 146.784C447.939 146.55 447.859 146.326 447.735 146.126C447.611 145.926 447.447 145.754 447.252 145.622C447.057 145.49 446.837 145.401 446.605 145.36C446.313 145.371 446.025 145.287 445.785 145.12C445.535 144.85 445.635 144.51 445.535 144.29C445.424 144.05 445.223 143.865 444.976 143.773C444.729 143.681 444.455 143.691 444.215 143.8L444.105 143.87V143.74C444.011 143.449 443.859 143.181 443.659 142.952C443.458 142.722 443.213 142.536 442.938 142.404C442.663 142.272 442.364 142.198 442.059 142.185C441.754 142.172 441.45 142.221 441.165 142.33H441.065V142.22C440.938 141.953 440.753 141.718 440.524 141.532C440.294 141.345 440.027 141.212 439.74 141.141C439.453 141.07 439.154 141.064 438.865 141.122C438.575 141.181 438.302 141.303 438.065 141.48L437.945 141.58L437.885 141.44C437.701 141.177 437.456 140.964 437.171 140.816C436.887 140.668 436.571 140.591 436.25 140.591C435.93 140.591 435.614 140.668 435.329 140.816C435.045 140.964 434.8 141.177 434.615 141.44L434.495 141.65L434.405 141.43C434.28 141.135 434.057 140.893 433.773 140.745C433.489 140.597 433.163 140.553 432.85 140.619C432.537 140.685 432.256 140.858 432.057 141.108C431.857 141.358 431.75 141.67 431.755 141.99V142.31L431.545 142.07C431.289 141.816 430.977 141.625 430.634 141.514C430.292 141.403 429.927 141.374 429.571 141.429C429.215 141.485 428.877 141.623 428.584 141.834C428.291 142.044 428.052 142.32 427.885 142.64L427.815 142.82L427.695 142.67C427.403 142.321 427.016 142.065 426.58 141.934C426.144 141.803 425.68 141.802 425.244 141.932C424.808 142.062 424.42 142.316 424.127 142.664C423.834 143.012 423.649 143.438 423.595 143.89V144.04L423.455 143.97C422.979 143.719 422.445 143.599 421.908 143.621C421.37 143.643 420.848 143.806 420.394 144.094C419.94 144.382 419.569 144.785 419.32 145.262C419.071 145.738 418.952 146.272 418.975 146.81V146.91H418.875C417.681 146.802 416.492 147.161 415.555 147.91C414.855 148.478 414.342 149.245 414.085 150.11C413.917 150.656 413.849 151.229 413.885 151.8C413.885 152.2 413.965 152.4 413.945 152.4C413.888 152.207 413.851 152.01 413.835 151.81C413.777 151.231 413.831 150.647 413.995 150.09C414.236 149.19 414.754 148.389 415.475 147.8C416.433 147.014 417.662 146.637 418.895 146.75L418.805 146.84C418.785 146.271 418.913 145.708 419.179 145.205C419.444 144.702 419.837 144.277 420.318 143.974C420.798 143.67 421.35 143.498 421.918 143.474C422.487 143.451 423.051 143.577 423.555 143.84L423.395 143.93C423.451 143.433 423.652 142.965 423.971 142.581C424.291 142.198 424.717 141.917 425.195 141.773C425.673 141.63 426.183 141.629 426.661 141.773C427.139 141.916 427.565 142.197 427.885 142.58H427.695C427.863 142.22 428.119 141.908 428.438 141.672C428.758 141.436 429.132 141.284 429.525 141.23C429.925 141.15 430.338 141.174 430.727 141.298C431.115 141.422 431.465 141.643 431.745 141.94L431.535 142.02C431.54 141.697 431.636 141.383 431.813 141.113C431.99 140.844 432.241 140.631 432.535 140.5C432.928 140.356 433.36 140.366 433.746 140.527C434.131 140.689 434.442 140.989 434.615 141.37H434.395C434.594 141.062 434.866 140.809 435.188 140.634C435.509 140.459 435.869 140.367 436.235 140.367C436.601 140.367 436.961 140.459 437.283 140.634C437.604 140.809 437.877 141.062 438.075 141.37H437.895C438.158 141.15 438.47 140.999 438.805 140.929C439.14 140.859 439.487 140.873 439.815 140.97C440.134 141.043 440.431 141.193 440.679 141.407C440.926 141.622 441.117 141.894 441.235 142.2L441.095 142.14C441.408 142.021 441.742 141.967 442.077 141.982C442.412 141.996 442.74 142.079 443.042 142.225C443.343 142.371 443.612 142.577 443.831 142.831C444.05 143.084 444.214 143.38 444.315 143.7L444.165 143.64C444.308 143.565 444.465 143.522 444.626 143.512C444.787 143.503 444.948 143.527 445.099 143.583C445.25 143.64 445.387 143.728 445.502 143.841C445.616 143.954 445.706 144.09 445.765 144.24C445.875 144.54 445.765 144.85 445.965 145C446.179 145.136 446.431 145.203 446.685 145.19C446.953 145.235 447.207 145.342 447.428 145.501C447.648 145.661 447.828 145.869 447.955 146.11C448.083 146.322 448.163 146.56 448.191 146.807C448.219 147.054 448.193 147.304 448.115 147.54L448.065 147.44C448.352 147.535 448.614 147.695 448.83 147.906C449.047 148.117 449.213 148.375 449.315 148.66C449.418 148.896 449.47 149.152 449.47 149.41C449.47 149.668 449.418 149.923 449.315 150.16V150.08C449.845 150.138 450.341 150.37 450.725 150.74C451.02 151.015 451.243 151.358 451.375 151.74C451.466 151.959 451.516 152.192 451.525 152.43C451.508 152.481 451.488 152.531 451.465 152.58Z" fill="#455A64"/>
<path d="M442.639 179C442.639 179 442.709 179 442.829 179.07C443.003 179.146 443.168 179.244 443.319 179.36C443.89 179.772 444.328 180.342 444.579 181C444.931 181.993 444.931 183.077 444.579 184.07C444.352 184.653 443.976 185.167 443.489 185.56C442.982 185.996 442.373 186.295 441.719 186.43C441.043 186.53 440.352 186.447 439.719 186.19C439.133 185.977 438.615 185.611 438.219 185.13C437.884 184.713 437.639 184.231 437.498 183.715C437.357 183.199 437.323 182.66 437.399 182.13C437.484 181.431 437.768 180.771 438.219 180.23C438.347 180.089 438.495 179.967 438.659 179.87L438.839 179.79C438.634 179.931 438.449 180.099 438.289 180.29C437.88 180.831 437.631 181.475 437.569 182.15C437.511 182.646 437.553 183.148 437.692 183.627C437.831 184.106 438.065 184.552 438.379 184.94C438.753 185.395 439.244 185.741 439.799 185.94C440.383 186.171 441.016 186.25 441.639 186.17C442.254 186.037 442.828 185.756 443.309 185.35C443.753 184.977 444.097 184.5 444.309 183.96C444.64 183.011 444.64 181.979 444.309 181.03C444.083 180.388 443.681 179.824 443.149 179.4C442.879 179.08 442.629 179 442.639 179Z" fill="#E0E0E0"/>
<path d="M420 179.23C419.722 178.944 419.348 178.77 418.95 178.74C418.661 178.694 418.365 178.712 418.083 178.793C417.801 178.874 417.541 179.017 417.32 179.21C417.105 179.408 416.955 179.667 416.889 179.953C416.823 180.238 416.844 180.536 416.95 180.81V180.66C416.989 180.942 417.101 181.21 417.277 181.435C417.453 181.66 417.685 181.834 417.95 181.94C418.212 182.044 418.496 182.083 418.776 182.053C419.057 182.024 419.326 181.926 419.56 181.77C419.792 181.611 419.984 181.401 420.123 181.157C420.262 180.912 420.343 180.64 420.36 180.36C420.38 180.157 420.359 179.952 420.297 179.757C420.235 179.563 420.134 179.384 420 179.23Z" fill="#EB996E"/>
<path d="M438.149 171.851C438.114 172.255 437.956 172.639 437.697 172.952C437.438 173.264 437.09 173.491 436.699 173.601C437.069 173.601 437.159 174.201 436.899 174.461C436.761 174.572 436.6 174.653 436.427 174.698C436.255 174.743 436.075 174.75 435.899 174.721C435.006 174.633 434.146 174.338 433.387 173.858C432.629 173.379 431.993 172.729 431.529 171.961C431.296 171.865 431.088 171.717 430.92 171.529C430.752 171.341 430.628 171.118 430.559 170.875C430.49 170.633 430.476 170.378 430.52 170.129C430.563 169.881 430.662 169.645 430.809 169.441C430.454 169.313 430.161 169.055 429.99 168.718C429.819 168.382 429.783 167.993 429.889 167.631C429.708 167.662 429.522 167.651 429.345 167.599C429.169 167.547 429.007 167.455 428.871 167.331C428.736 167.206 428.631 167.052 428.565 166.88C428.499 166.709 428.473 166.524 428.489 166.341C426.639 165.448 424.984 164.197 423.619 162.661C423.388 162.359 423.274 161.984 423.3 161.604C423.326 161.225 423.489 160.868 423.759 160.601C423.579 160.526 423.42 160.408 423.297 160.257C423.174 160.105 423.091 159.925 423.055 159.733C423.019 159.542 423.032 159.344 423.092 159.158C423.152 158.973 423.258 158.805 423.399 158.671C423.255 158.634 423.119 158.568 423 158.477C422.882 158.387 422.783 158.273 422.709 158.144C422.635 158.014 422.588 157.871 422.571 157.722C422.554 157.574 422.567 157.424 422.609 157.281C421.939 157.221 418.609 156.941 418.609 156.281C416.749 155.711 415.899 154.771 415.819 154.281C415.739 153.791 414.769 153.891 414.709 153.391C414.619 152.721 415.509 152.391 416.199 152.391C418.237 152.31 420.264 152.732 422.099 153.621C424.163 154.734 426.055 156.139 427.719 157.791L430.099 159.941C430.699 160.481 431.359 161.211 431.099 161.941C431.669 161.651 432.359 162.151 432.639 162.741C432.919 163.331 432.959 164.001 433.269 164.561C433.595 165.036 433.967 165.478 434.379 165.881C434.585 166.082 434.74 166.329 434.83 166.602C434.921 166.876 434.945 167.166 434.899 167.451C435.396 167.4 435.895 167.519 436.316 167.788C436.737 168.056 437.056 168.459 437.219 168.931C437.729 168.591 438.459 169.121 438.549 169.731C438.578 170.348 438.398 170.957 438.039 171.461" fill="#263238"/>
<path d="M418.998 170.09C418.971 169.66 418.971 169.229 418.998 168.8C419.121 167.826 419.518 166.906 420.143 166.149C420.768 165.391 421.595 164.826 422.528 164.52C423.401 164.238 424.333 164.197 425.228 164.4C425.71 164.497 426.172 164.673 426.598 164.92C427.052 165.161 427.465 165.475 427.818 165.85C428.573 166.634 429.058 167.639 429.202 168.719C429.346 169.798 429.141 170.895 428.618 171.85C428.378 172.303 428.067 172.715 427.698 173.07C427.346 173.414 426.945 173.704 426.508 173.93C425.695 174.356 424.784 174.56 423.868 174.52C423.07 174.48 422.292 174.254 421.598 173.86C420.58 173.292 419.783 172.397 419.338 171.32C419.187 170.922 419.063 170.514 418.968 170.1C418.954 170.209 418.954 170.32 418.968 170.43C418.988 170.562 419.018 170.692 419.058 170.82C419.096 171.002 419.153 171.18 419.228 171.35C419.652 172.468 420.451 173.404 421.488 174C422.201 174.418 423.003 174.661 423.828 174.71C424.777 174.757 425.722 174.553 426.568 174.12C427.027 173.884 427.448 173.581 427.818 173.22C428.217 172.852 428.554 172.424 428.818 171.95C429.365 170.957 429.578 169.815 429.427 168.691C429.276 167.568 428.768 166.523 427.978 165.71C427.613 165.308 427.184 164.97 426.708 164.71C426.258 164.457 425.773 164.274 425.268 164.17C424.337 163.974 423.37 164.029 422.468 164.33C421.511 164.65 420.667 165.24 420.035 166.027C419.404 166.814 419.013 167.766 418.908 168.77C418.908 168.98 418.908 169.17 418.908 169.33C418.895 169.463 418.895 169.597 418.908 169.73C418.921 169.853 418.952 169.974 418.998 170.09Z" fill="#455A64"/>
<path d="M404.161 169.36C404.134 168.933 404.134 168.506 404.161 168.08C404.312 166.909 404.854 165.823 405.701 165C406.265 164.442 406.949 164.021 407.701 163.77C408.573 163.485 409.505 163.44 410.401 163.64C410.883 163.735 411.346 163.911 411.771 164.16C412.225 164.402 412.637 164.716 412.991 165.09C413.746 165.874 414.231 166.879 414.375 167.958C414.519 169.038 414.314 170.135 413.791 171.09C413.551 171.543 413.24 171.954 412.871 172.31C412.522 172.657 412.12 172.947 411.681 173.17C410.868 173.596 409.957 173.8 409.041 173.76C408.244 173.723 407.466 173.501 406.771 173.11C405.754 172.536 404.958 171.638 404.511 170.56C404.36 170.162 404.236 169.754 404.141 169.34C404.125 169.449 404.125 169.56 404.141 169.67C404.153 169.806 404.18 169.94 404.221 170.07C404.26 170.248 404.317 170.422 404.391 170.59C404.814 171.711 405.612 172.651 406.651 173.25C407.42 173.695 408.288 173.938 409.177 173.957C410.065 173.977 410.943 173.771 411.731 173.36C412.19 173.124 412.612 172.821 412.981 172.46C413.382 172.094 413.72 171.665 413.981 171.19C414.528 170.197 414.741 169.055 414.59 167.931C414.439 166.808 413.931 165.763 413.141 164.95C412.773 164.551 412.345 164.213 411.871 163.95C411.421 163.696 410.936 163.514 410.431 163.41C409.5 163.214 408.533 163.269 407.631 163.57C406.672 163.889 405.827 164.48 405.197 165.269C404.567 166.059 404.179 167.014 404.081 168.02C404.067 168.203 404.067 168.387 404.081 168.57C404.069 168.706 404.069 168.843 404.081 168.98C404.089 169.11 404.116 169.238 404.161 169.36Z" fill="#455A64"/>
<path d="M404.598 165.37C405.106 164.615 405.795 164.001 406.602 163.581C407.409 163.162 408.309 162.952 409.218 162.97C411.332 163.133 413.296 164.121 414.688 165.72C416.24 165.3 417.889 165.427 419.358 166.08C419.965 165.298 420.745 164.667 421.637 164.239C422.529 163.81 423.509 163.595 424.498 163.61C427.448 163.61 429.628 166.55 429.628 166.55L431.958 166.89L431.728 168.97L429.108 168.65C429.108 168.65 428.018 164.85 424.798 164.65C420.468 164.37 419.728 167.57 419.728 167.57L418.728 167.45L419.058 166.84C417.732 166.355 416.288 166.299 414.928 166.68V167.42H414.198C413.833 166.395 413.152 165.511 412.254 164.897C411.356 164.282 410.286 163.968 409.198 164C408.001 163.985 406.84 164.411 405.937 165.197C405.033 165.982 404.45 167.072 404.298 168.26L402.578 168.07L402.638 166.02L404.598 165.37Z" fill="#455A64"/>
<path d="M424.406 173.93C424.735 174.009 425.078 174.009 425.406 173.93C426.173 173.78 426.887 173.432 427.477 172.919C428.066 172.407 428.511 171.748 428.766 171.01C428.894 170.717 428.956 170.4 428.946 170.08C428.946 170.08 428.846 170.43 428.616 170.96C428.331 171.65 427.889 172.263 427.325 172.751C426.76 173.239 426.09 173.588 425.366 173.77C424.766 173.88 424.406 173.9 424.406 173.93Z" fill="white"/>
<path d="M410.391 172.901C410.649 172.923 410.909 172.886 411.151 172.791C411.746 172.593 412.282 172.249 412.711 171.791C413.151 171.351 413.474 170.808 413.651 170.211C413.745 169.973 413.783 169.716 413.761 169.461C413.658 169.688 413.571 169.922 413.501 170.161C413.287 170.713 412.964 171.217 412.551 171.641C412.14 172.074 411.643 172.415 411.091 172.641C410.853 172.716 410.619 172.802 410.391 172.901Z" fill="white"/>
<path d="M423.188 260.48L451.487 251.36L449.647 244.96L466.217 238.34C468.567 244.95 470.308 249.24 470.948 254.22C470.948 254.52 471.017 254.82 471.027 255.12C471.168 258.442 470.064 261.698 467.932 264.25C465.8 266.802 462.792 268.467 459.497 268.92L425.367 271.2L423.188 260.48Z" fill="#FFBE9D"/>
<path d="M420.636 177.82C420.426 177.82 420.246 179.22 418.886 180.09C417.526 180.96 416.016 180.62 415.986 180.82C415.956 181.02 416.286 181.14 416.936 181.24C417.78 181.356 418.638 181.169 419.356 180.71C420.048 180.276 420.54 179.586 420.726 178.79C420.856 178.2 420.736 177.82 420.636 177.82Z" fill="#263238"/>
<path d="M300.057 170.426L276.984 268.334L399.45 297.193L422.522 199.285L300.057 170.426Z" fill="#FAFAFA"/>
<path d="M422.527 199.279C422.527 199.279 422.317 199.279 421.927 199.159L420.207 198.769L413.547 197.239L388.447 191.419L299.997 170.739L300.387 170.499C293.527 199.639 285.667 233.049 277.387 268.399L277.117 267.969L399.527 296.899L399.157 297.119C406.157 267.659 411.977 243.229 416.047 226.119C418.097 217.579 419.697 210.879 420.797 206.289C421.347 204.009 421.797 202.289 422.067 201.059C422.337 199.829 422.527 199.249 422.527 199.249C422.527 199.249 422.407 199.839 422.147 201.009C421.887 202.179 421.477 203.939 420.957 206.199C419.897 210.779 418.347 217.469 416.377 225.999C412.377 243.139 406.647 267.659 399.747 297.229L399.677 297.529L399.387 297.459L276.897 268.689L276.547 268.599L276.627 268.249C284.967 232.899 292.857 199.499 299.727 170.359L299.807 170.039L300.127 170.109L388.717 191.159L413.717 197.159L420.297 198.749L421.977 199.159L422.527 199.279Z" fill="#263238"/>
<path d="M302.49 178.999L282.266 264.291L395.736 291.196L415.96 205.904L302.49 178.999Z" fill="#455A64"/>
<path d="M282.656 263.16L334.966 219.34L351.756 258.43L372.656 244.57L396.526 290L282.656 263.16Z" fill="#455A64"/>
<path d="M371.593 221.089C371.173 222.861 370.237 224.469 368.904 225.709C367.57 226.949 365.899 227.765 364.101 228.056C362.304 228.346 360.46 228.098 358.804 227.341C357.148 226.584 355.753 225.353 354.796 223.804C353.839 222.255 353.363 220.456 353.428 218.637C353.492 216.817 354.095 215.057 355.16 213.58C356.224 212.102 357.703 210.974 359.409 210.336C361.114 209.699 362.971 209.582 364.743 209.999C365.922 210.277 367.034 210.784 368.016 211.492C368.998 212.199 369.831 213.094 370.468 214.124C371.104 215.154 371.531 216.299 371.724 217.495C371.917 218.69 371.873 219.911 371.593 221.089Z" fill="#455A64"/>
<g opacity="0.3">
<path d="M282.656 263.16L334.966 219.34L351.756 258.43L372.656 244.57L396.526 290L282.656 263.16Z" fill="black"/>
</g>
<g opacity="0.3">
<path d="M371.593 221.089C371.173 222.861 370.237 224.469 368.904 225.709C367.57 226.949 365.899 227.765 364.101 228.056C362.304 228.346 360.46 228.098 358.804 227.341C357.148 226.584 355.753 225.353 354.796 223.804C353.839 222.255 353.363 220.456 353.428 218.637C353.492 216.817 354.095 215.057 355.16 213.58C356.224 212.102 357.703 210.974 359.409 210.336C361.114 209.699 362.971 209.582 364.743 209.999C365.922 210.277 367.034 210.784 368.016 211.492C368.998 212.199 369.831 213.094 370.468 214.124C371.104 215.154 371.531 216.299 371.724 217.495C371.917 218.69 371.873 219.911 371.593 221.089Z" fill="black"/>
</g>
<path d="M351.264 183.11C351.684 182.378 351.937 181.562 352.004 180.72C352.023 180.3 351.915 179.885 351.694 179.528C351.472 179.171 351.148 178.889 350.764 178.72C350.387 178.641 349.999 178.638 349.622 178.71C349.244 178.782 348.884 178.928 348.564 179.14C347.917 179.563 347.166 179.799 346.394 179.82C345.839 179.682 345.291 179.515 344.754 179.32C344.194 179.2 343.474 179.39 343.334 179.94C343.302 180.131 343.327 180.328 343.405 180.505C343.483 180.683 343.611 180.834 343.774 180.94C344.094 181.144 344.45 181.283 344.824 181.35L351.554 182.98" fill="#FFBE9D"/>
<path d="M332.203 176C332.203 176 333.803 181.13 334.563 181.25C335.195 181.241 335.81 181.039 336.323 180.67C336.323 180.67 336.033 185.45 339.143 186.05C339.143 186.05 339.713 187.51 340.773 187.61C341.833 187.71 342.023 186.38 342.023 186.38C342.023 186.38 343.743 188.38 344.373 186.17C344.895 183.783 345.259 181.364 345.463 178.93C345.463 178.93 344.833 176.66 343.873 176.93C343.331 177.038 342.835 177.31 342.453 177.71C341.919 176.968 341.239 176.345 340.453 175.88C340.171 175.732 339.845 175.689 339.534 175.759C339.222 175.828 338.946 176.006 338.753 176.26C338.753 176.26 337.313 174.04 336.423 174.69C335.533 175.34 335.963 175.95 335.963 175.95C335.963 175.95 334.093 174.52 333.293 174.89C332.817 175.129 332.434 175.519 332.203 176Z" fill="#FFBE9D"/>
<path d="M341.994 186.339C342.286 184.894 342.434 183.424 342.434 181.949C342.576 180.479 342.576 178.999 342.434 177.529C342.149 178.975 342.005 180.445 342.004 181.919C341.856 183.389 341.853 184.869 341.994 186.339Z" fill="#EB996E"/>
<path d="M336.323 180.629C336.524 179.849 336.582 179.04 336.493 178.239C336.549 177.425 336.398 176.609 336.053 175.869C335.961 176.66 335.961 177.458 336.053 178.249C335.999 179.052 336.091 179.859 336.323 180.629Z" fill="#EB996E"/>
<path d="M339.185 186.049C339.333 184.386 339.333 182.713 339.185 181.049C339.196 179.397 339.059 177.747 338.775 176.119C338.627 177.783 338.627 179.456 338.775 181.119C338.764 182.771 338.901 184.421 339.185 186.049Z" fill="#EB996E"/>
<path d="M423.188 260.479L410.998 255.689L393.508 259.589C393.759 260.202 394.181 260.73 394.723 261.109C395.266 261.489 395.906 261.704 396.568 261.729C399.028 261.989 405.478 260.729 405.478 260.729L394.968 264.329C394.968 264.329 396.968 266.439 399.328 265.919C401.688 265.399 407.578 264.179 407.578 264.179L400.518 267.869C400.837 268.423 401.324 268.86 401.909 269.117C402.493 269.374 403.144 269.438 403.768 269.299C406.238 269.039 410.658 267.019 410.658 267.019C410.658 267.019 419.728 271.169 422.568 271.169C425.408 271.169 426.568 271.089 426.568 271.089L423.188 260.479Z" fill="#FFBE9D"/>
<path d="M409.994 255.9C410.074 255.9 397.214 255.25 397.214 255.25C397.111 255.558 397.117 255.893 397.231 256.197C397.346 256.502 397.563 256.757 397.844 256.92C398.844 257.71 402.844 258.19 402.844 258.19L409.994 255.9Z" fill="#FFBE9D"/>
<path d="M410.236 255.65C409.461 255.982 408.653 256.234 407.826 256.4C406.316 256.79 404.226 257.31 401.906 257.85C399.586 258.39 397.486 258.85 395.906 259.15C395.089 259.369 394.251 259.5 393.406 259.54C394.186 259.21 394.996 258.958 395.826 258.79C397.336 258.39 399.426 257.88 401.736 257.34C404.046 256.8 406.156 256.34 407.686 256.04C408.52 255.818 409.375 255.687 410.236 255.65Z" fill="#EB996E"/>
<path d="M410.267 260.31C410.267 260.46 409.037 260.31 407.587 260.5C406.137 260.69 404.997 261.11 404.938 260.97C405.705 260.434 406.592 260.094 407.521 259.979C408.45 259.864 409.392 259.978 410.267 260.31Z" fill="#EB996E"/>
<path d="M411.765 264.35C411.098 264.09 410.404 263.908 409.695 263.81C408.982 263.859 408.278 263.99 407.595 264.2C407.545 264.15 407.705 263.92 408.075 263.69C408.572 263.403 409.141 263.264 409.715 263.29C410.288 263.303 410.844 263.484 411.315 263.81C411.665 264.06 411.805 264.3 411.765 264.35Z" fill="#EB996E"/>
<path d="M62.543 401.8C63.9203 402.359 65.17 403.192 66.2167 404.247C67.2634 405.302 68.0854 406.559 68.633 407.94C69.7241 410.717 70.1587 413.708 69.903 416.68C69.593 422.41 66.693 428.35 63.463 433.1C58.463 429.19 56.903 421.95 56.353 418.23C55.503 412.35 57.513 401.23 62.543 401.8Z" fill="#FE6100"/>
<path d="M69.5917 442.18C69.1681 440.571 69.1782 438.879 69.6208 437.275C70.0634 435.672 70.9229 434.214 72.1117 433.05C73.3113 431.914 74.7244 431.026 76.2692 430.439C77.814 429.852 79.4599 429.577 81.1117 429.63C81.8791 429.576 82.649 429.691 83.3675 429.965C84.0861 430.24 84.736 430.668 85.2717 431.22C85.6824 431.809 85.927 432.498 85.9798 433.214C86.0326 433.93 85.8916 434.647 85.5717 435.29C84.9172 436.574 83.9338 437.661 82.7217 438.44C78.7217 441.29 74.3217 443.31 69.5417 442.18" fill="#FE6100"/>
<path d="M64.4534 460C64.45 459.604 64.4835 459.209 64.5534 458.82C64.6534 457.99 64.7934 456.91 64.9534 455.62C65.2784 452.067 66.1837 448.591 67.6334 445.33C69.1368 442.064 71.4841 439.257 74.4334 437.2C75.3345 436.6 76.3006 436.103 77.3134 435.72C77.6734 435.58 77.9634 435.52 78.1534 435.46C78.3434 435.4 78.4534 435.38 78.4534 435.4C77.1049 435.933 75.8147 436.603 74.6034 437.4C71.7576 439.49 69.4871 442.266 68.0034 445.47C66.5846 448.698 65.6544 452.118 65.2434 455.62C65.0234 456.97 64.8534 458.05 64.7134 458.8C64.6586 459.206 64.5716 459.608 64.4534 460Z" fill="#263238"/>
<path d="M61.75 410.42C61.8038 410.585 61.8341 410.757 61.84 410.93C61.84 411.31 61.94 411.79 62.01 412.39C62.16 413.66 62.34 415.51 62.54 417.78C62.96 422.34 63.44 428.64 63.81 435.61C64.18 442.58 64.38 448.9 64.46 453.47C64.46 455.76 64.51 457.61 64.51 458.89C64.51 459.49 64.51 459.98 64.51 460.36C64.5298 460.529 64.5298 460.7 64.51 460.87C64.4948 460.7 64.4948 460.53 64.51 460.36C64.51 459.98 64.49 459.49 64.45 458.89C64.45 457.56 64.34 455.72 64.26 453.48C64.11 448.91 63.87 442.6 63.5 435.63C63.13 428.66 62.69 422.37 62.35 417.81C62.19 415.57 62.05 413.73 61.95 412.41C61.95 411.8 61.88 411.32 61.86 410.94C61.8076 410.77 61.7708 410.596 61.75 410.42Z" fill="#263238"/>
<path d="M61.4914 446.13C60.7086 442.708 59.1208 439.522 56.8598 436.837C54.5989 434.152 51.73 432.044 48.4914 430.69C46.8514 430.01 44.7214 429.63 43.4914 430.9C42.2614 432.17 42.6614 434.3 43.4014 435.9C45.0096 439.26 47.578 442.069 50.7819 443.97C53.9857 445.871 57.6813 446.779 61.4014 446.58" fill="#FE6100"/>
<path d="M49.6098 436C49.9531 436.103 50.2875 436.233 50.6098 436.39C51.0159 436.545 51.4103 436.728 51.7898 436.94C52.3122 437.187 52.8197 437.464 53.3098 437.77C53.9314 438.147 54.5323 438.558 55.1098 439C55.7647 439.464 56.3955 439.962 56.9998 440.49C58.3626 441.735 59.5834 443.127 60.6398 444.64C61.6613 446.181 62.5066 447.831 63.1598 449.56C63.4337 450.317 63.6673 451.088 63.8598 451.87C64.0598 452.6 64.1598 453.3 64.2698 453.93C64.3798 454.56 64.3998 455.15 64.4498 455.65C64.4783 456.086 64.4783 456.524 64.4498 456.96C64.4682 457.331 64.4481 457.703 64.3898 458.07C64.2998 458.07 64.3898 456.48 63.9498 453.98C63.8337 453.305 63.6802 452.638 63.4898 451.98C63.2914 451.211 63.051 450.453 62.7698 449.71C62.1101 448.02 61.2685 446.408 60.2598 444.9C59.2232 443.41 58.0334 442.032 56.7098 440.79C56.1282 440.25 55.5173 439.743 54.8798 439.27C54.2998 438.8 53.7098 438.43 53.1898 438.08C51.0598 436.7 49.5798 436.13 49.6098 436Z" fill="#263238"/>
<g clip-path="url(#clip0_25202_23401)">
<path d="M249.5 430C279.045 430 303 406.045 303 376.5C303 346.955 279.045 323 249.5 323C219.955 323 196 346.955 196 376.5C196 406.045 219.955 430 249.5 430ZM249.5 336.375C262.815 336.375 276.25 343.999 276.25 361.039C276.25 370.956 271.335 378.7 261.644 384.03C258.836 385.575 256.188 388.631 256.188 389.875C256.188 391.649 255.483 393.35 254.229 394.604C252.975 395.858 251.274 396.562 249.5 396.562C247.726 396.562 246.025 395.858 244.771 394.604C243.517 393.35 242.812 391.649 242.812 389.875C242.812 381.389 250.597 374.842 255.198 372.314C261.959 368.582 262.875 364.516 262.875 361.039C262.875 351.215 254.496 349.75 249.5 349.75C243.06 349.75 236.125 353.976 236.125 363.265C236.125 365.039 235.42 366.74 234.166 367.994C232.912 369.248 231.211 369.953 229.438 369.953C227.664 369.953 225.963 369.248 224.709 367.994C223.455 366.74 222.75 365.039 222.75 363.265C222.75 345.798 236.533 336.375 249.5 336.375ZM249.5 416.919C247.673 416.919 245.921 416.194 244.629 414.902C243.338 413.61 242.612 411.858 242.612 410.031C242.612 408.204 243.338 406.452 244.629 405.16C245.921 403.869 247.673 403.143 249.5 403.143C251.327 403.143 253.079 403.869 254.371 405.16C255.662 406.452 256.388 408.204 256.388 410.031C256.388 411.858 255.662 413.61 254.371 414.902C253.079 416.194 251.327 416.919 249.5 416.919Z" fill="white"/>
</g>
<defs>
<clipPath id="clip0_25202_23401">
<rect width="107" height="107" fill="white" transform="translate(196 323)"/>
</clipPath>
</defs>
</svg>
