<svg width="622" height="415" viewBox="0 0 622 415" fill="none" xmlns="http://www.w3.org/2000/svg">
<path d="M553.124 124.724L545.187 163.194L540.078 158.206L531.387 164.414L524.744 156.156L509.849 166.996L497.119 145.689L482.921 154.014L477.29 146.246L459.26 156.413L453.836 144.785L466.475 83.5225L534.232 97.5246L553.124 124.724Z" fill="white"/>
<path d="M534.236 97.5254L553.128 124.724L529.625 119.869L534.236 97.5254Z" fill="#DBDBDB"/>
<path d="M543.497 170.881L531.862 227.321L440.594 208.463L452.146 152.479L457.57 164.099L475.608 153.932L481.231 161.701L495.438 153.384L508.16 174.69L523.063 163.85L529.697 172.101L538.397 165.901L543.497 170.881Z" fill="white"/>
<path d="M412.868 164.265L319.858 170.025L312.469 50.5387L381.536 46.2559L406.888 67.5454L412.868 164.265Z" fill="white"/>
<path d="M381.539 46.2559L406.892 67.5454L382.941 69.0311L381.539 46.2559Z" fill="#DBDBDB"/>
<path d="M355.782 126.658L355.417 123.96C354.48 118.375 356.006 112.125 360.858 105.593C365.237 99.7826 367.608 95.6326 367.343 90.9182C367.045 85.6062 363.52 82.253 356.96 82.5186C353.211 82.7134 349.61 84.0451 346.635 86.3366L343.773 79.9207C347.091 77.2232 352.896 75.2312 358.411 74.9407C370.378 74.2767 376.2 81.3649 376.657 89.2748C377.055 96.3547 373.389 101.675 368.728 107.892C364.449 113.561 363.047 118.233 363.653 123.521L363.91 126.226L355.782 126.658ZM354.306 141.357C354.09 137.506 356.537 134.651 360.178 134.452C363.818 134.252 366.472 136.809 366.688 140.668C366.887 144.312 364.656 147.25 360.808 147.466C357.134 147.674 354.48 145.001 354.273 141.357H354.306Z" fill="#DBDBDB"/>
<path d="M123.137 106.331L113.783 102.09L112.481 104.953C112.288 105.363 111.988 105.712 111.613 105.963C111.237 106.215 110.8 106.359 110.349 106.381C109.835 106.398 109.323 106.448 108.815 106.53C108.369 106.597 107.914 106.54 107.498 106.368C107.081 106.195 106.72 105.913 106.451 105.551L104.618 102.986L96.2671 108.979L98.0999 111.544C98.3548 111.914 98.5049 112.346 98.5341 112.795C98.5633 113.243 98.4706 113.691 98.2658 114.092C98.0293 114.548 97.8162 115.016 97.6272 115.494C97.4629 115.916 97.1869 116.285 96.829 116.561C96.471 116.837 96.0445 117.011 95.5953 117.063L92.4688 117.37L93.4722 127.604L96.6154 127.289C97.0662 127.253 97.5182 127.34 97.923 127.542C98.3278 127.744 98.6699 128.052 98.9127 128.434C99.0454 128.65 99.1863 128.857 99.3356 129.065C99.4849 129.272 99.6342 129.472 99.7918 129.671C100.078 130.019 100.262 130.44 100.323 130.887C100.385 131.334 100.321 131.789 100.14 132.202L98.8297 135.091L108.193 139.34L109.495 136.46C109.689 136.051 109.991 135.703 110.368 135.453C110.745 135.203 111.183 135.06 111.635 135.041C112.143 135.02 112.65 134.97 113.152 134.891C113.598 134.825 114.053 134.881 114.47 135.054C114.886 135.226 115.247 135.509 115.516 135.871L117.349 138.436L125.708 132.443L123.876 129.878C123.613 129.511 123.458 129.078 123.429 128.628C123.399 128.178 123.497 127.728 123.71 127.33C123.941 126.876 124.148 126.411 124.332 125.936C124.491 125.511 124.766 125.139 125.125 124.862C125.484 124.585 125.913 124.414 126.364 124.367L129.507 124.052L128.495 113.818L125.352 114.125C124.904 114.164 124.454 114.079 124.051 113.878C123.649 113.677 123.31 113.369 123.071 112.988C122.93 112.772 122.789 112.564 122.64 112.357C122.491 112.149 122.341 111.942 122.184 111.751C121.899 111.398 121.717 110.975 121.655 110.525C121.594 110.076 121.656 109.619 121.835 109.203L123.137 106.331ZM117.83 115.801C118.8 117.156 119.346 118.768 119.401 120.433C119.455 122.099 119.015 123.743 118.135 125.158C117.256 126.573 115.977 127.695 114.461 128.383C112.944 129.07 111.258 129.292 109.615 129.02C107.972 128.749 106.447 127.996 105.232 126.856C104.017 125.717 103.167 124.243 102.789 122.62C102.411 120.997 102.523 119.298 103.11 117.739C103.697 116.18 104.733 114.829 106.086 113.859C107.901 112.559 110.158 112.033 112.36 112.397C114.562 112.761 116.53 113.986 117.83 115.801Z" fill="#C6C6C6"/>
<path d="M546.016 242.119L539.779 245.721L540.882 247.63C541.047 247.904 541.129 248.22 541.119 248.539C541.109 248.859 541.006 249.169 540.824 249.431C540.634 249.73 540.451 250.037 540.285 250.361C540.149 250.647 539.934 250.889 539.665 251.056C539.396 251.224 539.084 251.311 538.768 251.307H536.578V258.52H538.784C539.101 258.516 539.412 258.603 539.681 258.771C539.95 258.939 540.166 259.18 540.302 259.466C540.468 259.79 540.65 260.097 540.841 260.396C541.023 260.659 541.125 260.968 541.135 261.288C541.146 261.607 541.064 261.923 540.899 262.197L539.796 264.106L546.033 267.708L547.144 265.791C547.305 265.519 547.538 265.297 547.818 265.151C548.098 265.004 548.413 264.938 548.728 264.961H549.789C550.104 264.939 550.419 265.005 550.699 265.152C550.978 265.298 551.212 265.519 551.373 265.791L552.485 267.716L558.713 264.114L557.61 262.197C557.453 261.921 557.376 261.608 557.388 261.291C557.4 260.974 557.5 260.667 557.676 260.404C557.867 260.105 558.05 259.79 558.215 259.474C558.352 259.188 558.567 258.947 558.836 258.779C559.105 258.611 559.416 258.524 559.733 258.528H561.939V251.316H559.717C559.4 251.319 559.088 251.232 558.819 251.065C558.55 250.897 558.335 250.656 558.199 250.369C558.033 250.054 557.851 249.739 557.66 249.44C557.483 249.177 557.383 248.87 557.371 248.553C557.36 248.236 557.437 247.922 557.593 247.647L558.696 245.73L552.468 242.127L551.357 244.02C551.196 244.292 550.962 244.513 550.683 244.66C550.403 244.807 550.088 244.872 549.773 244.85H549.242H548.711C548.395 244.871 548.08 244.805 547.799 244.659C547.518 244.512 547.283 244.291 547.119 244.02L546.016 242.119ZM549.242 249.008C550.411 249.007 551.553 249.352 552.526 250.001C553.498 250.649 554.256 251.572 554.704 252.652C555.152 253.733 555.27 254.921 555.042 256.069C554.815 257.216 554.252 258.269 553.426 259.096C552.599 259.923 551.546 260.486 550.4 260.714C549.254 260.942 548.066 260.824 546.987 260.376C545.907 259.928 544.985 259.169 544.337 258.196C543.689 257.223 543.344 256.079 543.345 254.909C543.344 254.134 543.496 253.366 543.792 252.649C544.088 251.932 544.522 251.28 545.07 250.731C545.617 250.182 546.268 249.747 546.984 249.45C547.7 249.153 548.467 249 549.242 249V249.008Z" fill="#C6C6C6"/>
<path d="M142.062 75.6625L136.348 80.0449L137.667 81.7962C137.863 82.0458 137.984 82.3466 138.015 82.6629C138.046 82.9792 137.985 83.2978 137.841 83.5807C137.682 83.9038 137.543 84.2364 137.426 84.5767C137.324 84.8765 137.14 85.1417 136.895 85.3426C136.651 85.5435 136.355 85.6721 136.041 85.7138L133.852 85.996L134.78 93.1423L136.97 92.8601C137.289 92.8157 137.613 92.8622 137.907 92.9943C138.2 93.1265 138.45 93.3389 138.629 93.6071C138.828 93.8959 139.044 94.173 139.275 94.4371C139.489 94.6723 139.631 94.9639 139.684 95.2773C139.737 95.5907 139.699 95.9127 139.574 96.205L138.745 98.2468L145.379 101.011L146.209 98.9689C146.332 98.676 146.535 98.4236 146.794 98.2402C147.054 98.0568 147.359 97.9499 147.677 97.9314L148.207 97.8733L148.73 97.7903C149.037 97.7324 149.354 97.7599 149.646 97.8696C149.938 97.9794 150.195 98.1672 150.388 98.4128L151.74 100.181L157.454 95.7983L156.119 94.047C155.926 93.794 155.808 93.4922 155.777 93.1754C155.746 92.8587 155.804 92.5397 155.945 92.2542C156.102 91.9333 156.241 91.6035 156.36 91.2665C156.462 90.9668 156.646 90.7015 156.89 90.5006C157.135 90.2997 157.431 90.1712 157.745 90.1294L159.934 89.8472L159.005 82.7009L156.816 82.9831C156.498 83.0284 156.174 82.9832 155.88 82.8525C155.587 82.7219 155.336 82.5111 155.157 82.2444C154.95 81.9456 154.734 81.6634 154.502 81.4144C154.309 81.1742 154.184 80.8864 154.14 80.5812C154.096 80.276 154.135 79.9646 154.253 79.6797L155.083 77.6379L148.448 74.874L147.619 76.9158C147.493 77.2076 147.29 77.459 147.031 77.6422C146.772 77.8253 146.467 77.933 146.151 77.9533L145.62 78.0031L145.131 78.0197C144.824 78.0776 144.507 78.0502 144.214 77.9404C143.922 77.8307 143.665 77.6428 143.472 77.3972L142.062 75.6625ZM146.151 82.0784C147.306 81.9298 148.479 82.1269 149.523 82.6449C150.566 83.1629 151.433 83.9786 152.014 84.989C152.594 85.9994 152.863 87.1594 152.786 88.3225C152.709 89.4856 152.289 90.5998 151.58 91.5246C150.871 92.4493 149.904 93.1431 148.801 93.5185C147.699 93.8939 146.509 93.934 145.384 93.6339C144.259 93.3337 143.247 92.7067 142.477 91.8319C141.707 90.9571 141.214 89.8737 141.058 88.7184C140.955 87.9475 141.005 87.1636 141.205 86.412C141.405 85.6603 141.751 84.9557 142.225 84.3386C142.698 83.7215 143.288 83.2041 143.962 82.8162C144.636 82.4283 145.38 82.1776 146.151 82.0784Z" fill="#C6C6C6"/>
<path d="M99.3725 262.927C99.684 254.903 99.5733 246.869 99.0407 238.857C97.8541 222.313 95.333 205.892 91.5021 189.754C89.3956 180.674 86.8081 171.743 84.1044 162.821C84.0215 162.547 83.5902 162.621 83.6649 162.904C92.0163 194.361 98.8666 226.814 98.3939 259.516C98.2612 268.646 97.1996 277.651 96.3371 286.748C96.3371 286.989 96.7103 287.088 96.7684 286.839C98.4851 279.029 99.049 270.878 99.3725 262.927Z" fill="#EBEBEB"/>
<path d="M83.661 162.879C83.661 162.879 71.022 195 73.85 202.52C76.678 210.04 82.5165 211.65 82.5165 211.65C82.5165 211.65 74.7789 222.705 80.1861 233.072C85.5934 243.439 97.6021 242.949 98.4315 254.702C98.4066 254.76 99.07 205.616 83.661 162.879Z" fill="#C6C6C6"/>
<path d="M97.0319 234.467C97.0523 234.413 97.0523 234.354 97.0319 234.301C95.3731 212.371 91.2615 190.697 84.7744 169.685C84.7744 169.627 84.65 169.644 84.6666 169.685C87.1711 179.092 89.3827 188.537 91.3012 198.021C89.602 196.41 87.5262 195.252 85.2637 194.651C85.2637 194.651 85.1973 194.701 85.2637 194.718C87.6405 195.59 89.7776 197.012 91.5003 198.868C91.8652 200.735 92.2301 202.595 92.5701 204.462C89.7421 201.3 85.8276 199.731 81.9049 198.237C81.896 198.241 81.8884 198.247 81.8831 198.255C81.8778 198.264 81.875 198.273 81.875 198.283C81.875 198.292 81.8778 198.302 81.8831 198.31C81.8884 198.318 81.896 198.324 81.9049 198.328C85.9935 199.988 90.0572 202.13 92.8272 205.657C93.7892 210.986 94.6351 216.334 95.365 221.701C93.323 219.56 90.7043 218.058 87.8263 217.377C87.7351 217.377 87.6853 217.485 87.7766 217.51C90.7329 218.381 93.3723 220.094 95.3732 222.44H95.423C95.6718 224.321 95.9096 226.211 96.1362 228.109C94.5566 226.771 92.7731 225.695 90.8534 224.922C90.8036 224.922 90.7705 224.98 90.8534 224.996C92.8124 225.846 94.6064 227.034 96.1528 228.507C96.1528 228.507 96.1943 228.507 96.2192 228.507C96.4265 230.308 96.6338 232.109 96.8163 233.91C93.9685 230.465 90.2726 227.822 86.093 226.241C86.0754 226.241 86.0585 226.248 86.0461 226.261C86.0337 226.273 86.0267 226.29 86.0267 226.308C86.0267 226.325 86.0337 226.342 86.0461 226.355C86.0585 226.367 86.0754 226.374 86.093 226.374C90.2201 228.195 93.8453 230.988 96.6587 234.516C96.6897 234.555 96.7315 234.584 96.7787 234.598C96.826 234.613 96.8766 234.614 96.9241 234.599C97.1978 237.363 97.4466 240.127 97.6456 242.899C97.6456 242.941 97.712 242.941 97.712 242.899C97.4963 240.116 97.2697 237.305 97.0319 234.467Z" fill="white"/>
<path d="M86.873 191.489C84.584 190.063 81.9692 189.246 79.2763 189.115C79.2631 189.115 79.2505 189.12 79.2411 189.13C79.2318 189.139 79.2266 189.152 79.2266 189.165C79.2266 189.178 79.2318 189.191 79.2411 189.2C79.2505 189.21 79.2631 189.215 79.2763 189.215C81.8798 189.709 84.4064 190.546 86.7901 191.705C86.8896 191.73 86.9642 191.555 86.873 191.489Z" fill="white"/>
<path d="M88.4072 225.494C86.6479 224.484 84.7107 223.822 82.7014 223.544C82.635 223.544 82.6267 223.635 82.7014 223.652C84.6635 224.046 86.5615 224.711 88.3408 225.627C88.4155 225.669 88.4818 225.536 88.4072 225.494Z" fill="white"/>
<path d="M132.611 203.077C127.264 206.775 122.354 211.069 117.973 215.875C113.456 220.964 109.972 226.884 107.715 233.305C102.911 246.683 100.328 260.758 100.068 274.971C99.907 282.842 100.661 290.705 102.316 298.402C102.329 298.458 102.363 298.507 102.412 298.538C102.46 298.569 102.518 298.581 102.575 298.57C102.631 298.559 102.682 298.527 102.715 298.481C102.749 298.434 102.763 298.376 102.755 298.319C100.697 284.737 100.775 270.916 102.987 257.359C105.16 244.079 108.569 229.62 117.011 218.822C121.606 212.937 127.337 208.314 133.001 203.533C133.3 203.267 132.918 202.861 132.611 203.077Z" fill="#EBEBEB"/>
<path d="M101.93 265.392C104.973 260.465 108.55 255.889 112.595 251.747C118.923 245.414 124.247 240.915 125.076 236.732C125.906 232.549 118.74 229.461 118.74 229.461C118.74 229.461 127.49 231.038 129.887 227.361C132.283 223.685 133.436 202.387 133.436 202.387C133.436 202.387 117.513 213.766 110.09 229.719C102.668 245.671 101.93 265.392 101.93 265.392Z" fill="#EBEBEB"/>
<path d="M127.719 222.365C126.671 222.209 125.608 222.173 124.551 222.257C124.427 222.257 124.435 222.473 124.551 222.481C125.596 222.481 126.649 222.432 127.694 222.481C127.706 222.478 127.717 222.472 127.726 222.463C127.734 222.454 127.74 222.443 127.743 222.431C127.745 222.419 127.744 222.406 127.74 222.395C127.736 222.383 127.729 222.373 127.719 222.365Z" fill="white"/>
<path d="M116.285 243.024C114.603 243.059 112.941 243.39 111.375 244.004C111.375 244.004 111.375 244.087 111.375 244.079C113.034 243.688 114.634 243.531 116.276 243.249C116.298 243.239 116.316 243.224 116.329 243.205C116.342 243.185 116.35 243.162 116.351 243.139C116.352 243.116 116.346 243.093 116.334 243.072C116.323 243.052 116.305 243.035 116.285 243.024Z" fill="white"/>
<path d="M112.851 235.886C112.153 235.881 111.456 235.942 110.77 236.069C110.757 236.073 110.746 236.082 110.738 236.093C110.731 236.104 110.727 236.117 110.727 236.131C110.727 236.144 110.731 236.158 110.738 236.169C110.746 236.18 110.757 236.188 110.77 236.193C111.465 236.233 112.162 236.203 112.851 236.102C112.88 236.102 112.907 236.091 112.928 236.07C112.948 236.05 112.959 236.023 112.959 235.994C112.959 235.965 112.948 235.938 112.928 235.918C112.907 235.897 112.88 235.886 112.851 235.886Z" fill="white"/>
<path d="M55.2434 225.668C60.426 227.427 65.3924 229.769 70.047 232.649C74.8765 235.72 79.0646 239.7 82.3791 244.368C89.353 254.084 94.6925 264.875 98.1862 276.315C100.135 282.649 101.337 289.19 101.769 295.803C101.76 295.846 101.736 295.885 101.702 295.912C101.668 295.94 101.626 295.955 101.582 295.955C101.539 295.955 101.496 295.94 101.462 295.912C101.428 295.885 101.405 295.846 101.396 295.803C99.9318 284.336 96.6801 273.17 91.7589 262.711C86.9239 252.461 80.8283 241.555 71.5066 234.765C66.4311 231.072 60.7252 228.648 55.036 226.092C54.7375 225.992 54.9448 225.569 55.2434 225.668Z" fill="#EBEBEB"/>
<path d="M94.4704 269.003C90.8673 265.722 86.9154 262.847 82.6856 260.429C76.1006 256.769 70.7514 254.362 69.1177 251.166C67.4839 247.971 72.5677 243.821 72.5677 243.821C72.5677 243.821 65.8501 247.141 63.0635 244.692C60.277 242.244 54.4219 225.312 54.4219 225.312C54.4219 225.312 69.9387 230.831 79.617 242.028C89.2953 253.224 94.4704 269.003 94.4704 269.003Z" fill="#C6C6C6"/>
<path d="M81.5897 253.416C80.0641 253.309 78.5323 253.498 77.0781 253.972C77.0781 253.972 77.0781 254.046 77.0781 254.038C78.5617 253.783 80.0606 253.628 81.5648 253.573C81.6726 253.573 81.6975 253.424 81.5897 253.416Z" fill="white"/>
<path d="M68.0584 235.653C67.3625 235.596 66.6621 235.635 65.9768 235.769C65.9022 235.769 65.927 235.902 65.9768 235.894C66.6651 235.819 67.3369 235.844 68.017 235.828C68.0381 235.828 68.0588 235.822 68.0757 235.809C68.0925 235.796 68.1044 235.778 68.1093 235.757C68.1142 235.737 68.1118 235.715 68.1025 235.696C68.0932 235.677 68.0777 235.662 68.0584 235.653Z" fill="white"/>
<path d="M114.484 317.21H79.4609L84.4535 280.598L85.7307 271.211H108.214L109.491 280.598L114.484 317.21Z" fill="#73787E"/>
<path d="M109.491 280.598H84.4531L85.7303 271.211H108.214L109.491 280.598Z" fill="#034EA2"/>
<path d="M111.418 267.957H82.5078V275.908H111.418V267.957Z" fill="#DBDBDB"/>
<path d="M57.1875 317.209L120.225 317.01L183.263 316.935L309.338 316.794L435.413 316.935L498.451 317.01L561.488 317.209L498.451 317.416L435.413 317.483L309.338 317.624L183.263 317.483L120.225 317.408L57.1875 317.209Z" fill="#263238"/>
<path d="M310.998 379.069C442.333 379.069 548.801 367.394 548.801 352.991C548.801 338.588 442.333 326.912 310.998 326.912C179.663 326.912 73.1953 338.588 73.1953 352.991C73.1953 367.394 179.663 379.069 310.998 379.069Z" fill="#EBEBEB"/>
<path d="M477.963 358.602H225.281L261.813 151.227H514.495L477.963 358.602Z" fill="#034EA2"/>
<path d="M348.295 129.746H265.603L261.812 151.226H350.311L348.295 129.746Z" fill="#034EA2"/>
<g opacity="0.1">
<path d="M477.963 358.602H225.281L261.813 151.227H514.495L477.963 358.602Z" fill="black"/>
<path d="M348.295 129.746H265.603L261.812 151.226H350.311L348.295 129.746Z" fill="black"/>
</g>
<path d="M256.68 138.511C256.127 136.136 256.127 133.665 256.68 131.29C257.233 133.665 257.233 136.136 256.68 138.511Z" fill="#263238"/>
<path d="M249.327 140.636C248.482 139.76 247.755 138.778 247.162 137.715C246.541 136.673 246.053 135.558 245.711 134.395C246.558 135.266 247.286 136.245 247.876 137.308C248.496 138.353 248.983 139.471 249.327 140.636Z" fill="#263238"/>
<path d="M244.018 146.155C241.688 145.446 239.551 144.211 237.773 142.545C238.936 142.883 240.051 143.368 241.091 143.989C242.153 144.586 243.137 145.314 244.018 146.155Z" fill="#263238"/>
<path d="M242.161 153.592C239.787 154.145 237.319 154.145 234.945 153.592C237.319 153.038 239.787 153.038 242.161 153.592Z" fill="#263238"/>
<path d="M244.323 160.945C243.443 161.786 242.463 162.514 241.403 163.112C240.363 163.732 239.249 164.218 238.086 164.556C238.962 163.711 239.943 162.983 241.005 162.39C242.044 161.766 243.159 161.28 244.323 160.945Z" fill="#263238"/>
<path d="M249.826 166.249C249.12 168.585 247.886 170.726 246.219 172.507C246.556 171.342 247.044 170.226 247.67 169.187C248.261 168.12 248.986 167.133 249.826 166.249Z" fill="#263238"/>
<path d="M257.261 168.084C257.55 169.265 257.689 170.478 257.675 171.694C257.693 172.911 257.554 174.124 257.261 175.305C256.963 174.125 256.824 172.911 256.846 171.694C256.832 170.478 256.972 169.265 257.261 168.084Z" fill="#263238"/>
<path d="M264.602 166C265.446 166.876 266.174 167.858 266.766 168.922C267.389 169.961 267.874 171.077 268.209 172.242C266.542 170.461 265.308 168.319 264.602 165.983V166Z" fill="#263238"/>
<path d="M269.906 160.439C271.07 160.775 272.185 161.26 273.224 161.884C274.286 162.477 275.267 163.205 276.143 164.05C274.979 163.715 273.864 163.229 272.825 162.606C271.763 162.013 270.782 161.285 269.906 160.439Z" fill="#263238"/>
<path d="M271.734 153.003C274.11 152.45 276.582 152.45 278.958 153.003C276.582 153.556 274.11 153.556 271.734 153.003Z" fill="#263238"/>
<path d="M269.618 145.649C270.496 144.809 271.477 144.083 272.537 143.491C273.574 142.861 274.689 142.372 275.855 142.038C274.075 143.707 271.935 144.942 269.602 145.649H269.618Z" fill="#263238"/>
<path d="M264.102 140.345C264.443 139.183 264.928 138.068 265.545 137.025C266.137 135.962 266.865 134.98 267.709 134.104C267.374 135.268 266.889 136.384 266.266 137.424C265.674 138.487 264.946 139.469 264.102 140.345Z" fill="#263238"/>
<path d="M477.586 358.602H224.366L188.406 158.755H441.635L477.586 358.602Z" fill="#034EA2"/>
<path d="M276.157 280.922C281.969 280.922 286.681 276.206 286.681 270.389C286.681 264.572 281.969 259.856 276.157 259.856C270.345 259.856 265.633 264.572 265.633 270.389C265.633 276.206 270.345 280.922 276.157 280.922Z" fill="white"/>
<path d="M359.36 280.922C365.173 280.922 369.884 276.206 369.884 270.389C369.884 264.572 365.173 259.856 359.36 259.856C353.548 259.856 348.836 264.572 348.836 270.389C348.836 276.206 353.548 280.922 359.36 280.922Z" fill="white"/>
<path d="M332.876 282.608L332.296 281.504C332.246 281.404 326.806 271.344 315.867 271.344C305.915 271.344 303.427 280.815 303.36 281.221L303.062 282.425L300.648 281.844L300.939 280.632C300.939 280.516 303.908 268.854 315.867 268.854C328.307 268.854 334.253 279.877 334.502 280.35L335.082 281.446L332.876 282.608Z" fill="white"/>
<path d="M460.869 269.584L460.695 268.754C461.234 268.638 461.765 268.513 462.296 268.372L462.503 269.202C461.939 269.343 461.417 269.468 460.869 269.584Z" fill="#263238"/>
<path d="M465.714 268.248L465.449 267.467C466.485 267.111 467.522 266.72 468.526 266.297L468.849 267.061C467.829 267.492 466.776 267.891 465.714 268.248ZM471.893 265.6L471.52 264.87C472.49 264.363 473.46 263.815 474.381 263.21L474.812 263.915C473.867 264.571 472.88 265.127 471.893 265.6ZM477.599 262.089L477.109 261.417C478.005 260.761 478.867 260.072 479.68 259.367L480.228 259.989C479.357 260.744 478.527 261.45 477.59 262.122L477.599 262.089ZM482.657 257.673L482.052 257.101C482.815 256.271 483.537 255.441 484.2 254.611L484.855 255.117C484.167 256.03 483.429 256.885 482.674 257.707L482.657 257.673ZM486.763 252.361L486.058 251.921C486.631 250.994 487.141 250.029 487.584 249.033L488.347 249.373C487.878 250.412 487.346 251.421 486.754 252.395L486.763 252.361ZM489.508 246.203L488.678 245.97C488.981 244.929 489.206 243.866 489.35 242.792L490.18 242.899C490.042 244.028 489.815 245.144 489.499 246.236L489.508 246.203ZM490.428 239.563H489.599V239.322C489.599 238.318 489.541 237.297 489.441 236.293L490.271 236.21C490.38 237.244 490.435 238.282 490.437 239.322L490.428 239.563ZM488.936 233.064C488.712 231.994 488.436 230.936 488.106 229.893L488.936 229.644C489.276 230.723 489.566 231.819 489.765 232.89L488.936 233.064ZM486.97 226.814C486.572 225.835 486.141 224.83 485.61 223.818L486.356 223.444C486.862 224.473 487.327 225.503 487.733 226.499L486.97 226.814ZM484.067 220.896C483.553 219.991 482.989 219.037 482.409 218.058L483.114 217.618C483.719 218.605 484.291 219.568 484.772 220.489L484.067 220.896ZM480.601 215.26C479.995 214.347 479.382 213.426 478.751 212.505L479.44 212.04C480.07 212.961 480.684 213.883 481.289 214.812L480.601 215.26ZM476.869 209.766C476.247 208.853 475.616 207.932 475.003 207.019L475.691 206.554C476.305 207.467 476.927 208.388 477.549 209.293L476.869 209.766ZM473.162 204.238C472.556 203.308 471.967 202.362 471.387 201.416L472.092 200.984C472.672 201.931 473.261 202.86 473.858 203.79L473.162 204.238ZM469.703 198.536C469.139 197.532 468.617 196.536 468.144 195.581L468.891 195.208C469.355 196.154 469.877 197.133 470.425 198.129L469.703 198.536ZM466.759 192.56C466.32 191.522 465.93 190.468 465.565 189.439L466.394 189.174C466.743 190.178 467.132 191.215 467.564 192.236L466.759 192.56ZM464.603 186.227C464.329 185.148 464.089 184.044 463.906 182.907L464.736 182.774C464.918 183.837 465.142 184.916 465.416 185.978L464.603 186.227ZM463.492 179.587C463.409 178.566 463.367 177.537 463.367 176.508V176.234H464.197V176.499C464.197 177.504 464.197 178.516 464.321 179.512L463.492 179.587ZM464.321 172.947L463.492 172.864C463.492 172.64 463.533 172.408 463.558 172.167C463.657 171.279 463.782 170.391 463.931 169.544L464.761 169.685C464.62 170.515 464.495 171.387 464.396 172.258C464.429 172.515 464.429 172.74 464.362 172.972L464.321 172.947ZM465.474 166.49L464.644 166.266C464.951 165.17 465.308 164.099 465.706 163.078L466.477 163.377C466.1 164.405 465.779 165.452 465.515 166.515L465.474 166.49ZM506.799 161.651C506.335 161.651 505.854 161.584 505.381 161.518C504.734 161.427 504.087 161.319 503.449 161.194L503.615 160.364C504.228 160.48 504.867 160.588 505.497 160.68C505.945 160.738 506.401 160.779 506.841 160.804L506.799 161.651ZM510.208 161.393L510.034 160.563C511.075 160.348 512.072 159.961 512.986 159.418L513.417 160.124C512.441 160.728 511.37 161.166 510.249 161.418L510.208 161.393ZM467.862 160.406L467.124 160.016C467.652 159.026 468.236 158.067 468.874 157.144L469.554 157.617C468.948 158.521 468.397 159.46 467.904 160.431L467.862 160.406ZM500.206 160.356C499.136 160.016 498.084 159.62 497.055 159.169L497.395 158.405C498.392 158.849 499.414 159.234 500.455 159.559L500.206 160.356ZM515.964 157.766L515.275 157.302C515.866 156.444 516.215 155.444 516.287 154.405L517.116 154.463C517.046 155.654 516.656 156.803 515.988 157.791L515.964 157.766ZM494.069 157.642C493.099 157.077 492.16 156.459 491.258 155.791L491.747 155.127C492.625 155.775 493.539 156.374 494.484 156.92L494.069 157.642ZM471.594 155.052L470.981 154.496C471.731 153.66 472.532 152.87 473.377 152.131L473.925 152.753C473.111 153.482 472.341 154.258 471.619 155.077L471.594 155.052ZM488.67 153.65C487.844 152.888 487.061 152.082 486.323 151.234L486.945 150.686C487.663 151.51 488.424 152.294 489.226 153.035L488.67 153.65ZM515.665 151.4C515.19 150.452 514.533 149.606 513.733 148.91L514.28 148.288C515.161 149.051 515.885 149.978 516.411 151.018L515.665 151.4ZM476.504 150.745L476.031 150.064C476.959 149.43 477.92 148.845 478.909 148.313L479.299 149.043C478.346 149.57 477.421 150.146 476.529 150.769L476.504 150.745ZM484.25 148.587C483.935 148.138 483.628 147.682 483.338 147.209L482.259 147.632L481.944 146.868L482.898 146.487C482.749 146.238 482.599 145.989 482.458 145.74L483.18 145.333C483.346 145.623 483.512 145.914 483.686 146.163C484.15 145.997 484.623 145.839 485.104 145.69L485.345 146.52C484.938 146.644 484.515 146.777 484.134 146.918C484.391 147.325 484.656 147.748 484.963 148.105L484.25 148.587ZM511.062 147.159C510.26 146.759 509.428 146.42 508.574 146.146L508.027 145.972L508.267 145.142L508.831 145.325C509.72 145.608 510.585 145.96 511.419 146.379L511.062 147.159ZM488.521 145.673L488.347 144.843C489.417 144.603 490.528 144.403 491.664 144.246L491.788 145.076C490.694 145.25 489.607 145.457 488.546 145.698L488.521 145.673ZM504.859 145.225C503.822 145.042 502.727 144.901 501.608 144.802L501.674 143.972C502.827 144.071 503.946 144.212 504.991 144.403L504.859 145.225ZM495.031 144.744L494.973 143.914C495.96 143.856 496.947 143.822 497.926 143.822H498.332V144.652H497.934C496.997 144.677 496.018 144.702 495.056 144.769L495.031 144.744ZM481.015 142.76C480.568 141.747 480.186 140.693 479.813 139.623L480.642 139.365C480.991 140.411 481.38 141.44 481.812 142.428L481.015 142.76ZM478.917 136.386C478.668 135.315 478.461 134.203 478.303 133.066L479.133 132.949C479.29 134.045 479.489 135.132 479.73 136.186L478.917 136.386ZM477.988 129.746C477.947 128.999 477.922 128.235 477.922 127.471C477.922 127.114 477.922 126.749 477.922 126.392H478.751C478.751 126.749 478.751 127.098 478.751 127.455C478.751 128.202 478.751 128.957 478.809 129.679L477.988 129.746ZM478.975 123.106L478.146 123.023C478.262 121.927 478.42 120.806 478.61 119.703L479.44 119.844C479.216 120.948 479.058 122.01 478.95 123.122L478.975 123.106ZM480.111 116.623L479.282 116.424C479.547 115.353 479.854 114.274 480.194 113.195L481.024 113.453C480.651 114.54 480.344 115.594 480.087 116.64L480.111 116.623ZM482.102 110.34L481.331 110.041C481.737 109.004 482.16 107.966 482.666 106.962L483.412 107.327C482.915 108.323 482.475 109.336 482.077 110.39L482.102 110.34ZM484.955 104.422L484.233 103.999C484.797 103.044 485.403 102.09 486.033 101.177L486.713 101.65C486.066 102.563 485.477 103.493 484.93 104.439L484.955 104.422ZM488.695 99.0189L488.048 98.496C488.745 97.666 489.491 96.7862 490.263 96.006L490.86 96.5787C490.08 97.3589 489.35 98.1889 488.67 99.0355L488.695 99.0189ZM493.207 94.2381L492.651 93.6239C493.48 92.8852 494.31 92.1548 495.197 91.4493L495.711 92.105C494.824 92.8105 493.978 93.5326 493.182 94.2547L493.207 94.2381ZM498.357 90.1379L497.884 89.449C498.788 88.8265 499.733 88.2123 500.695 87.6313L501.118 88.3368C500.156 88.9261 499.261 89.532 498.332 90.1545L498.357 90.1379ZM503.988 86.71L503.598 85.9796C504.577 85.4567 505.589 84.9587 506.6 84.4939L506.949 85.2492C505.895 85.7223 504.925 86.2203 503.963 86.7266L503.988 86.71ZM509.984 83.9544L509.677 83.1742C510.722 82.7675 511.775 82.3442 512.82 82.0371L513.086 82.8671C512.032 83.1825 510.988 83.5643 509.959 83.971L509.984 83.9544Z" fill="#263238"/>
<path d="M516.379 81.8544L516.172 81.0244C517.2 80.7588 517.831 80.6426 517.831 80.6426L517.98 81.4726C517.98 81.4726 517.383 81.5971 516.379 81.8544Z" fill="#263238"/>
<path d="M531.038 76.4927C528.923 69.9357 514.758 72.2929 517.52 80.8668C520.281 89.4407 533.153 83.058 531.038 76.4927Z" fill="#263238"/>
<path d="M509.815 73.87C509.923 70.9899 513.92 68.7738 519.576 69.7947C525.232 70.8156 530.548 74.6336 530.548 74.6336C530.548 74.6336 524.967 78.02 519.253 78.6425C513.538 79.265 509.707 76.7418 509.815 73.87Z" fill="#EBEBEB"/>
<path d="M530.551 74.6171C527.615 74.6171 524.687 74.5341 521.76 74.4428C518.832 74.3515 515.896 74.2021 512.969 73.9697C515.905 73.9697 518.84 74.0444 521.768 74.1357C524.696 74.227 527.631 74.3764 530.551 74.6171Z" fill="#263238"/>
<path d="M515.5 71.3057C517.167 72.1036 518.738 73.0864 520.186 74.2356C519.352 73.8439 518.543 73.4003 517.764 72.9076C516.979 72.4182 516.223 71.8833 515.5 71.3057Z" fill="#263238"/>
<path d="M523.188 74.3428C521.687 75.5596 520.061 76.6115 518.336 77.4802C519.844 76.2618 521.479 75.2099 523.212 74.3428H523.188Z" fill="#263238"/>
<path d="M524.039 72.7246C524.876 73.1268 525.608 73.7177 526.179 74.451C525.76 74.2533 525.368 74.0053 525.009 73.7123C524.649 73.4212 524.324 73.0898 524.039 72.7246Z" fill="#263238"/>
<path d="M515.204 90.926C516.971 93.2002 521.507 92.6524 525.496 88.519C529.485 84.3856 531.6 78.1689 531.6 78.1689C531.6 78.1689 525.065 78.6669 520.081 81.4889C515.096 84.3109 513.429 88.6435 515.204 90.926Z" fill="#EBEBEB"/>
<path d="M531.602 78.1689C529.213 79.8289 526.891 81.6715 524.561 83.456C522.23 85.2405 519.95 87.0831 517.719 88.9838C520.107 87.3238 522.429 85.4895 524.751 83.705C527.074 81.9205 529.338 80.0779 531.602 78.1689Z" fill="#263238"/>
<path d="M521.305 89.6401C521.748 88.8339 522.144 88.0025 522.491 87.1501C522.844 86.2954 523.143 85.4194 523.386 84.5273C522.942 85.3329 522.546 86.1644 522.2 87.0173C521.851 87.8734 521.552 88.7491 521.305 89.6401Z" fill="#263238"/>
<path d="M525.798 82.7012C523.857 82.5974 521.911 82.7004 519.992 83.0083C520.959 83.0664 521.928 83.0664 522.895 83.0083C523.867 82.9609 524.837 82.8583 525.798 82.7012Z" fill="#263238"/>
<path d="M527.398 83.5227C527.62 83.1128 527.793 82.6782 527.913 82.2279C528.035 81.7809 528.108 81.3215 528.128 80.8584C527.687 81.6801 527.438 82.5909 527.398 83.5227Z" fill="#263238"/>
<path d="M531.038 76.493C530.569 76.6453 530.066 76.6549 529.592 76.5209C529.119 76.3868 528.695 76.115 528.376 75.7399C528.056 75.3648 527.855 74.9033 527.798 74.4138C527.741 73.9243 527.83 73.4288 528.055 72.9901C528.279 72.5514 528.628 72.1892 529.059 71.9494C529.489 71.7096 529.981 71.603 530.471 71.643C530.962 71.683 531.43 71.8679 531.816 72.1743C532.202 72.4806 532.488 72.8947 532.638 73.3639C532.839 73.9913 532.784 74.6729 532.484 75.2594C532.184 75.8459 531.664 76.2895 531.038 76.493Z" fill="#455A64"/>
<path d="M532.566 81.2321C532.098 81.3837 531.596 81.393 531.123 81.2588C530.649 81.1246 530.226 80.853 529.907 80.4782C529.588 80.1035 529.387 79.6425 529.329 79.1534C529.272 78.6644 529.361 78.1693 529.585 77.7307C529.808 77.2922 530.157 76.9299 530.586 76.6896C531.016 76.4494 531.507 76.3419 531.997 76.3809C532.488 76.4198 532.956 76.6034 533.342 76.9085C533.728 77.2135 534.015 77.6263 534.167 78.0947C534.268 78.4059 534.307 78.7339 534.281 79.06C534.255 79.3862 534.165 79.704 534.016 79.9953C533.868 80.2867 533.663 80.5459 533.414 80.7581C533.166 80.9703 532.877 81.1314 532.566 81.2321Z" fill="#455A64"/>
<path d="M260.672 79.1161C260.275 82.9284 258.827 86.5552 256.489 89.5918C254.152 92.6284 251.018 94.9553 247.436 96.3128C243.855 97.6704 239.967 98.0052 236.206 97.2798C232.445 96.5545 228.96 94.7976 226.139 92.2052L215.797 93.7241L220.972 84.7767C219.788 81.8653 219.284 78.7224 219.495 75.5865C219.707 72.4507 220.631 69.4044 222.195 66.6791C223.76 63.9538 225.924 61.6211 228.524 59.8583C231.124 58.0955 234.091 56.9489 237.2 56.5056C240.309 56.0623 243.479 56.3339 246.467 57.2999C249.456 58.2659 252.185 59.9008 254.448 62.0804C256.71 64.26 258.447 66.9271 259.525 69.8789C260.604 72.8308 260.996 75.9898 260.672 79.1161Z" fill="white"/>
<path d="M260.672 79.1158C260.283 82.9262 258.847 86.5544 256.525 89.5987C255.39 91.1384 254.022 92.4911 252.469 93.6076C250.951 94.7661 249.276 95.7023 247.493 96.3881C245.71 97.0909 243.837 97.538 241.929 97.7161C240.975 97.8018 240.016 97.8212 239.059 97.7742C238.099 97.7495 237.142 97.6496 236.198 97.4754C232.386 96.7736 228.846 95.0233 225.972 92.4207L226.213 92.4954L215.888 94.0807L215.133 94.1969L215.514 93.5329L220.656 84.5689V84.9258C219.443 81.9607 218.927 78.7562 219.148 75.5597C219.37 72.3633 220.323 69.2607 221.933 66.4915C223.542 63.7311 225.753 61.3704 228.402 59.5859C231.047 57.8251 234.055 56.6864 237.202 56.2552C240.349 55.824 243.553 56.1114 246.573 57.0959C249.561 58.1133 252.284 59.7865 254.543 61.9929C256.796 64.1939 258.52 66.8797 259.582 69.8465C260.644 72.8134 261.016 75.9833 260.672 79.1158ZM260.672 79.1158C261.007 75.9987 260.622 72.8463 259.546 69.9018C258.47 66.9573 256.733 64.2997 254.468 62.1339C252.203 59.9682 249.471 58.3524 246.483 57.4112C243.495 56.47 240.331 56.2287 237.235 56.7058C234.17 57.1599 231.25 58.3128 228.701 60.0756C226.174 61.8523 224.062 64.1576 222.514 66.8318C220.989 69.512 220.09 72.5028 219.885 75.58C219.683 78.6781 220.182 81.7819 221.345 84.6602L221.419 84.8428L221.32 85.0171L216.111 93.9479L215.747 93.4001L226.097 91.9476H226.238L226.337 92.0389C229.104 94.6161 232.532 96.372 236.239 97.1102C237.163 97.2986 238.101 97.4124 239.043 97.4505C239.984 97.5169 240.929 97.5169 241.871 97.4505C243.759 97.2983 245.617 96.8877 247.394 96.2304C249.175 95.5816 250.851 94.6756 252.37 93.5412C253.916 92.4337 255.286 91.099 256.434 89.5821C258.786 86.5526 260.253 82.9296 260.672 79.1158Z" fill="#263238"/>
<path d="M230.011 86.6108C229.995 86.336 230.036 86.0609 230.131 85.8025C230.225 85.5441 230.372 85.3079 230.562 85.1087C230.752 84.9094 230.98 84.7513 231.234 84.6442C231.487 84.5371 231.76 84.4832 232.035 84.486C232.598 84.486 233.138 84.7098 233.536 85.1083C233.934 85.5068 234.158 86.0472 234.158 86.6108C234.158 87.1743 233.934 87.7148 233.536 88.1132C233.138 88.5117 232.598 88.7356 232.035 88.7356C231.76 88.7383 231.487 88.6845 231.234 88.5773C230.98 88.4702 230.752 88.3121 230.562 88.1129C230.372 87.9136 230.225 87.6775 230.131 87.4191C230.036 87.1607 229.995 86.8856 230.011 86.6108ZM230.841 81.7055L230.36 65.2383H233.677L233.196 81.7055H230.841Z" fill="#034EA2"/>
<path d="M237.902 86.6108C237.886 86.3367 237.926 86.0623 238.021 85.8044C238.115 85.5466 238.261 85.3108 238.45 85.1117C238.639 84.9126 238.866 84.7543 239.119 84.6467C239.371 84.5391 239.643 84.4844 239.917 84.486C240.48 84.486 241.02 84.7098 241.418 85.1083C241.816 85.5068 242.04 86.0472 242.04 86.6108C242.04 87.1743 241.816 87.7148 241.418 88.1132C241.02 88.5117 240.48 88.7356 239.917 88.7356C239.643 88.7372 239.371 88.6825 239.119 88.5748C238.866 88.4672 238.639 88.309 238.45 88.1098C238.261 87.9107 238.115 87.675 238.021 87.4171C237.926 87.1593 237.886 86.8849 237.902 86.6108ZM238.731 81.7055L238.275 65.2383H241.592L241.111 81.7055H238.731Z" fill="#034EA2"/>
<path d="M245.777 86.6108C245.761 86.336 245.802 86.0609 245.896 85.8025C245.991 85.5441 246.138 85.3079 246.328 85.1087C246.517 84.9094 246.746 84.7513 246.999 84.6442C247.253 84.5371 247.525 84.4832 247.8 84.486C248.363 84.486 248.903 84.7098 249.302 85.1083C249.7 85.5068 249.923 86.0472 249.923 86.6108C249.923 87.1743 249.7 87.7148 249.302 88.1132C248.903 88.5117 248.363 88.7356 247.8 88.7356C247.525 88.7383 247.253 88.6845 246.999 88.5773C246.746 88.4702 246.517 88.3121 246.328 88.1129C246.138 87.9136 245.991 87.6775 245.896 87.4191C245.802 87.1607 245.761 86.8856 245.777 86.6108ZM246.606 81.7055L246.125 65.2383H249.442L248.97 81.7055H246.606Z" fill="#034EA2"/>
<path d="M128.554 351.761V352.438C128.554 352.438 139.889 357.119 139.986 359.282L117.406 358.947L117.826 351.425C119.485 352.248 121.302 352.704 123.153 352.762C125.005 352.82 126.847 352.478 128.554 351.761Z" fill="#263238"/>
<path d="M117.391 358.947L117.487 357.14L139.112 358.121C139.112 358.121 140.112 358.573 139.983 359.283L117.391 358.947Z" fill="#455A64"/>
<path d="M128.631 352.503C128.631 352.613 128.07 352.652 127.522 353C126.973 353.349 126.677 353.807 126.58 353.762C126.483 353.717 126.651 353.078 127.322 352.671C127.993 352.264 128.657 352.4 128.631 352.503Z" fill="white"/>
<path d="M130.984 353.523C130.984 353.633 130.525 353.814 130.145 354.272C129.764 354.731 129.648 355.228 129.538 355.222C129.429 355.215 129.364 354.576 129.855 354.021C130.345 353.465 130.984 353.414 130.984 353.523Z" fill="white"/>
<path d="M132.291 356.377C132.188 356.377 132.046 355.841 132.336 355.241C132.627 354.64 133.149 354.408 133.194 354.498C133.24 354.589 132.917 354.912 132.685 355.409C132.452 355.906 132.388 356.364 132.291 356.377Z" fill="white"/>
<path d="M112.386 344.943L122.005 347.636L119.605 353.098L122.096 366.915C122.168 367.295 122.097 367.689 121.897 368.02C121.697 368.351 121.382 368.597 121.012 368.71C120.725 368.792 120.422 368.792 120.135 368.71C119.849 368.628 119.592 368.467 119.392 368.245C117.263 365.862 109.496 357.056 109.715 355.977L110.025 353.104C110.204 352.379 110.42 351.664 110.67 350.961L112.386 344.943Z" fill="#263238"/>
<path d="M120.732 368.761L109.803 354.982L109.745 355.628C109.707 355.886 109.727 356.149 109.804 356.399C109.881 356.648 110.013 356.876 110.19 357.068C111.048 358.456 113.5 361.587 119.377 368.263C119.548 368.453 119.762 368.6 120.001 368.689C120.24 368.779 120.498 368.81 120.751 368.78L120.732 368.761Z" fill="#455A64"/>
<path d="M117.849 361.962C118.26 361.532 118.748 361.182 119.287 360.929C119.866 360.766 120.469 360.711 121.068 360.768C121.068 360.729 120.906 360.6 120.552 360.516C120.088 360.419 119.607 360.457 119.165 360.626C118.724 360.785 118.341 361.07 118.061 361.446C117.855 361.73 117.81 361.95 117.849 361.962Z" fill="white"/>
<path d="M118.758 364.047C119.216 363.848 119.685 363.678 120.164 363.537C120.664 363.49 121.166 363.473 121.667 363.486C121.445 363.32 121.186 363.208 120.913 363.161C120.639 363.114 120.358 363.132 120.093 363.215C119.177 363.389 118.68 364.002 118.758 364.047Z" fill="white"/>
<path d="M116.062 359.231C116.748 358.867 117.46 358.554 118.191 358.295C118.95 358.136 119.72 358.035 120.495 357.991C119.719 357.711 118.87 357.711 118.095 357.991C117.291 358.149 116.571 358.589 116.062 359.231Z" fill="white"/>
<path d="M119.73 351.219C119.634 351.834 119.596 352.456 119.614 353.078C119.73 353.879 119.898 354.899 120.091 356.009C120.323 357.301 120.549 358.515 120.736 359.373C120.803 359.842 120.918 360.303 121.078 360.749C121.078 360.274 121.031 359.8 120.936 359.335C120.814 358.469 120.62 357.275 120.388 355.964C120.194 354.854 120.001 353.834 119.846 353.039C119.859 352.43 119.821 351.821 119.73 351.219Z" fill="#455A64"/>
<path d="M106.042 262.268C105.294 258.613 103.358 251.989 104.12 248.928C105.874 241.865 108.952 237.778 113.151 228.804H116.261L146.246 228.287L148.704 233.73C151.427 241.064 153.285 245.448 154.052 250.82C154.936 256.999 153.407 265.961 149.956 275.006C142.543 294.531 138.408 310.149 138.118 314.352C137.827 318.555 137.389 322.907 133.492 336.22C130.647 345.943 128.544 351.754 128.544 351.754C125.589 353.426 122.454 353.878 119.603 352.258L110.906 348.894C110.906 348.894 113.571 325.961 116.712 319.879C118.957 315.501 122.622 313.422 120.912 307.715C119.203 302.007 108.364 273.508 106.042 262.268Z" fill="#263238"/>
<path d="M141.131 243.764C141.09 243.813 141.051 243.865 141.015 243.919L140.679 244.377L139.389 246.185L134.635 253.029V253.061C134.867 255.644 134.957 258.594 135.112 261.906C135.267 265.219 135.448 268.873 135.628 272.786C135.809 276.698 136.054 280.888 136.273 285.279C136.493 289.669 136.757 294.247 137.196 298.966C137.654 302.892 138.054 306.747 137.718 310.453C137.64 311.369 137.515 312.28 137.344 313.184C137.196 314.06 136.98 314.923 136.699 315.766C136.054 317.432 135.357 319.046 134.673 320.609C131.906 326.878 129.312 332.482 127.158 337.189L122.061 348.358L120.674 351.387C120.519 351.729 120.403 351.993 120.313 352.181C120.222 352.368 120.203 352.458 120.203 352.458L120.345 352.194C120.435 352.006 120.558 351.748 120.726 351.412L122.164 348.404C123.403 345.769 125.184 341.979 127.39 337.299C129.596 332.618 132.183 326.968 134.964 320.738C135.654 319.169 136.37 317.574 137.009 315.876C137.289 315.009 137.505 314.122 137.654 313.222C137.83 312.311 137.957 311.391 138.034 310.465C138.376 306.721 137.97 302.84 137.518 298.921C137.08 294.227 136.873 289.63 136.583 285.246C136.293 280.863 136.118 276.679 135.938 272.76C135.757 268.841 135.557 265.199 135.383 261.887C135.209 258.575 135.112 255.598 134.86 253.035V253.087L139.48 246.224L140.712 244.39L141.028 243.919C141.067 243.87 141.102 243.819 141.131 243.764Z" fill="#455A64"/>
<path d="M146.541 168.72C146.464 167.08 147.077 165.491 147.593 163.942C148.109 162.392 148.541 160.714 148.102 159.119C147.548 157.13 145.761 155.742 144.799 153.915C143.838 152.088 143.767 149.925 143.593 147.859C143.419 145.793 143.077 143.604 141.709 142.048C139.974 140.079 135.438 139.724 133.322 141.241C132.993 152.992 133.097 164.62 135.606 176.106C141.335 176.351 144.238 175.234 149.238 172.426C147.612 172.096 146.619 170.36 146.541 168.72Z" fill="#263238"/>
<path d="M121.996 177.326L119.893 147.627C119.866 147.001 120.073 146.387 120.474 145.906C120.875 145.425 121.441 145.111 122.061 145.025L135.299 141.273C139.556 140.699 142.543 145.883 142.93 150.164C143.369 154.916 143.711 160.74 143.247 164.31C142.318 171.49 136.873 172.555 136.873 172.555V178.94V189.645L121.996 177.326Z" fill="#FFBF9D"/>
<path d="M141.248 156.375C141.255 156.613 141.17 156.845 141.01 157.022C140.85 157.199 140.628 157.307 140.39 157.324C140.274 157.336 140.156 157.326 140.044 157.292C139.932 157.258 139.828 157.202 139.738 157.128C139.648 157.053 139.573 156.961 139.519 156.857C139.465 156.754 139.432 156.64 139.423 156.523C139.414 156.284 139.498 156.052 139.659 155.874C139.819 155.697 140.042 155.589 140.281 155.574C140.397 155.562 140.514 155.573 140.627 155.607C140.739 155.64 140.843 155.696 140.933 155.771C141.023 155.845 141.097 155.937 141.152 156.041C141.206 156.145 141.239 156.258 141.248 156.375Z" fill="#263238"/>
<path d="M141.766 153.231C141.656 153.354 140.946 152.857 139.959 152.889C138.972 152.921 138.269 153.431 138.159 153.315C138.05 153.199 138.211 153.044 138.521 152.805C138.939 152.498 139.441 152.327 139.959 152.314C140.477 152.294 140.987 152.439 141.417 152.728C141.708 152.96 141.817 153.173 141.766 153.231Z" fill="#263238"/>
<path d="M132.945 156.376C132.954 156.613 132.87 156.846 132.711 157.023C132.552 157.2 132.331 157.308 132.094 157.325C131.977 157.337 131.86 157.326 131.748 157.292C131.636 157.259 131.531 157.203 131.441 157.128C131.351 157.054 131.277 156.962 131.223 156.858C131.168 156.754 131.136 156.641 131.126 156.524C131.115 156.286 131.199 156.053 131.358 155.875C131.517 155.698 131.74 155.59 131.977 155.575C132.094 155.562 132.212 155.572 132.324 155.605C132.437 155.639 132.541 155.694 132.632 155.769C132.722 155.844 132.796 155.936 132.85 156.04C132.904 156.145 132.936 156.259 132.945 156.376Z" fill="#263238"/>
<path d="M132.086 153.689C131.976 153.812 131.267 153.315 130.28 153.347C129.293 153.379 128.589 153.89 128.48 153.773C128.37 153.657 128.531 153.502 128.841 153.263C129.26 152.959 129.762 152.788 130.28 152.773C130.794 152.757 131.301 152.906 131.725 153.199C132.028 153.418 132.138 153.631 132.086 153.689Z" fill="#263238"/>
<path d="M135.868 160.901C136.382 160.721 136.918 160.608 137.461 160.565C137.706 160.565 137.945 160.475 137.984 160.307C137.998 160.046 137.933 159.788 137.797 159.565L136.997 157.667C135.887 154.961 135.061 152.74 135.184 152.695C135.307 152.65 136.281 154.806 137.39 157.505L138.158 159.442C138.325 159.743 138.382 160.092 138.319 160.43C138.284 160.52 138.23 160.601 138.159 160.667C138.089 160.732 138.005 160.782 137.913 160.811C137.774 160.85 137.631 160.874 137.487 160.882C136.95 160.956 136.406 160.963 135.868 160.901Z" fill="#263238"/>
<path d="M136.899 172.555C133.524 172.709 130.174 171.92 127.222 170.276C126.789 169.282 129.099 173.84 136.86 174.428L136.899 172.555Z" fill="#FF9A6C"/>
<path d="M135.783 163.252C135.552 162.932 135.247 162.675 134.894 162.5C134.541 162.326 134.151 162.24 133.757 162.251C133.498 162.259 133.244 162.331 133.019 162.461C132.794 162.59 132.604 162.773 132.467 162.993C132.318 163.246 132.249 163.538 132.269 163.831C132.289 164.124 132.398 164.404 132.58 164.634C132.762 164.864 133.01 165.033 133.29 165.12C133.571 165.206 133.871 165.205 134.151 165.118C134.694 164.922 135.183 164.599 135.576 164.175C135.705 164.075 135.808 163.947 135.879 163.8C135.916 163.719 135.931 163.63 135.921 163.542C135.912 163.453 135.88 163.369 135.828 163.297" fill="#FF9A6C"/>
<path d="M132.989 161.67C133.15 161.67 133.182 162.722 134.117 163.458C135.053 164.195 136.188 164.04 136.201 164.188C136.214 164.337 135.956 164.408 135.472 164.433C134.847 164.461 134.233 164.266 133.737 163.885C133.266 163.525 132.951 162.998 132.859 162.413C132.801 161.935 132.918 161.664 132.989 161.67Z" fill="#263238"/>
<path d="M132.386 149.615C132.296 149.886 131.309 149.789 130.154 149.957C128.999 150.125 128.076 150.474 127.915 150.235C127.844 150.125 127.999 149.867 128.367 149.589C128.862 149.259 129.426 149.045 130.016 148.963C130.606 148.881 131.207 148.934 131.773 149.118C132.225 149.279 132.444 149.499 132.386 149.615Z" fill="#E0E0E0"/>
<path d="M141.324 149.841C141.156 150.074 140.472 149.841 139.653 149.874C138.834 149.906 138.15 150.067 137.989 149.835C137.911 149.725 137.989 149.499 138.311 149.273C138.707 149.001 139.179 148.861 139.66 148.873C140.138 148.866 140.607 149.008 141.001 149.28C141.298 149.499 141.421 149.732 141.324 149.841Z" fill="#263238"/>
<path d="M136.898 141.228C135.673 138.291 133.028 137.671 130.17 137.355C127.312 137.038 123.093 138.239 120.77 139.814C118.813 141.005 117.054 142.495 115.558 144.231C114.267 145.858 113.732 147.724 112.977 149.602C111.758 152.527 111.835 155.756 111.687 158.893C111.466 162.842 110.835 166.756 109.803 170.573C109.429 171.942 109.048 173.582 110.99 174.37C111.35 174.512 111.728 174.603 112.113 174.641C115.125 175.009 119.364 175.758 122.712 175.971C123.249 175.972 123.78 175.861 124.272 175.646C124.763 175.43 125.205 175.115 125.568 174.72C125.932 174.325 126.209 173.858 126.382 173.35C126.556 172.842 126.622 172.303 126.576 171.768C126.305 165.311 123.815 155.278 123.473 153.244C123.48 153.244 122.39 139.317 136.898 141.228Z" fill="#263238"/>
<path d="M135.941 141.157C135.503 141.521 135.145 141.971 134.886 142.478C134.628 142.985 134.475 143.54 134.437 144.108C134.283 145.238 134.347 146.387 134.141 147.504C133.919 148.622 133.432 149.671 132.72 150.561C132.008 151.451 131.092 152.156 130.051 152.617C129.405 152.908 128.476 153.024 128.064 152.43C128.09 153.222 127.876 154.002 127.45 154.67C127.023 155.337 126.405 155.86 125.677 156.168C124.619 156.594 123.432 156.523 122.322 156.775C121.212 157.027 120.038 157.789 119.98 158.925L119.516 150.99L121.741 143.979L128.593 139.892L135.941 141.157Z" fill="#263238"/>
<path d="M123.797 154.238C124.687 153.658 125.311 152.747 125.532 151.707C125.808 150.601 125.968 149.469 126.01 148.33C126.066 146.926 126.228 145.527 126.494 144.147C126.774 142.754 127.42 141.462 128.364 140.402C128.787 139.947 129.296 139.581 129.861 139.324C130.355 139.105 130.883 138.974 131.422 138.936C132.204 138.875 132.985 139.063 133.654 139.472C133.76 139.534 133.859 139.605 133.951 139.685C134.021 139.739 134.086 139.799 134.145 139.866C134.199 139.915 134.249 139.969 134.293 140.027C134.09 139.843 133.875 139.672 133.648 139.517C132.982 139.132 132.214 138.963 131.448 139.033C130.306 139.112 129.236 139.622 128.455 140.46C127.532 141.509 126.902 142.783 126.629 144.153C126.362 145.525 126.196 146.915 126.132 148.311C126.087 149.46 125.916 150.601 125.623 151.713C125.417 152.467 125.027 153.157 124.487 153.721C124.288 153.932 124.055 154.107 123.797 154.238Z" fill="white"/>
<path d="M117.836 153.282C118.194 153.244 118.546 153.157 118.881 153.024C119.774 152.592 120.531 151.922 121.068 151.087C121.459 150.536 121.792 149.945 122.062 149.325C122.359 148.603 122.548 147.842 122.623 147.065C122.72 146.245 122.758 145.373 122.855 144.482C122.899 144.024 122.97 143.569 123.068 143.12C123.178 142.655 123.329 142.202 123.52 141.764C124.292 140.097 125.659 138.777 127.352 138.064C128.735 137.503 130.261 137.402 131.706 137.774C132.677 138.011 133.588 138.451 134.377 139.065C134.665 139.286 134.931 139.535 135.171 139.808L135.119 139.763L134.964 139.62C134.893 139.556 134.816 139.478 134.706 139.395C134.596 139.311 134.487 139.207 134.345 139.104C133.554 138.521 132.655 138.104 131.7 137.877C130.275 137.524 128.774 137.635 127.416 138.194C125.756 138.895 124.417 140.191 123.661 141.829C123.47 142.256 123.321 142.702 123.216 143.159C123.119 143.604 123.045 144.055 122.997 144.508C122.9 145.405 122.861 146.277 122.758 147.091C122.681 147.879 122.485 148.652 122.178 149.383C121.895 150.01 121.549 150.607 121.145 151.165C120.594 152.009 119.816 152.681 118.9 153.102C118.65 153.203 118.388 153.27 118.12 153.302H117.907L117.836 153.282Z" fill="#455A64"/>
<path d="M128.063 152.43V152.495C128.063 152.546 128.063 152.611 128.063 152.695C128.063 152.779 128.063 152.888 128.024 153.011C127.986 153.134 127.966 153.282 127.934 153.45C127.832 153.845 127.678 154.225 127.476 154.58C127.206 155.058 126.839 155.474 126.399 155.8C125.18 156.593 123.73 156.95 122.283 156.814C121.411 156.779 120.545 156.647 119.702 156.42C118.799 156.19 117.931 155.838 117.122 155.374L116.96 155.277H117.148C118.183 155.114 119.188 154.794 120.128 154.328H120.18L120.218 154.457C118.094 154.796 115.918 154.405 114.044 153.347L113.922 153.276L114.057 153.231C115.377 152.83 116.617 152.203 117.722 151.378C118.445 150.852 119.026 150.156 119.413 149.35C119.801 148.544 119.982 147.654 119.941 146.761C119.941 146.522 119.941 146.335 119.902 146.2V146.051C119.902 146.019 119.902 146.006 119.902 146.006C119.901 146.021 119.901 146.036 119.902 146.051V146.193C119.902 146.329 119.941 146.516 119.967 146.755C120.003 147.466 119.907 148.177 119.683 148.853C119.289 149.877 118.619 150.771 117.747 151.436C116.64 152.283 115.391 152.926 114.057 153.334V153.218C115.91 154.254 118.058 154.636 120.154 154.302L120.612 154.225L120.193 154.432H120.141C119.189 154.903 118.167 155.219 117.115 155.368V155.245C117.923 155.709 118.792 156.059 119.696 156.285C120.52 156.508 121.366 156.642 122.218 156.685C123.641 156.829 125.071 156.487 126.276 155.716C126.71 155.4 127.074 154.998 127.347 154.535C127.566 154.192 127.742 153.823 127.87 153.437C127.908 153.276 127.941 153.134 127.966 153.005C127.992 152.876 128.005 152.772 128.018 152.688C128.031 152.604 128.018 152.546 128.018 152.495C128.031 152.472 128.046 152.45 128.063 152.43Z" fill="#455A64"/>
<path d="M113.409 171.962C113.37 171.962 113.802 168.139 114.376 163.433C114.951 158.726 115.441 154.91 115.48 154.91C115.518 154.91 115.08 158.732 114.512 163.446C113.944 168.159 113.441 171.968 113.409 171.962Z" fill="#455A64"/>
<path d="M148.166 189.258C148.202 189.41 148.221 189.566 148.224 189.723C148.224 190.065 148.282 190.504 148.327 191.053C148.411 192.208 148.476 193.887 148.515 195.96C148.592 200.105 148.398 205.838 147.986 212.146C147.573 218.454 147.211 224.168 147.134 228.287C147.089 230.353 147.069 232.032 147.089 233.188V234.524C147.104 234.679 147.104 234.834 147.089 234.989C147.054 234.836 147.037 234.681 147.037 234.524C147.037 234.182 146.998 233.736 146.973 233.188C146.915 232.032 146.889 230.353 146.902 228.281C146.902 224.129 147.237 218.409 147.65 212.101C148.063 205.793 148.295 200.079 148.295 195.96C148.295 193.894 148.295 192.215 148.224 191.059C148.224 190.51 148.224 190.065 148.224 189.723C148.191 189.57 148.171 189.414 148.166 189.258Z" fill="#263238"/>
<path d="M155.608 203.224L157.157 206.265L152.576 189.258C151.241 183.68 149.28 182.059 147.37 181.459L146.273 182.595L147.08 214.406L148.099 217.041C147.886 221.56 149.673 224.098 152.092 225.202C155.667 226.829 159.873 224.859 161.24 221.173L165.995 206.968L155.608 203.224Z" fill="#034EA2"/>
<path d="M115.102 190.472L119.663 233.085L144.932 234.944L146.945 233.22L146.242 201.048L137.758 178.134L137.41 177.979C136.205 179.445 134.529 180.449 132.668 180.82C129.843 181.297 123.804 176.946 122.417 175.938L121.824 177.494L115.102 190.472Z" fill="white"/>
<path d="M130.125 209.293C129.216 201.861 128.628 196.199 126.751 188.903C124.551 180.348 122.416 175.932 122.416 175.932L120.971 175.79L118.758 177.456L105.107 182.698L113.571 223.652L107.41 237.914C106.464 240.109 105.604 242.341 104.83 244.61L100.172 258.459C100.172 258.459 115.126 263.908 118.648 261.874C122.171 259.84 126.474 240.064 127.777 235.37C129.08 230.676 131.035 216.724 130.125 209.293Z" fill="#034EA2"/>
<path d="M109.162 216.898L110.962 206.032L105.097 182.698C105.097 182.698 102.356 184.635 100.536 191.815C98.6462 199.317 93.7432 218.971 93.7109 223.813C93.7109 227.39 96.4269 234.705 101.872 233.859C112.471 232.2 129.29 225.769 129.29 225.769L126.909 213.909L109.162 216.898Z" fill="#034EA2"/>
<path d="M137.414 175.415L139.182 178.262L147.504 181.491C147.504 181.491 149.665 191.292 149.665 194.294C149.665 197.296 148.433 230.54 148.433 232.103C148.433 233.665 156.587 254.597 156.065 255.901C155.542 257.206 151.007 259.084 151.007 259.084C151.007 259.084 144.781 240.057 144.781 233.801C144.781 227.545 144.523 212.152 143.22 204.592C141.917 197.031 137.414 177.959 137.414 177.959V175.415Z" fill="#034EA2"/>
<path d="M144.924 237.307C144.918 237.255 144.918 237.203 144.924 237.152V236.694C144.924 236.267 144.924 235.68 144.924 234.937C144.924 233.388 145.008 231.186 145.072 228.481C145.195 223.032 145.414 215.497 145.549 207.175C145.549 206.135 145.549 205.108 145.549 204.101C145.549 203.094 145.44 202.106 145.369 201.125C145.214 199.188 145.053 197.283 144.872 195.495C144.691 193.706 144.485 192.002 144.227 190.426C143.967 188.97 143.559 187.544 143.008 186.172C142.212 184.183 141.301 182.243 140.279 180.361L139.44 178.818L139.221 178.417C139.194 178.373 139.172 178.325 139.156 178.275C139.156 178.275 139.195 178.314 139.253 178.398L139.498 178.785C139.711 179.121 140.021 179.631 140.395 180.296C141.463 182.17 142.409 184.111 143.227 186.107C143.805 187.49 144.237 188.928 144.517 190.401C144.801 191.982 145.014 193.687 145.201 195.482C145.388 197.277 145.556 199.162 145.717 201.118C145.795 202.093 145.911 203.055 145.904 204.114C145.898 205.173 145.904 206.161 145.904 207.2C145.769 215.523 145.511 223.051 145.324 228.507C145.22 231.212 145.13 233.407 145.072 234.963C145.033 235.699 145.008 236.287 144.982 236.719C144.982 236.9 144.982 237.049 144.982 237.171C144.968 237.219 144.949 237.264 144.924 237.307Z" fill="#263238"/>
<path d="M129.478 224.788C129.435 224.637 129.411 224.481 129.407 224.324C129.368 224.014 129.329 223.555 129.291 222.968C129.213 221.793 129.142 220.088 129.175 217.983C129.175 216.931 129.239 215.775 129.323 214.536C129.331 213.228 129.166 211.926 128.833 210.662C128.04 207.744 127.037 204.887 125.833 202.113C124.581 199.143 123.252 196.348 122.078 193.817C121.473 192.636 120.939 191.42 120.478 190.175C120.132 189.073 119.848 187.952 119.627 186.818C119.207 184.745 118.981 183.054 118.833 181.885C118.762 181.304 118.711 180.846 118.685 180.536C118.668 180.379 118.668 180.221 118.685 180.064C118.723 180.217 118.751 180.373 118.769 180.529C118.827 180.865 118.891 181.311 118.981 181.872C119.169 183.028 119.433 184.713 119.878 186.773C120.113 187.894 120.405 189.001 120.756 190.091C121.227 191.324 121.768 192.529 122.375 193.701C123.601 196.225 124.91 199.021 126.162 202.004C127.377 204.791 128.379 207.665 129.162 210.604C129.488 211.895 129.644 213.223 129.626 214.555C129.529 215.788 129.471 216.937 129.439 217.99C129.375 220.088 129.439 221.793 129.439 222.968C129.439 223.529 129.478 223.975 129.491 224.317C129.501 224.474 129.496 224.632 129.478 224.788Z" fill="#263238"/>
<path d="M151.008 216.434C151.099 215.76 151.262 215.098 151.492 214.458C151.853 213.257 152.427 211.623 153.137 209.848C153.846 208.072 154.55 206.484 155.072 205.361C155.335 204.736 155.657 204.137 156.033 203.572C155.832 204.219 155.582 204.849 155.285 205.458C154.795 206.607 154.13 208.202 153.421 209.977C152.711 211.753 152.13 213.36 151.692 214.542C151.506 215.187 151.278 215.819 151.008 216.434Z" fill="#263238"/>
<path d="M148.718 187.45C148.801 187.578 148.875 187.712 148.938 187.85C149.073 188.122 149.254 188.496 149.473 189.058C150.058 190.567 150.49 192.131 150.764 193.726C151.157 196.095 151.311 198.499 151.222 200.899C151.125 203.604 150.815 206.568 150.441 209.66C149.667 215.839 149.151 221.45 148.867 225.524C148.725 227.558 148.628 229.211 148.57 230.347C148.531 230.889 148.506 231.328 148.486 231.638C148.483 231.792 148.465 231.946 148.435 232.097C148.418 231.944 148.418 231.791 148.435 231.638C148.435 231.303 148.435 230.87 148.435 230.347C148.435 229.211 148.518 227.558 148.628 225.518C148.822 221.437 149.331 215.833 150.112 209.622C150.48 206.536 150.796 203.585 150.912 200.893C151.017 198.518 150.887 196.139 150.525 193.79C150.278 192.204 149.885 190.643 149.351 189.129C149.151 188.593 148.996 188.18 148.873 187.909C148.801 187.764 148.749 187.609 148.718 187.45Z" fill="#263238"/>
<path d="M166.972 196.238L162.694 192.835L158.037 197.858L156.062 203.572L162.694 205.754L163.198 202.526L166.972 196.238Z" fill="#FFBF9D"/>
<path d="M156.982 141.37C157.657 134.085 160.043 127.063 163.945 120.875C167.846 114.687 173.153 109.51 179.433 105.764C185.712 102.018 192.788 99.81 200.082 99.3194C207.376 98.8288 214.683 100.07 221.407 102.941C228.131 105.812 234.082 110.233 238.776 115.842C243.47 121.452 246.773 128.091 248.416 135.221C250.06 142.35 249.997 149.767 248.234 156.867C246.47 163.968 243.055 170.551 238.268 176.08C231.834 183.518 223.205 188.719 213.627 190.932C204.049 193.146 194.016 192.259 184.975 188.398C175.933 184.537 168.35 177.902 163.319 169.45C158.288 160.998 156.069 151.166 156.982 141.37ZM246.3 149.673C247.25 139.39 244.499 129.106 238.541 120.674C232.583 112.242 223.812 106.218 213.808 103.687C203.804 101.157 193.225 102.287 183.98 106.873C174.735 111.459 167.431 119.2 163.386 128.7C159.34 138.201 158.819 148.835 161.916 158.685C165.014 168.536 171.525 176.955 180.278 182.425C189.03 187.895 199.447 190.055 209.651 188.516C219.854 186.978 229.173 181.841 235.926 174.033C241.838 167.195 245.465 158.677 246.3 149.673Z" fill="#455A64"/>
<path d="M155.615 139.266C156.29 131.98 158.676 124.958 162.577 118.771C166.479 112.583 171.786 107.405 178.065 103.66C184.345 99.9136 191.42 97.7055 198.715 97.2149C206.009 96.7243 213.316 97.9652 220.04 100.836C226.764 103.708 232.715 108.128 237.409 113.738C242.102 119.347 245.406 125.987 247.049 133.116C248.693 140.245 248.63 147.662 246.866 154.763C245.103 161.863 241.688 168.446 236.901 173.976C230.466 181.413 221.838 186.614 212.26 188.828C202.682 191.042 192.649 190.154 183.607 186.293C174.566 182.433 166.983 175.798 161.952 167.346C156.921 158.894 154.702 149.061 155.615 139.266ZM244.939 147.562C245.886 137.279 243.131 126.996 237.171 118.567C231.212 110.137 222.439 104.116 212.435 101.588C202.43 99.0603 191.853 100.193 182.609 104.781C173.366 109.369 166.064 117.111 162.02 126.612C157.977 136.112 157.458 146.745 160.556 156.595C163.655 166.445 170.168 174.863 178.92 180.331C187.673 185.799 198.089 187.959 208.292 186.419C218.495 184.88 227.813 179.743 234.565 171.935C240.48 165.093 244.107 156.571 244.939 147.562Z" fill="#263238"/>
<path d="M122.862 238.32L121.462 237.223C120.217 236.241 120.592 233.672 121.65 232.329L170.97 174.369L177.531 179.534L128.275 237.397C126.927 239.031 124.469 239.58 122.862 238.32Z" fill="#263238"/>
<path d="M162.924 188.774C163.013 188.631 163.146 188.521 163.303 188.46C163.46 188.399 163.633 188.392 163.795 188.438C164.079 188.513 164.341 188.657 164.556 188.858C166.173 190.201 167.207 192.12 167.44 194.21C167.53 195.101 167.401 196.147 166.659 196.625L165.711 196.199C165.395 195.87 164.498 195.36 164.343 194.908C163.698 193.106 164.924 193.5 163.427 190.388C163.285 190.123 162.659 189.303 162.924 188.774Z" fill="#FFBF9D"/>
<path d="M163.411 191.375C163.103 190.894 162.727 190.459 162.295 190.084C162.13 189.95 161.934 189.862 161.724 189.826C161.515 189.791 161.3 189.811 161.101 189.884C160.501 190.142 160.546 190.607 160.701 191.434C160.9 192.341 161.237 193.212 161.701 194.016C162.54 195.566 163.353 197.38 164.282 198.897L164.643 198.568C164.721 198.623 164.81 198.66 164.905 198.674C164.999 198.688 165.096 198.679 165.186 198.649C165.277 198.619 165.359 198.568 165.426 198.5C165.493 198.432 165.543 198.349 165.572 198.258C165.714 197.831 165.738 197.374 165.643 196.935C165.359 194.928 164.593 193.021 163.411 191.375Z" fill="#FFBF9D"/>
<path d="M162.828 196.256C162.16 195.135 161.319 194.126 160.337 193.267C159.996 192.964 159.59 192.743 159.15 192.621C158.923 192.606 158.697 192.666 158.506 192.79C158.315 192.915 158.17 193.098 158.092 193.312C158.043 193.513 158.042 193.723 158.09 193.924C158.139 194.125 158.234 194.312 158.37 194.468C159.724 196.661 161.233 198.754 162.886 200.731L164.06 199.265C164.518 198.135 163.447 197.322 162.828 196.256Z" fill="#FFBF9D"/>
<path d="M127.5 215.543L130.287 215.233L135.19 210.068L137.874 207.278C138.098 207.046 138.381 206.879 138.693 206.794L141.557 206C141.722 206.368 141.747 206.783 141.628 207.168C141.51 207.552 141.255 207.881 140.912 208.092L139.403 209.086L138.112 210.971L138.338 211.327C138.338 211.327 148.073 211.811 148.744 212.476C148.854 212.577 148.94 212.702 148.996 212.841C149.051 212.98 149.075 213.129 149.065 213.279C149.055 213.428 149.012 213.573 148.938 213.703C148.865 213.834 148.763 213.946 148.641 214.032C148.415 214.138 148.168 214.189 147.918 214.18C147.918 214.18 148.499 215.259 147.202 216.337C147.202 216.337 148.409 217.628 146.622 218.48C146.344 219.16 145.828 219.716 145.17 220.043C142.779 220.767 140.349 221.357 137.893 221.812L131.029 222.554L128.719 224.394L127.5 215.543Z" fill="#FFBF9D"/>
<path d="M148.132 214.18C147.287 214.474 146.396 214.616 145.5 214.6C144.611 214.653 143.718 214.616 142.836 214.49C143.711 214.339 144.6 214.276 145.487 214.303C146.366 214.217 147.249 214.176 148.132 214.18Z" fill="#FF9A6C"/>
<path d="M147.226 216.35C147.226 216.388 146.987 216.453 146.581 216.543C146.175 216.634 145.639 216.776 145.02 216.879C144.492 216.952 143.96 216.995 143.426 217.008C143.212 217.039 142.995 217.039 142.781 217.008C142.781 216.963 143.013 216.853 143.426 216.782C143.839 216.711 144.394 216.666 145 216.563C145.607 216.459 146.162 216.363 146.568 216.324C146.975 216.285 147.226 216.311 147.226 216.35Z" fill="#FF9A6C"/>
<path d="M146.803 218.429C145.982 218.742 145.127 218.959 144.255 219.074C143.656 219.144 143.069 219.298 142.513 219.533C142.113 219.739 141.939 219.985 141.868 219.952C141.797 219.92 141.952 219.63 142.378 219.352C142.93 219.039 143.54 218.844 144.171 218.777C145.033 218.563 145.916 218.446 146.803 218.429Z" fill="#FF9A6C"/>
<path d="M109.165 232.213C109.284 232.156 109.407 232.109 109.533 232.071L110.617 231.703L114.694 230.38L128.887 225.86L128.777 226.034C128.325 222.767 127.829 219.191 127.306 215.459C127.216 214.813 127.125 214.116 127.035 213.457L127.229 213.599L109.165 217.028H108.984V216.847C109.559 213.528 110.023 210.817 110.352 208.912C110.52 207.995 110.649 207.272 110.746 206.749C110.791 206.523 110.829 206.336 110.855 206.187C110.864 206.123 110.881 206.06 110.907 206C110.914 206.064 110.914 206.129 110.907 206.194L110.829 206.762C110.752 207.285 110.642 208.014 110.507 208.938C110.204 210.875 109.771 213.561 109.217 216.886L109.165 216.776L127.229 213.27L127.403 213.238V213.412C127.493 214.058 127.583 214.703 127.68 215.414C128.19 219.145 128.68 222.722 129.132 225.989V226.125L129.003 226.164L114.765 230.567L110.662 231.807L109.565 232.123C109.436 232.171 109.302 232.201 109.165 232.213Z" fill="#263238"/>
<path d="M112.698 200.873C112.64 200.873 112.633 199.769 112.408 198.007C112.27 196.977 112.079 195.955 111.833 194.946C111.522 193.714 111.13 192.504 110.659 191.324C110.177 190.147 109.621 189.002 108.995 187.896C108.474 187.005 107.905 186.143 107.292 185.313C106.234 183.886 105.472 183.086 105.518 183.047C105.729 183.195 105.92 183.371 106.085 183.57C106.581 184.075 107.046 184.61 107.479 185.171C108.129 185.991 108.724 186.854 109.259 187.754C110.577 189.97 111.546 192.376 112.13 194.888C112.369 195.911 112.541 196.948 112.646 197.994C112.722 198.697 112.754 199.404 112.743 200.111C112.759 200.366 112.743 200.622 112.698 200.873Z" fill="#263238"/>
<path d="M103.114 223.226C103.09 222.785 103.163 222.345 103.327 221.935C103.659 220.9 104.211 219.95 104.945 219.148C105.679 218.347 106.577 217.714 107.578 217.293C107.982 217.1 108.421 216.991 108.868 216.97C108.868 217.028 108.391 217.157 107.668 217.512C106.735 217.977 105.894 218.607 105.185 219.372C104.48 220.14 103.924 221.033 103.546 222.006C103.262 222.742 103.165 223.239 103.114 223.226Z" fill="#263238"/>
<path d="M165.581 195.773C165.478 195.818 164.936 194.262 163.994 192.545C163.582 191.805 163.093 191.11 162.536 190.472C162.379 190.28 162.186 190.12 161.969 190.001C161.814 189.936 161.717 189.955 161.704 189.93C161.691 189.904 161.801 189.833 162.007 189.878C162.271 189.96 162.511 190.107 162.704 190.304C163.328 190.915 163.86 191.613 164.285 192.377C164.705 193.139 165.052 193.939 165.323 194.766C165.468 195.083 165.555 195.424 165.581 195.773Z" fill="#FF9A6C"/>
<path d="M163.188 196.973C163.104 197.019 162.453 195.928 161.414 194.759C160.375 193.59 159.427 192.744 159.479 192.667C160.325 193.134 161.067 193.769 161.659 194.533C162.345 195.222 162.867 196.056 163.188 196.973Z" fill="#FF9A6C"/>
<path d="M165.813 196.348C165.845 196.348 165.98 196.703 165.813 197.271C165.695 197.603 165.484 197.894 165.206 198.11C164.858 198.371 164.434 198.509 164 198.504C163.847 198.499 163.696 198.478 163.548 198.44L163.742 198.336C163.672 198.52 163.565 198.686 163.425 198.824C163.286 198.962 163.119 199.069 162.935 199.137C162.644 199.246 162.323 199.246 162.032 199.137C161.548 198.937 161.426 198.607 161.458 198.601C161.49 198.595 161.677 198.814 162.103 198.924C162.342 198.993 162.598 198.974 162.826 198.872C162.965 198.812 163.091 198.723 163.196 198.612C163.3 198.501 163.38 198.37 163.432 198.226L163.484 198.084L163.632 198.123C163.755 198.154 163.88 198.171 164.006 198.175C164.338 198.182 164.665 198.093 164.947 197.917C165.228 197.742 165.453 197.488 165.593 197.187C165.682 196.912 165.755 196.631 165.813 196.348Z" fill="#FF9A6C"/>
</svg>
