<svg width="500" height="500" viewBox="0 0 500 500" fill="none" xmlns="http://www.w3.org/2000/svg">
<path d="M316.798 195.34L447.238 195.34V188.64L316.798 188.64V195.34Z" fill="#E0E0E0"/>
<path d="M435.48 188.65H441.23V163.95H435.48V188.65Z" fill="#EBEBEB"/>
<path d="M428.359 188.64H434.109V167.19H428.359V188.64Z" fill="#EBEBEB"/>
<path d="M415.16 188.64H420.91V167.19H415.16V188.64Z" fill="#EBEBEB"/>
<path d="M381.82 188.64H387.57V167.19H381.82V188.64Z" fill="#EBEBEB"/>
<path d="M395.516 187.382L401.129 188.629L405.782 167.69L400.169 166.443L395.516 187.382Z" fill="#EBEBEB"/>
<path d="M423.4 188.64H426.27V162.71H423.4V188.64Z" fill="#EBEBEB"/>
<path d="M389.22 188.64H392.09V162.71H389.22V188.64Z" fill="#EBEBEB"/>
<path d="M329.309 188.43H357.309V169.1H329.309V188.43Z" fill="#EBEBEB"/>
<path d="M500 382.4H0V382.65H500V382.4Z" fill="#EBEBEB"/>
<path d="M449.901 398.49H416.781V398.74H449.901V398.49Z" fill="#EBEBEB"/>
<path d="M331.221 401.21H322.531V401.46H331.221V401.21Z" fill="#EBEBEB"/>
<path d="M415.78 389.21H396.59V389.46H415.78V389.21Z" fill="#EBEBEB"/>
<path d="M95.6509 390.89H52.4609V391.14H95.6509V390.89Z" fill="#EBEBEB"/>
<path d="M110.889 390.89H104.559V391.14H110.889V390.89Z" fill="#EBEBEB"/>
<path d="M225.149 395.11H131.469V395.36H225.149V395.11Z" fill="#EBEBEB"/>
<path d="M237.001 337.8H43.9109C42.3983 337.797 40.9485 337.195 39.8798 336.124C38.8112 335.054 38.2109 333.603 38.2109 332.09V60.66C38.2241 59.156 38.8301 57.718 39.8974 56.6582C40.9646 55.5985 42.4069 55.0026 43.9109 55H237.001C238.515 55 239.968 55.6016 241.039 56.6724C242.109 57.7433 242.711 59.1956 242.711 60.71V332.09C242.711 333.604 242.109 335.057 241.039 336.128C239.968 337.198 238.515 337.8 237.001 337.8ZM43.9109 55.2C42.4646 55.2026 41.0784 55.7791 40.0566 56.8027C39.0348 57.8264 38.4609 59.2136 38.4609 60.66V332.09C38.4609 333.536 39.0348 334.924 40.0566 335.947C41.0784 336.971 42.4646 337.547 43.9109 337.55H237.001C238.448 337.547 239.835 336.971 240.859 335.948C241.882 334.924 242.458 333.537 242.461 332.09V60.66C242.458 59.2127 241.882 57.8255 240.859 56.8021C239.835 55.7787 238.448 55.2026 237.001 55.2H43.9109Z" fill="#EBEBEB"/>
<path d="M453.31 337.8H260.21C258.696 337.797 257.246 337.195 256.175 336.125C255.105 335.054 254.503 333.604 254.5 332.09V60.66C254.516 59.1551 255.124 57.7171 256.193 56.6576C257.262 55.5981 258.705 55.0025 260.21 55H453.31C454.812 55.0052 456.252 55.6022 457.317 56.6617C458.382 57.7212 458.987 59.1578 459 60.66V332.09C459 333.601 458.401 335.05 457.335 336.121C456.268 337.191 454.821 337.795 453.31 337.8ZM260.21 55.2C258.763 55.2026 257.375 55.7787 256.352 56.8021C255.329 57.8255 254.753 59.2127 254.75 60.66V332.09C254.753 333.537 255.329 334.924 256.352 335.948C257.375 336.971 258.763 337.547 260.21 337.55H453.31C454.757 337.547 456.145 336.971 457.168 335.948C458.191 334.924 458.767 333.537 458.77 332.09V60.66C458.767 59.2127 458.191 57.8255 457.168 56.8021C456.145 55.7787 454.757 55.2026 453.31 55.2H260.21Z" fill="#EBEBEB"/>
<path d="M447.241 138.61H316.801V145.31H447.241V138.61Z" fill="#E0E0E0"/>
<path d="M328.551 113.91H322.801V138.61H328.551V113.91Z" fill="#EBEBEB"/>
<path d="M356.34 113.91H350.59V138.61H356.34V113.91Z" fill="#EBEBEB"/>
<path d="M387.889 113.276L382.223 114.253L386.418 138.594L392.085 137.617L387.889 113.276Z" fill="#EBEBEB"/>
<path d="M335.672 117.17H329.922V138.62H335.672V117.17Z" fill="#EBEBEB"/>
<path d="M348.879 117.17H343.129V138.62H348.879V117.17Z" fill="#EBEBEB"/>
<path d="M382.219 117.17H376.469V138.62H382.219V117.17Z" fill="#EBEBEB"/>
<path d="M363.886 116.413L358.273 117.661L362.927 138.6L368.54 137.353L363.886 116.413Z" fill="#EBEBEB"/>
<path d="M340.64 112.68H337.77V138.61H340.64V112.68Z" fill="#EBEBEB"/>
<path d="M374.819 112.68H371.949V138.61H374.819V112.68Z" fill="#EBEBEB"/>
<path d="M434.719 119.06H406.719V138.39H434.719V119.06Z" fill="#EBEBEB"/>
<path d="M407.699 188.65H413.449V163.95H407.699V188.65Z" fill="#EBEBEB"/>
<path d="M371.962 187.668L377.629 188.645L381.825 164.304L376.158 163.327L371.962 187.668Z" fill="#EBEBEB"/>
<path d="M53 266V383H59V278H165V383H172V266H53Z" fill="#E0E0E0"/>
<path d="M119 266V383H125V278H231V383H238V266H119Z" fill="#F5F5F5"/>
<path d="M156.882 222.4C155.542 220.2 153.342 222.12 153.342 222.12C153.652 217.89 149.772 215.01 149.772 215.01C149.772 215.01 154.282 215.01 154.912 210.7C155.542 206.39 153.342 208.4 151.272 208.37C149.202 208.34 147.042 214.37 149.772 217.77C152.502 221.17 151.772 226.97 145.472 232.54C143.964 233.949 142.833 235.712 142.182 237.67C142.662 232.55 142.932 225.33 141.422 220.52C138.862 212.33 143.742 210.13 145.152 206.04C146.562 201.95 141.422 198.48 141.422 198.48C141.422 198.48 146.262 196.28 143.892 193.76C141.522 191.24 136.662 191.58 136.662 194.88C136.662 198.18 139.962 199.43 139.962 199.43C139.962 199.43 143.742 203.36 143.742 205.43C143.742 207.5 139.962 211.88 139.962 211.88C139.962 211.88 141.692 208.11 138.232 207.95C134.772 207.79 133.662 212.35 135.082 214.4C136.502 216.45 138.862 214.71 138.862 214.71C139.006 217.098 139.368 219.468 139.942 221.79C140.292 222.97 140.132 227.59 139.832 232.39C139.173 230.657 138.123 229.099 136.762 227.84C130.472 222.27 129.762 216.47 132.462 213.07C135.162 209.67 133.032 203.64 130.962 203.67C128.892 203.7 126.692 201.67 127.322 206C127.952 210.33 132.462 210.31 132.462 210.31C132.462 210.31 128.582 213.19 128.902 217.42C128.902 217.42 126.692 215.5 125.352 217.7C122.972 221.64 128.502 224.08 129.432 222.14C129.432 222.14 141.172 230.45 138.342 242.41L139.002 243.41C138.912 244.41 138.862 244.96 138.862 244.96L139.782 244.57L140.782 246.11C140.746 247.848 140.836 249.585 141.052 251.31L143.852 247.16C141.022 235.16 152.762 226.89 152.762 226.89C153.732 228.78 159.272 226.34 156.882 222.4Z" fill="#E0E0E0"/>
<path d="M149.77 266L145.98 244.31L147.05 238H135.12L136.19 244.31L132.41 266H149.77Z" fill="#EBEBEB"/>
<path d="M249.999 427.56C357.082 427.56 443.889 422.492 443.889 416.24C443.889 409.988 357.082 404.92 249.999 404.92C142.917 404.92 56.1094 409.988 56.1094 416.24C56.1094 422.492 142.917 427.56 249.999 427.56Z" fill="#F5F5F5"/>
<path d="M300.739 107.29L269.934 90.6547L248.209 130.884L279.014 147.519L300.739 107.29Z" fill="#FE6100"/>
<path opacity="0.6" d="M300.739 107.29L269.934 90.6547L248.209 130.884L279.014 147.519L300.739 107.29Z" fill="white"/>
<path d="M293.067 110.509L271.457 98.8394L270.283 101.013L291.894 112.683L293.067 110.509Z" fill="#FE6100"/>
<path d="M291.013 114.318L269.402 102.648L268.229 104.821L289.839 116.491L291.013 114.318Z" fill="#FE6100"/>
<path d="M288.954 118.122L267.344 106.452L266.17 108.626L287.78 120.296L288.954 118.122Z" fill="#FE6100"/>
<path d="M286.892 121.926L265.281 110.256L264.108 112.429L285.718 124.099L286.892 121.926Z" fill="#FE6100"/>
<path d="M284.841 125.726L263.23 114.056L262.057 116.229L283.667 127.899L284.841 125.726Z" fill="#FE6100"/>
<path d="M282.79 129.539L261.18 117.869L260.006 120.042L281.616 131.713L282.79 129.539Z" fill="#FE6100"/>
<path d="M280.739 133.339L259.129 121.669L257.955 123.842L279.566 135.512L280.739 133.339Z" fill="#FE6100"/>
<path d="M271.053 133.032L257.062 125.477L255.889 127.65L269.879 135.205L271.053 133.032Z" fill="#FE6100"/>
<path d="M218.891 107.59C214.533 107.144 210.405 105.416 207.029 102.624C203.653 99.8316 201.181 96.1012 199.926 91.9042C198.67 87.7072 198.687 83.232 199.974 79.0447C201.262 74.8573 203.763 71.1459 207.16 68.3796C210.557 65.6133 214.698 63.9165 219.059 63.5037C223.42 63.0909 227.806 63.9807 231.662 66.0605C235.517 68.1403 238.67 71.3167 240.72 75.1881C242.771 79.0595 243.627 83.452 243.181 87.8101C242.575 93.6509 239.678 99.0132 235.125 102.721C230.571 106.429 224.733 108.18 218.891 107.59Z" fill="#FE6100"/>
<path opacity="0.3" d="M222.705 105.682C233.833 104.826 242.161 95.1098 241.304 83.981C240.448 72.8522 230.732 64.5247 219.604 65.381C208.475 66.2373 200.147 75.9532 201.004 87.082C201.86 98.2107 211.576 106.538 222.705 105.682Z" fill="white"/>
<path d="M228.004 79.0001C225.674 77.3501 222.424 71.7101 222.424 71.6801L220.324 92.1201C220.374 91.6601 218.554 91.1901 217.324 91.1201C214.394 90.8101 211.924 92.1901 211.724 94.1201C211.524 96.0501 213.724 97.9701 216.724 98.2701C219.724 98.5701 222.094 97.1901 222.304 95.2101C222.304 94.9101 222.094 94.5901 222.124 94.3201L223.734 78.5701C224.937 79.9552 226.415 81.0755 228.074 81.8601C230.284 82.8601 231.074 85.9301 231.074 85.9301C231.182 84.6104 230.958 83.2846 230.421 82.074C229.885 80.8633 229.054 79.8065 228.004 79.0001Z" fill="white"/>
<path opacity="0.5" d="M224.899 92.6299C232.714 88.5772 236.327 80.0415 232.968 73.5649C229.61 67.0883 220.552 65.1233 212.736 69.176C204.921 73.2287 201.309 81.7644 204.667 88.241C208.026 94.7176 217.084 96.6826 224.899 92.6299Z" fill="white"/>
<path d="M177.788 56.8004L130.195 60.6714L133.094 96.3037L180.686 92.4327L177.788 56.8004Z" fill="#FE6100"/>
<path d="M175.675 59.3009L132.816 62.7869L135.33 93.6848L178.188 90.1989L175.675 59.3009Z" fill="#FE6100"/>
<path opacity="0.5" d="M175.675 59.3009L132.816 62.7869L135.33 93.6848L178.188 90.1989L175.675 59.3009Z" fill="white"/>
<path d="M177.842 86.0001L178.182 90.2001L135.322 93.6901L134.102 78.6701L142.312 70.2101L156.482 81.9401L163.022 76.3101L177.842 86.0001Z" fill="#FE6100"/>
<path opacity="0.3" d="M177.842 86.0001L178.182 90.2001L135.322 93.6901L134.102 78.6701L142.312 70.2101L156.482 81.9401L163.022 76.3101L177.842 86.0001Z" fill="white"/>
<path d="M169.19 68.0001C169.245 68.682 169.097 69.365 168.764 69.9627C168.431 70.5604 167.928 71.046 167.319 71.3579C166.71 71.6699 166.022 71.7944 165.343 71.7156C164.663 71.6367 164.022 71.3582 163.501 70.9151C162.979 70.472 162.601 69.8843 162.414 69.2262C162.226 68.5682 162.238 67.8694 162.448 67.2181C162.658 66.5668 163.056 65.9923 163.592 65.5673C164.128 65.1422 164.778 64.8857 165.46 64.8301C165.913 64.7931 166.369 64.8458 166.802 64.9851C167.234 65.1245 167.636 65.3477 167.982 65.6421C168.328 65.9365 168.613 66.2963 168.821 66.7009C169.028 67.1055 169.153 67.5469 169.19 68.0001Z" fill="#FE6100"/>
<path opacity="0.3" d="M169.19 68.0001C169.245 68.682 169.097 69.365 168.764 69.9627C168.431 70.5604 167.928 71.046 167.319 71.3579C166.71 71.6699 166.022 71.7944 165.343 71.7156C164.663 71.6367 164.022 71.3582 163.501 70.9151C162.979 70.472 162.601 69.8843 162.414 69.2262C162.226 68.5682 162.238 67.8694 162.448 67.2181C162.658 66.5668 163.056 65.9923 163.592 65.5673C164.128 65.1422 164.778 64.8857 165.46 64.8301C165.913 64.7931 166.369 64.8458 166.802 64.9851C167.234 65.1245 167.636 65.3477 167.982 65.6421C168.328 65.9365 168.613 66.2963 168.821 66.7009C169.028 67.1055 169.153 67.5469 169.19 68.0001Z" fill="white"/>
<path d="M86.3917 98.87L84.5517 97.74C84.2255 97.5384 83.8565 97.4161 83.4744 97.3831C83.0922 97.3501 82.7077 97.4073 82.3517 97.55L74.1817 101C73.8383 101.14 73.537 101.366 73.3074 101.657C73.0777 101.948 72.9276 102.294 72.8717 102.66L72.5717 104.66C72.521 105.026 72.3738 105.371 72.1453 105.661C71.9169 105.951 71.6153 106.175 71.2717 106.31L66.3917 108.31C66.113 108.423 65.8611 108.594 65.6524 108.81C65.4437 109.027 65.2828 109.285 65.18 109.568C65.0773 109.851 65.035 110.152 65.056 110.452C65.077 110.752 65.1607 111.044 65.3017 111.31L78.3017 137.95C78.5766 138.502 79.0488 138.931 79.6248 139.151C80.2008 139.372 80.8385 139.368 81.4117 139.14L120.072 123C120.352 122.889 120.606 122.72 120.817 122.504C121.028 122.288 121.19 122.03 121.294 121.747C121.398 121.463 121.441 121.161 121.42 120.86C121.399 120.559 121.314 120.266 121.172 120L108.172 93.37C107.899 92.8162 107.427 92.3853 106.851 92.163C106.275 91.9407 105.636 91.9432 105.062 92.17L88.5917 99.06C88.2357 99.2028 87.8512 99.26 87.4691 99.2269C87.087 99.1939 86.718 99.0717 86.3917 98.87Z" fill="#FE6100"/>
<path d="M110.002 93.1601L74.592 108C73.8698 108.312 73.2875 108.879 72.9557 109.593C72.6238 110.306 72.5656 111.117 72.792 111.87L80.542 136.4C80.6512 136.752 80.8338 137.076 81.0776 137.352C81.3215 137.627 81.6212 137.848 81.9568 137.999C82.2923 138.151 82.6562 138.229 83.0243 138.229C83.3924 138.229 83.7564 138.151 84.092 138L119.512 123.18C120.231 122.864 120.811 122.297 121.142 121.585C121.474 120.872 121.534 120.064 121.312 119.31L113.552 94.7801C113.446 94.4258 113.266 94.0983 113.024 93.8194C112.781 93.5406 112.481 93.3169 112.145 93.1634C111.809 93.01 111.444 92.9303 111.074 92.9297C110.704 92.9291 110.339 93.0077 110.002 93.1601Z" fill="#FE6100"/>
<path opacity="0.5" d="M110.002 93.1601L74.592 108C73.8698 108.312 73.2875 108.879 72.9557 109.593C72.6238 110.306 72.5656 111.117 72.792 111.87L80.542 136.4C80.6512 136.752 80.8338 137.076 81.0776 137.352C81.3215 137.627 81.6212 137.848 81.9568 137.999C82.2923 138.151 82.6562 138.229 83.0243 138.229C83.3924 138.229 83.7564 138.151 84.092 138L119.512 123.18C120.231 122.864 120.811 122.297 121.142 121.585C121.474 120.872 121.534 120.064 121.312 119.31L113.552 94.7801C113.446 94.4258 113.266 94.0983 113.024 93.8194C112.781 93.5406 112.481 93.3169 112.145 93.1634C111.809 93.01 111.444 92.9303 111.074 92.9297C110.704 92.9291 110.339 93.0077 110.002 93.1601Z" fill="white"/>
<path d="M238.482 152C238.921 149.936 239.142 147.831 239.142 145.72C239.142 141.804 238.37 137.926 236.872 134.308C235.373 130.691 233.177 127.403 230.408 124.634C227.638 121.865 224.351 119.669 220.733 118.17C217.115 116.671 213.238 115.9 209.322 115.9C207.473 115.902 205.629 116.073 203.812 116.41C203.052 116.27 202.282 116.41 201.492 116.32C198.681 110.213 194.168 105.047 188.493 101.443C182.818 97.8383 176.224 95.9484 169.502 96.0001H158.502C153.898 95.9777 149.335 96.8638 145.074 98.6077C140.813 100.352 136.938 102.919 133.671 106.163C130.404 109.407 127.809 113.263 126.035 117.511C124.261 121.76 123.342 126.316 123.332 130.92C123.332 131.18 123.332 131.31 123.332 131.57C116.057 132.855 109.531 136.828 105.049 142.7C100.567 148.572 98.4569 155.915 99.1367 163.271C99.8165 170.627 103.237 177.458 108.719 182.409C114.201 187.361 121.345 190.07 128.732 190H236.732C241.771 190.229 246.695 188.448 250.42 185.047C254.145 181.646 256.367 176.904 256.597 171.865C256.826 166.826 255.044 161.902 251.643 158.177C248.242 154.451 243.501 152.229 238.462 152H238.482Z" fill="#FE6100"/>
<path opacity="0.5" d="M238.482 152C238.921 149.936 239.142 147.831 239.142 145.72C239.142 141.804 238.37 137.926 236.872 134.308C235.373 130.691 233.177 127.403 230.408 124.634C227.638 121.865 224.351 119.669 220.733 118.17C217.115 116.671 213.238 115.9 209.322 115.9C207.473 115.902 205.629 116.073 203.812 116.41C203.052 116.27 202.282 116.41 201.492 116.32C198.681 110.213 194.168 105.047 188.493 101.443C182.818 97.8383 176.224 95.9484 169.502 96.0001H158.502C153.898 95.9777 149.335 96.8638 145.074 98.6077C140.813 100.352 136.938 102.919 133.671 106.163C130.404 109.407 127.809 113.263 126.035 117.511C124.261 121.76 123.342 126.316 123.332 130.92C123.332 131.18 123.332 131.31 123.332 131.57C116.057 132.855 109.531 136.828 105.049 142.7C100.567 148.572 98.4569 155.915 99.1367 163.271C99.8165 170.627 103.237 177.458 108.719 182.409C114.201 187.361 121.345 190.07 128.732 190H236.732C241.771 190.229 246.695 188.448 250.42 185.047C254.145 181.646 256.367 176.904 256.597 171.865C256.826 166.826 255.044 161.902 251.643 158.177C248.242 154.451 243.501 152.229 238.462 152H238.482Z" fill="white"/>
<path opacity="0.4" d="M238.482 152C238.921 149.936 239.142 147.831 239.142 145.72C239.142 141.804 238.37 137.926 236.872 134.308C235.373 130.691 233.177 127.403 230.408 124.634C227.638 121.865 224.351 119.669 220.733 118.17C217.115 116.671 213.238 115.9 209.322 115.9C207.473 115.902 205.629 116.073 203.812 116.41C203.052 116.27 202.282 116.41 201.492 116.32C198.681 110.213 194.168 105.047 188.493 101.443C182.818 97.8383 176.224 95.9484 169.502 96.0001C164.898 95.9777 160.335 96.8638 156.074 98.6077C151.813 100.352 147.938 102.919 144.671 106.163C141.404 109.407 138.809 113.263 137.035 117.511C135.261 121.76 134.342 126.316 134.332 130.92C134.332 131.18 134.332 131.31 134.332 131.57C127.057 132.855 120.531 136.828 116.049 142.7C111.567 148.572 109.457 155.915 110.137 163.271C110.817 170.627 114.237 177.458 119.719 182.409C125.201 187.361 132.345 190.07 139.732 190H236.732C241.771 190.229 246.695 188.448 250.42 185.047C254.145 181.646 256.367 176.904 256.597 171.865C256.826 166.826 255.044 161.902 251.643 158.177C248.242 154.451 243.501 152.229 238.462 152H238.482Z" fill="white"/>
<path d="M267.67 239H234C220.744 238.984 208.036 233.711 198.662 224.338C189.289 214.964 184.016 202.256 184 189V179H174V189C174.019 204.907 180.346 220.158 191.594 231.406C202.842 242.654 218.093 248.981 234 249H267.67V239Z" fill="#FE6100"/>
<path d="M178.881 172.34L170.211 181H187.541L178.881 172.34Z" fill="#FE6100"/>
<path d="M104.281 367.33L98.2812 349C101.24 346.474 104.725 344.64 108.483 343.632C112.24 342.623 116.175 342.466 120.001 343.17L125.001 360.33L104.281 367.33Z" fill="#FE6100"/>
<path opacity="0.7" d="M104.281 367.33L98.2812 349C101.24 346.474 104.725 344.64 108.483 343.632C112.24 342.623 116.175 342.466 120.001 343.17L125.001 360.33L104.281 367.33Z" fill="white"/>
<g opacity="0.2">
<path d="M101.141 353.33C101.857 352.53 102.651 351.803 103.511 351.16C104.388 350.482 105.318 349.873 106.291 349.34C106.821 349.06 107.381 348.76 107.971 348.5C108.561 348.24 109.151 347.99 109.781 347.8C110.394 347.593 111.018 347.419 111.651 347.28L112.581 347.07L113.511 346.96C113.811 346.96 114.111 346.87 114.401 346.85H115.261C115.788 346.82 116.316 346.837 116.841 346.9C117.321 346.95 117.761 346.99 118.151 347.06L119.151 347.29L120.001 347.51C120.001 347.51 119.671 347.51 119.121 347.51L118.121 347.46H116.821C116.315 347.472 115.811 347.513 115.311 347.58C114.75 347.631 114.192 347.715 113.641 347.83L112.761 347.99L111.881 348.22C111.278 348.363 110.684 348.54 110.101 348.75C109.491 348.91 108.921 349.18 108.341 349.39C107.761 349.6 107.221 349.87 106.691 350.12C106.161 350.37 105.691 350.62 105.171 350.89C104.651 351.16 104.241 351.39 103.831 351.63C103.011 352.11 102.331 352.52 101.831 352.84L101.141 353.33Z" fill="black"/>
<path d="M101.672 355C101.672 355 101.902 354.8 102.342 354.49C102.782 354.18 103.402 353.73 104.192 353.27C105.089 352.729 106.013 352.235 106.962 351.79C107.962 351.29 109.152 350.85 110.302 350.43C110.892 350.26 111.482 350.06 112.062 349.9C112.642 349.74 113.232 349.6 113.802 349.51C114.372 349.42 114.922 349.29 115.452 349.25C115.982 349.21 116.452 349.14 116.942 349.13C117.683 349.109 118.424 349.135 119.162 349.21L120.002 349.31C120.002 349.31 119.692 349.36 119.162 349.41C118.902 349.41 118.582 349.41 118.222 349.51L117.002 349.7C116.552 349.77 116.082 349.9 115.572 349.99C115.062 350.08 114.572 350.25 114.002 350.37C113.432 350.49 112.902 350.69 112.332 350.83C111.762 350.97 111.202 351.2 110.632 351.38C108.352 352.14 106.122 353.06 104.452 353.77C103.622 354.14 102.912 354.42 102.452 354.65L101.672 355Z" fill="black"/>
<path d="M103.082 358.42C103.278 358.225 103.485 358.041 103.702 357.87C104.102 357.54 104.702 357.07 105.422 356.56C106.267 355.979 107.145 355.448 108.052 354.97C109.09 354.413 110.162 353.922 111.262 353.5C112.369 353.083 113.506 352.749 114.662 352.5C115.197 352.389 115.738 352.309 116.282 352.26C116.802 352.26 117.282 352.15 117.742 352.16L118.972 352.21C119.342 352.21 119.652 352.3 119.912 352.33L120.722 352.47C120.722 352.47 120.422 352.47 119.902 352.52C119.642 352.52 119.332 352.52 118.982 352.58L117.782 352.74C117.352 352.79 116.892 352.91 116.392 352.99C115.892 353.07 115.392 353.25 114.862 353.36C114.332 353.47 113.802 353.69 113.252 353.84C112.702 353.99 112.162 354.22 111.612 354.41C111.062 354.6 110.522 354.82 109.992 355.05C109.462 355.28 108.932 355.48 108.442 355.72C107.442 356.17 106.512 356.63 105.722 357.02C104.932 357.41 104.262 357.75 103.812 358.02L103.082 358.42Z" fill="black"/>
<path d="M103.922 360.75C104.615 360.064 105.368 359.442 106.172 358.89C106.997 358.32 107.859 357.805 108.752 357.35C109.252 357.11 109.752 356.87 110.302 356.65C110.852 356.43 111.392 356.22 111.962 356.06C112.524 355.884 113.095 355.737 113.672 355.62C114.229 355.493 114.793 355.402 115.362 355.35C115.892 355.281 116.427 355.251 116.962 355.26C117.436 355.244 117.911 355.264 118.382 355.32L119.582 355.48L120.482 355.7C120.972 355.83 121.252 355.92 121.252 355.92C121.252 355.92 120.952 355.92 120.452 355.92H119.542H118.372C117.914 355.919 117.456 355.946 117.002 356C116.492 356.043 115.985 356.113 115.482 356.21C114.962 356.28 114.482 356.43 113.882 356.55C113.282 356.67 112.802 356.84 112.262 357C111.196 357.324 110.148 357.704 109.122 358.14C108.122 358.56 107.232 358.99 106.462 359.37C105.692 359.75 105.052 360.09 104.612 360.37L103.922 360.75Z" fill="black"/>
<path d="M105.082 363.87C105.268 363.675 105.465 363.492 105.672 363.32C106.062 362.99 106.612 362.52 107.322 362.01C108.132 361.429 108.977 360.898 109.852 360.42C110.322 360.15 110.852 359.89 111.352 359.65C111.852 359.41 112.422 359.2 112.962 358.96C113.502 358.72 114.072 358.58 114.622 358.41C115.172 358.24 115.732 358.12 116.282 358.02C116.801 357.923 117.325 357.853 117.852 357.81C118.362 357.81 118.852 357.73 119.282 357.75L120.482 357.83C120.832 357.83 121.142 357.95 121.392 357.99L122.172 358.17H121.372C121.122 358.17 120.812 358.17 120.472 358.17L119.312 358.28C118.892 358.33 118.432 358.44 117.962 358.5C117.492 358.56 116.962 358.74 116.472 358.84C115.982 358.94 115.472 359.16 114.902 359.3C114.332 359.44 113.842 359.66 113.312 359.86C112.782 360.06 112.252 360.26 111.742 360.49C111.232 360.72 110.742 360.92 110.242 361.16C109.242 361.61 108.392 362.07 107.622 362.46C106.852 362.85 106.212 363.18 105.782 363.46L105.082 363.87Z" fill="black"/>
</g>
<path d="M101.681 367.46L114.001 358.12C114.151 358.004 114.324 357.922 114.509 357.879C114.693 357.836 114.885 357.833 115.071 357.87L129.141 360.54C129.417 360.59 129.67 360.726 129.865 360.927C130.061 361.127 130.189 361.384 130.231 361.661C130.274 361.938 130.23 362.222 130.104 362.472C129.979 362.723 129.778 362.928 129.531 363.06L117.921 369.35C117.732 369.447 117.523 369.502 117.311 369.51L102.511 369.89C102.226 369.894 101.947 369.808 101.714 369.644C101.48 369.48 101.305 369.246 101.213 368.976C101.121 368.707 101.117 368.415 101.201 368.142C101.285 367.87 101.453 367.631 101.681 367.46Z" fill="#FE6100"/>
<path d="M123.891 373C123.891 373 142.831 327.17 146.171 324.33C149.511 321.49 170.671 333.8 170.671 333.8L151.831 382.17L123.891 373Z" fill="#FE6100"/>
<path opacity="0.2" d="M129.33 372.67C129.33 372.67 147.47 328.89 150.17 327C152.87 325.11 168.33 333.17 168.33 333.17C168.33 333.17 152.22 323.33 147.28 325C142.34 326.67 125.5 371.67 125.5 371.67L129.33 372.67Z" fill="black"/>
<path d="M167.499 368.5H87.0586V416H167.499V368.5Z" fill="#263238"/>
<path opacity="0.2" d="M167.499 368.5H87.0586V416H167.499V368.5Z" fill="white"/>
<path opacity="0.4" d="M167.499 368.5H117.559V416H167.499V368.5Z" fill="white"/>
<path d="M117.559 369L136.499 353.75L178.749 356.63L167.499 369H117.559Z" fill="#263238"/>
<path d="M117.56 369L103.25 352.5L73 355.75L87.06 368.5L117.56 369Z" fill="#263238"/>
<path opacity="0.1" d="M117.56 369L103.25 352.5L73 355.75L87.06 368.5L117.56 369Z" fill="white"/>
<path opacity="0.4" d="M117.559 369L136.499 353.75L178.749 356.63L167.499 369H117.559Z" fill="white"/>
<path d="M152.268 390.36C149.741 390.36 147.27 391.109 145.168 392.514C143.066 393.918 141.428 395.914 140.461 398.249C139.494 400.584 139.241 403.154 139.734 405.633C140.227 408.112 141.444 410.389 143.231 412.177C145.019 413.964 147.296 415.181 149.775 415.674C152.254 416.167 154.824 415.914 157.159 414.947C159.494 413.98 161.49 412.342 162.894 410.24C164.299 408.138 165.048 405.668 165.048 403.14C165.048 399.75 163.702 396.5 161.305 394.103C158.908 391.706 155.658 390.36 152.268 390.36ZM152.268 408.23C151.259 408.23 150.273 407.93 149.434 407.37C148.595 406.809 147.941 406.012 147.556 405.079C147.17 404.147 147.069 403.121 147.267 402.131C147.465 401.142 147.951 400.233 148.666 399.52C149.38 398.807 150.29 398.322 151.279 398.127C152.269 397.931 153.295 398.033 154.227 398.421C155.159 398.809 155.954 399.464 156.514 400.304C157.073 401.144 157.37 402.131 157.368 403.14C157.368 403.809 157.236 404.472 156.98 405.09C156.723 405.708 156.348 406.27 155.874 406.743C155.4 407.215 154.838 407.59 154.219 407.845C153.601 408.101 152.938 408.231 152.268 408.23Z" fill="#FE6100"/>
<path opacity="0.7" d="M163.791 397.59C163.56 397.117 163.3 396.66 163.011 396.22C162.637 395.625 162.208 395.066 161.731 394.55C159.547 392.129 156.513 390.646 153.261 390.41C152.929 390.373 152.595 390.356 152.261 390.36C150.32 390.363 148.406 390.808 146.662 391.661C144.919 392.514 143.392 393.752 142.198 395.282C141.004 396.812 140.174 398.594 139.771 400.493C139.368 402.391 139.402 404.357 139.871 406.24C139.99 406.73 140.143 407.212 140.331 407.68C140.599 408.377 140.934 409.047 141.331 409.68C142.368 411.41 143.8 412.87 145.511 413.939C147.221 415.008 149.161 415.656 151.171 415.83C151.541 415.83 151.911 415.88 152.281 415.88C154.442 415.878 156.568 415.328 158.459 414.282C160.35 413.236 161.945 411.728 163.096 409.898C164.246 408.069 164.914 405.978 165.038 403.82C165.161 401.662 164.735 399.509 163.801 397.56L163.791 397.59ZM152.271 408.23C152.111 408.24 151.951 408.24 151.791 408.23C150.867 408.145 149.984 407.809 149.238 407.257C148.492 406.705 147.912 405.959 147.561 405.1C147.442 404.808 147.349 404.507 147.281 404.2C147.247 404.008 147.224 403.814 147.211 403.62C147.201 403.47 147.201 403.32 147.211 403.17C147.21 402.501 147.34 401.838 147.596 401.219C147.851 400.6 148.226 400.038 148.698 399.564C149.171 399.091 149.733 398.715 150.351 398.458C150.969 398.202 151.632 398.07 152.301 398.07C152.421 398.06 152.541 398.06 152.661 398.07C153.711 398.136 154.714 398.527 155.531 399.19C155.732 399.358 155.92 399.542 156.091 399.74C156.238 399.898 156.372 400.069 156.491 400.25C157.088 401.099 157.406 402.112 157.401 403.15C157.4 403.821 157.266 404.485 157.007 405.104C156.748 405.723 156.369 406.285 155.893 406.757C155.416 407.229 154.85 407.602 154.229 407.855C153.607 408.108 152.942 408.235 152.271 408.23Z" fill="white"/>
<path opacity="0.2" d="M151.79 408.2L151.16 415.86C149.151 415.686 147.211 415.038 145.5 413.969C143.79 412.9 142.357 411.44 141.32 409.71L147.56 405.07C147.911 405.929 148.492 406.675 149.237 407.227C149.983 407.779 150.866 408.115 151.79 408.2Z" fill="white"/>
<path opacity="0.2" d="M161.729 394.55L155.499 399.18C154.682 398.517 153.679 398.126 152.629 398.06L153.259 390.41C156.51 390.646 159.545 392.129 161.729 394.55Z" fill="white"/>
<path opacity="0.2" d="M147.279 404.17L140.339 407.68C140.151 407.212 139.997 406.73 139.879 406.24L147.209 403.59C147.222 403.784 147.245 403.978 147.279 404.17Z" fill="white"/>
<path opacity="0.2" d="M163.789 397.59L156.459 400.24C156.34 400.059 156.206 399.889 156.059 399.73L163.009 396.22C163.297 396.66 163.558 397.117 163.789 397.59Z" fill="white"/>
<path d="M161.6 393.91C154.6 393.91 150.77 398.84 153.17 404.91C155.57 410.98 163.22 415.91 170.27 415.91C177.32 415.91 181.11 410.99 178.71 404.91C176.31 398.83 168.66 393.91 161.6 393.91ZM167.67 409.3C166.239 409.268 164.845 408.842 163.641 408.067C162.437 407.292 161.471 406.199 160.85 404.91C159.85 402.49 161.4 400.52 164.21 400.52C165.641 400.554 167.034 400.981 168.237 401.756C169.441 402.53 170.407 403.622 171.03 404.91C172 407.33 170.48 409.3 167.67 409.3Z" fill="#FE6100"/>
<path opacity="0.1" d="M175.572 400.13C175.182 399.73 174.772 399.33 174.332 398.95C173.747 398.433 173.129 397.956 172.482 397.52C169.571 395.467 166.162 394.234 162.612 393.95C162.262 393.95 161.932 393.95 161.612 393.95C154.612 393.95 150.782 398.87 153.182 404.95C153.553 405.893 154.033 406.789 154.612 407.62C154.917 408.055 155.251 408.469 155.612 408.86C156.124 409.484 156.682 410.069 157.282 410.61C160.568 413.634 164.756 415.496 169.202 415.91C169.582 415.91 169.962 415.91 170.332 415.91C177.392 415.91 181.172 410.98 178.782 404.91C178.027 403.126 176.938 401.503 175.572 400.13ZM167.662 409.3H167.172C165.133 409.099 163.245 408.139 161.882 406.61C161.668 406.366 161.474 406.105 161.302 405.83C161.202 405.669 161.112 405.502 161.032 405.33C160.964 405.204 160.904 405.074 160.852 404.94C159.852 402.51 161.402 400.55 164.212 400.55C164.332 400.54 164.452 400.54 164.572 400.55C165.716 400.637 166.827 400.978 167.822 401.55C168.081 401.695 168.332 401.855 168.572 402.03C168.773 402.162 168.963 402.309 169.142 402.47C169.975 403.126 170.629 403.983 171.042 404.96C172.002 407.33 170.482 409.3 167.662 409.3Z" fill="white"/>
<path opacity="0.2" d="M167.17 409.27L169.17 415.87C164.724 415.456 160.536 413.594 157.25 410.57L161.91 406.57C163.264 408.096 165.141 409.059 167.17 409.27Z" fill="white"/>
<path opacity="0.2" d="M172.48 397.52L167.82 401.52C166.825 400.948 165.715 400.607 164.57 400.52L162.57 393.93C166.137 394.213 169.56 395.453 172.48 397.52Z" fill="white"/>
<path opacity="0.2" d="M161.301 405.8L155.551 408.8C155.19 408.409 154.856 407.995 154.551 407.56L161.001 405.3C161.091 405.472 161.191 405.639 161.301 405.8Z" fill="white"/>
<path opacity="0.2" d="M175.57 400.13L169.14 402.42C168.962 402.259 168.771 402.112 168.57 401.98L174.33 398.98C174.77 399.33 175.18 399.73 175.57 400.13Z" fill="white"/>
<path d="M372.402 330L372.762 345.57L374.402 416H379.812L381.442 345.57L381.802 330H372.402Z" fill="#FE6100"/>
<path opacity="0.4" d="M372.402 330L372.762 345.57L374.402 416H379.812L381.442 345.57L381.802 330H372.402Z" fill="white"/>
<path opacity="0.2" d="M372.402 330L372.762 346H381.442L381.802 330H372.402Z" fill="black"/>
<path d="M343.02 415.75L348.02 331.1H356.19L349.19 415.75H343.02Z" fill="#FE6100"/>
<path opacity="0.5" d="M349.211 415.75H343.031L347.571 338.7L348.021 331H356.191L355.561 338.7L349.211 415.75Z" fill="white"/>
<path opacity="0.2" d="M356.19 331L355.56 339H347.57L348.02 331H356.19Z" fill="black"/>
<path d="M405.02 415.75L398.02 331.1H406.19L411.19 415.75H405.02Z" fill="#FE6100"/>
<path opacity="0.5" d="M405 415.75L398.65 338.7L398.02 331H406.19L406.64 338.7L411.18 415.75H405Z" fill="white"/>
<path opacity="0.2" d="M398.02 331L398.65 339H406.64L406.19 331H398.02Z" fill="black"/>
<path d="M410.562 334.03H343.642V327.36C343.642 326.034 344.169 324.762 345.107 323.825C346.045 322.887 347.316 322.36 348.642 322.36H405.562C406.889 322.36 408.16 322.887 409.098 323.825C410.036 324.762 410.562 326.034 410.562 327.36V334.05V334.03Z" fill="#FE6100"/>
<path d="M342.45 334.02H411.76C412.87 334.02 413.77 333.12 413.77 332.01V330.19C413.77 329.08 412.87 328.18 411.76 328.18H342.45C341.339 328.18 340.44 329.08 340.44 330.19V332.01C340.44 333.12 341.339 334.02 342.45 334.02Z" fill="#FE6100"/>
<path opacity="0.6" d="M342.45 334.02H411.76C412.87 334.02 413.77 333.12 413.77 332.01V330.19C413.77 329.08 412.87 328.18 411.76 328.18H342.45C341.339 328.18 340.44 329.08 340.44 330.19V332.01C340.44 333.12 341.339 334.02 342.45 334.02Z" fill="white"/>
<path d="M300.113 416H306.233L307.243 262.75H299.113L300.113 416Z" fill="#FE6100"/>
<path opacity="0.4" d="M299.102 263L299.262 287.73L300.102 416H306.232L307.072 287.73L307.232 263H299.102Z" fill="white"/>
<path opacity="0.2" d="M299.102 263L299.262 288H307.072L307.232 263H299.102Z" fill="black"/>
<path d="M235.07 416H241.19L252.2 262.75H244.07L235.07 416Z" fill="#FE6100"/>
<path opacity="0.5" d="M235.062 416H241.193L251.663 270.37L252.202 263H244.073L243.633 270.37L235.062 416Z" fill="white"/>
<path opacity="0.2" d="M243.633 270H251.663L252.203 263H244.073L243.633 270Z" fill="black"/>
<path d="M365.151 416H371.271L362.271 262.75H354.141L365.151 416Z" fill="#FE6100"/>
<path opacity="0.5" d="M354.141 263L354.681 270.37L365.151 416H371.271L362.711 270.37L362.271 263H354.141Z" fill="white"/>
<path opacity="0.2" d="M362.271 263H354.141L354.681 270H362.711L362.271 263Z" fill="black"/>
<path d="M366.551 266.59H239.791C239.507 266.59 239.226 266.534 238.964 266.426C238.702 266.317 238.464 266.158 238.264 265.957C238.063 265.757 237.904 265.519 237.795 265.257C237.687 264.994 237.631 264.714 237.631 264.43V258.92H368.711V264.43C368.711 265.003 368.483 265.552 368.078 265.957C367.673 266.362 367.124 266.59 366.551 266.59Z" fill="#FE6100"/>
<path opacity="0.6" d="M366.551 266.59H239.791C239.507 266.59 239.226 266.534 238.964 266.426C238.702 266.317 238.464 266.158 238.264 265.957C238.063 265.757 237.904 265.519 237.795 265.257C237.687 264.994 237.631 264.714 237.631 264.43V258.92H368.711V264.43C368.711 265.003 368.483 265.552 368.078 265.957C367.673 266.362 367.124 266.59 366.551 266.59Z" fill="white"/>
<path opacity="0.2" d="M237.631 262.75H368.711V258.91H237.631V262.75Z" fill="black"/>
<path d="M233.832 259.92H372.512C373.086 259.917 373.635 259.688 374.04 259.281C374.445 258.874 374.672 258.324 374.672 257.75C374.672 257.177 374.444 256.628 374.039 256.223C373.634 255.818 373.085 255.59 372.512 255.59H233.832C233.259 255.59 232.71 255.818 232.305 256.223C231.899 256.628 231.672 257.177 231.672 257.75C231.672 258.324 231.899 258.874 232.304 259.281C232.709 259.688 233.258 259.917 233.832 259.92Z" fill="#FE6100"/>
<path opacity="0.6" d="M233.832 259.92H372.512C373.086 259.917 373.635 259.688 374.04 259.281C374.445 258.874 374.672 258.324 374.672 257.75C374.672 257.177 374.444 256.628 374.039 256.223C373.634 255.818 373.085 255.59 372.512 255.59H233.832C233.259 255.59 232.71 255.818 232.305 256.223C231.899 256.628 231.672 257.177 231.672 257.75C231.672 258.324 231.899 258.874 232.304 259.281C232.709 259.688 233.258 259.917 233.832 259.92Z" fill="white"/>
<path d="M383.977 185C385.155 181.749 386.055 178.401 386.666 174.994C387.278 171.582 387.047 168.069 385.994 164.77C385.819 164.272 384.32 160.953 383.802 161.001C383.44 161.001 384.347 164.122 384.159 164.409C382.344 167.483 381.813 171.225 382.055 174.769C382.322 178.239 382.967 181.667 383.977 184.993" fill="#263238"/>
<path d="M383.376 202.12L383.979 171.897C384.352 163.426 379.811 156.146 371.462 156L370.689 156.033C366.939 156.189 363.385 157.773 360.733 160.47C358.081 163.166 356.526 166.778 356.378 170.586C356.096 177.905 355.873 186.043 356.083 189.969C356.515 198.094 364.602 199.019 364.602 199.019C364.602 199.019 364.602 199.744 364.602 202.126L376.672 209L379.555 208.727L383.376 202.12Z" fill="#FFBE9D"/>
<path d="M364 198.664C367.95 198.494 371.768 197.223 375 195C375 195 372.583 201.391 364.007 200.981L364 198.664Z" fill="#6F4439"/>
<path d="M359 177.988C359.01 178.26 359.121 178.517 359.309 178.706C359.497 178.894 359.748 179 360.009 178.999C360.136 179.004 360.263 178.982 360.383 178.935C360.502 178.888 360.611 178.816 360.704 178.724C360.796 178.632 360.87 178.521 360.921 178.399C360.972 178.277 360.999 178.145 361 178.012C360.993 177.74 360.883 177.482 360.696 177.293C360.509 177.104 360.258 176.999 359.997 177.001C359.869 176.996 359.742 177.018 359.622 177.065C359.502 177.112 359.393 177.184 359.3 177.276C359.207 177.368 359.133 177.478 359.081 177.6C359.03 177.723 359.002 177.854 359 177.988Z" fill="#263238"/>
<path d="M358.022 173.985C358.187 174.094 359.108 173.581 360.459 173.546C361.811 173.511 362.825 173.95 362.961 173.83C363.098 173.71 362.861 173.576 362.422 173.372C361.819 173.108 361.114 172.98 360.402 173.003C359.699 173.022 359.024 173.197 358.475 173.501C358.072 173.73 357.943 173.94 358.022 173.985Z" fill="#263238"/>
<path d="M370 177.988C370.009 178.26 370.119 178.517 370.307 178.705C370.494 178.894 370.745 179 371.006 178.999C371.134 179.004 371.261 178.982 371.381 178.935C371.501 178.888 371.61 178.816 371.703 178.724C371.795 178.632 371.869 178.521 371.92 178.399C371.972 178.277 371.999 178.145 372 178.012C371.992 177.74 371.883 177.482 371.695 177.293C371.507 177.104 371.256 176.999 370.994 177.001C370.866 176.995 370.738 177.017 370.618 177.064C370.498 177.111 370.388 177.182 370.296 177.274C370.203 177.367 370.129 177.477 370.078 177.6C370.027 177.723 370.001 177.855 370 177.988Z" fill="#263238"/>
<path d="M370.022 173.985C370.187 174.094 371.108 173.581 372.459 173.546C373.811 173.511 374.824 173.95 374.961 173.83C375.097 173.711 374.867 173.576 374.414 173.372C373.814 173.108 373.111 172.979 372.402 173.003C371.699 173.022 371.024 173.197 370.475 173.501C370.072 173.73 369.943 173.94 370.022 173.985Z" fill="#263238"/>
<path d="M365.844 183.883C365.248 183.696 364.633 183.598 364.016 183.592C363.731 183.592 363.464 183.516 363.422 183.293C363.385 182.95 363.439 182.601 363.577 182.294C363.82 181.475 364.069 180.621 364.331 179.719C365.369 176.061 366.111 173.049 365.986 173.001C365.862 172.952 364.912 175.888 363.874 179.552C363.624 180.455 363.381 181.315 363.155 182.141C362.992 182.551 362.956 183.015 363.055 183.453C363.1 183.569 363.168 183.671 363.252 183.751C363.336 183.832 363.435 183.889 363.541 183.918C363.701 183.96 363.864 183.976 364.028 183.967C364.634 184.031 365.244 184.003 365.844 183.883Z" fill="#263238"/>
<path d="M370.014 171.923C370.176 172.124 371.221 171.876 372.509 171.816C373.797 171.756 374.871 171.872 374.993 171.654C375.045 171.551 374.813 171.376 374.354 171.227C373.743 171.048 373.084 170.973 372.428 171.009C371.772 171.044 371.135 171.189 370.565 171.432C370.136 171.624 369.944 171.825 370.014 171.923Z" fill="#263238"/>
<path d="M358.041 168.923C358.304 169.115 359.302 168.892 360.511 168.86C361.719 168.828 362.743 168.951 362.973 168.741C363.072 168.641 362.901 168.45 362.448 168.286C361.822 168.076 361.129 167.979 360.434 168.004C359.739 168.029 359.065 168.177 358.475 168.432C358.055 168.628 357.923 168.832 358.041 168.923Z" fill="#263238"/>
<path d="M384 178.315C384.119 178.253 388.952 176.547 389 181.771C389.047 186.995 384.018 185.97 384.012 185.82C384.006 185.671 384 178.315 384 178.315Z" fill="#FFBE9D"/>
<path d="M385.006 183.543C385.006 183.543 385.128 183.612 385.33 183.687C385.468 183.736 385.617 183.76 385.767 183.76C385.917 183.76 386.065 183.736 386.204 183.687C386.923 183.461 387.514 182.498 387.53 181.465C387.544 180.976 387.428 180.49 387.19 180.044C387.122 179.866 387.005 179.705 386.849 179.573C386.693 179.441 386.502 179.343 386.293 179.285C386.156 179.255 386.011 179.267 385.884 179.318C385.757 179.369 385.655 179.457 385.597 179.565C385.508 179.722 385.597 179.839 385.516 179.845C385.435 179.852 385.37 179.757 385.427 179.517C385.461 179.375 385.553 179.247 385.686 179.155C385.871 179.037 386.102 178.983 386.333 179.005C386.61 179.05 386.869 179.154 387.085 179.307C387.302 179.46 387.469 179.657 387.571 179.88C387.864 180.373 388.011 180.92 387.999 181.472C387.999 182.628 387.279 183.708 386.301 183.954C386.12 184.001 385.929 184.012 385.743 183.987C385.556 183.962 385.379 183.902 385.225 183.81C385.022 183.673 384.982 183.543 385.006 183.543Z" fill="#6F4439"/>
<path d="M360.174 161.328C359.297 160.83 361.914 157.921 364.04 156.918C367.262 155.398 372.224 154.461 375.214 155.338C378.81 156.387 381.794 158.227 383.592 161.6C385.332 165.033 386.154 168.881 385.976 172.75C386.02 173.931 385.758 175.102 385.216 176.143C384.468 177.372 383.025 178.136 383.089 179.842C383.108 180.149 383.068 180.456 382.972 180.746C382.876 181.037 382.725 181.305 382.529 181.536C381.543 182.618 380.338 181.602 379.783 180.586C378.598 178.408 378.462 175.811 378.359 173.321C378.186 171.543 378.299 169.748 378.694 168.008C378.958 167.085 379.377 166.209 379.596 165.272C379.732 164.809 379.768 164.32 379.701 163.84C379.635 163.361 379.467 162.902 379.21 162.497C379.077 162.333 378.93 162.182 378.772 162.045C378.021 161.368 377.108 160.91 376.129 160.718C375.149 160.525 374.137 160.605 373.197 160.949C370.162 162.058 364.981 163.718 363.628 162.656C361.695 161.129 361.211 160.132 361.211 160.132L360.174 161.328Z" fill="#263238"/>
<path d="M369.826 184C369.638 184 369.625 185.507 368.486 186.572C367.347 187.637 366.014 187.471 366 187.684C365.987 187.897 366.309 187.976 366.885 188C367.639 188.013 368.373 187.717 368.962 187.163C369.522 186.622 369.884 185.848 369.973 185.002C370.061 184.371 369.913 183.992 369.826 184Z" fill="#263238"/>
<path d="M360.14 205.014C356.72 205.229 350.53 207.317 347.91 212.285C345.714 216.442 350.619 227.077 350.5 227.5L351.614 236.357L360.034 249L394.514 241.191L396.677 246.71L398 207.189C398 207.189 363.566 204.799 360.14 205.014Z" fill="#FE6100"/>
<path d="M400.33 264.286L403 226.994L402.379 209.306L386.107 202.186L384.492 196L367.645 203.909L364.114 200.037L362.639 204.406L358.948 205.6L350.345 220.185L350.465 244.576C350.465 244.576 349.557 274.409 350.278 284.758C350.321 285.389 350.55 285.994 350.937 286.496C351.324 286.999 351.852 287.377 352.454 287.583C355.44 288.479 358.545 288.926 361.665 288.909C378.638 289.313 401.752 288.246 401.752 288.246L401.985 287.51C402.649 285.454 402.845 283.278 402.559 281.139L400.33 264.286Z" fill="#FE6100"/>
<path d="M365.281 212.016C365.492 211.073 365.661 210.324 365.788 209.776C365.84 209.54 365.889 209.346 365.933 209.194C365.933 209.061 365.987 208.994 365.993 209C366.002 209.067 366.002 209.135 365.993 209.201C365.993 209.362 365.933 209.555 365.891 209.796C365.782 210.351 365.637 211.134 365.456 212.056C365.075 214.022 364.502 216.864 363.862 220.388C363.222 223.912 362.534 228.125 362.051 232.839C361.568 237.554 361.447 242.79 361.38 248.273C361.278 259.246 361.543 269.176 361.713 276.358C361.797 279.922 361.87 282.818 361.924 284.871C361.924 285.847 361.924 286.616 361.966 287.191V287.793C361.975 287.861 361.975 287.931 361.966 288C361.966 288 361.966 287.926 361.966 287.793C361.966 287.659 361.966 287.432 361.924 287.191C361.924 286.622 361.857 285.853 361.809 284.877C361.725 282.824 361.61 279.929 361.471 276.371C361.23 269.183 360.922 259.246 361.018 248.286C361.079 242.79 361.248 237.587 361.725 232.806C362.202 228.025 362.932 223.852 363.614 220.335" fill="#263238"/>
<g opacity="0.3">
<path d="M367.795 204.866C367.643 204.986 366.668 214.216 366.668 214.216L384.52 203.434L368.266 211.59L367.795 204.866Z" fill="black"/>
</g>
<path d="M368 204.001C367.736 204.535 367.446 205.054 367.132 205.556C366.593 206.515 365.864 207.855 365.199 209.39L365.034 209.759L364.926 210L364.819 209.765C364.265 208.526 363.789 207.25 363.393 205.945C363.247 205.449 363.139 205.047 363.076 204.765C363.033 204.622 363.007 204.473 363 204.323C363.032 204.323 363.215 204.919 363.551 205.891C363.984 207.173 364.479 208.43 365.034 209.658H364.819L364.984 209.283C365.568 207.961 366.239 206.684 366.992 205.462C367.284 204.993 367.525 204.624 367.702 204.37C367.88 204.115 367.987 203.988 368 204.001Z" fill="#263238"/>
<path d="M386 202C385.925 202.059 385.844 202.11 385.759 202.152L385.055 202.545L382.446 203.981C380.242 205.195 377.23 206.928 373.865 208.812C371.824 209.964 369.894 211.027 368.212 211.917L368.062 212V211.821C368.062 209.509 368.023 207.569 368.01 206.161C368.01 205.471 368.01 204.968 368.01 204.567C367.997 204.379 367.997 204.19 368.01 204.001C368.04 204.188 368.055 204.378 368.055 204.567C368.055 204.968 368.075 205.499 368.114 206.161C368.147 207.542 368.199 209.509 368.251 211.814L368.094 211.717C369.77 210.806 371.694 209.736 373.735 208.584C377.08 206.693 380.118 204.981 382.348 203.808C383.463 203.222 384.37 202.759 385.002 202.428L385.733 202.076C385.819 202.041 385.909 202.016 386 202Z" fill="#263238"/>
<path d="M401 209.18C399.564 209.254 398.141 209.502 396.763 209.92C394.501 210.701 393.082 212.104 393 211.994C393.945 210.828 395.212 209.971 396.64 209.532C398.025 208.975 399.545 208.852 401 209.18Z" fill="#263238"/>
<g opacity="0.3">
<path d="M388.925 260.039C388.513 259.689 387.987 259.502 387.446 259.515C378.253 258.7 369.013 258.56 359.8 259.097L350.443 266.246C350.394 266.402 350.399 266.571 350.458 266.724C350.517 266.877 350.627 267.005 350.768 267.088C351.06 267.244 351.386 267.326 351.717 267.327L359.011 267.99C361.255 268.232 363.512 268.338 365.768 268.308C367.174 268.262 368.58 268.103 369.986 268.109C372.317 268.225 374.641 268.459 376.949 268.812C378.791 269.062 380.659 269.033 382.493 268.726C384.334 268.413 386.027 267.521 387.327 266.18C388.465 264.888 389.143 263.256 389.256 261.538C389.308 261.278 389.305 261.011 389.248 260.754C389.191 260.496 389.081 260.252 388.925 260.039Z" fill="black"/>
</g>
<path d="M315.053 250.291C315.053 250.291 319.839 245.164 321.163 244.473C322.487 243.783 329.867 242.569 329.867 242.569C329.867 242.569 332.23 241.591 333.095 241.936C333.959 242.281 343.122 243.665 343.524 243.715C343.926 243.765 341.567 251.786 341.567 251.786C339.282 252.114 336.956 252.017 334.707 251.498C331.02 250.633 329.75 249.48 329.75 249.48L326.07 248.512L323.814 249.37C323.814 249.37 323.412 252.707 321.797 252.533L321.049 252.014L321.626 248.327L319.263 249.306C319.263 249.306 317.416 252.074 316.036 251.668C314.655 251.263 315.053 250.291 315.053 250.291Z" fill="#EEB19D"/>
<path d="M329.543 245.942C329.425 245.955 329.306 245.955 329.188 245.942C328.956 245.924 328.622 245.892 328.205 245.849L326.754 245.685L326.334 245.639C326.196 245.616 326.055 245.616 325.917 245.639C325.616 245.685 325.316 245.747 325.021 245.824C323.822 246.18 322.619 246.404 322.174 247.116C321.982 247.375 321.837 247.667 321.747 247.977C321.683 248.198 321.665 248.333 321.654 248.333C321.635 248.214 321.644 248.092 321.679 247.977C321.744 247.647 321.877 247.334 322.071 247.059C322.205 246.866 322.37 246.697 322.558 246.557C322.777 246.404 323.016 246.284 323.27 246.201C323.834 245.996 324.407 245.819 324.989 245.671C325.291 245.59 325.597 245.527 325.907 245.483C326.06 245.459 326.216 245.459 326.369 245.483L326.786 245.539L328.238 245.739C328.65 245.799 328.981 245.853 329.213 245.892C329.325 245.893 329.436 245.91 329.543 245.942Z" fill="#B48478"/>
<path d="M316.695 248.586C316.816 248.443 316.948 248.309 317.09 248.188C317.357 247.942 317.749 247.597 318.243 247.184C318.738 246.771 319.339 246.288 320.022 245.786C320.378 245.537 320.734 245.281 321.14 245.039C321.346 244.916 321.559 244.804 321.777 244.704C322.009 244.614 322.247 244.539 322.488 244.48C324.128 244.083 325.792 243.798 327.47 243.626L328.986 243.437C329.171 243.407 329.358 243.391 329.545 243.391C329.366 243.447 329.183 243.486 328.997 243.508L327.492 243.754C326.221 243.978 324.438 244.135 322.545 244.658C322.314 244.715 322.087 244.788 321.866 244.875C321.654 244.97 321.447 245.077 321.247 245.195C320.852 245.43 320.485 245.679 320.136 245.925C319.425 246.416 318.837 246.885 318.332 247.284L317.144 248.241C317.003 248.368 316.854 248.483 316.695 248.586Z" fill="#B48478"/>
<g opacity="0.3">
<path d="M399.152 233.46C398.796 229.969 397.227 226.464 394.355 224.45L370.891 257.956C375.033 260.191 379.634 262.497 384.235 261.515C386.726 260.985 388.91 259.526 390.697 257.729C394.408 253.996 396.422 248.911 397.835 243.851C398.778 240.463 399.504 236.951 399.152 233.46Z" fill="black"/>
</g>
<path d="M401.814 229.414C398.893 239.758 392.313 252.38 390.292 254.917C388.833 256.782 386.971 258.294 384.844 259.337C382.718 260.38 380.384 260.929 378.015 260.941C375.368 260.941 352.992 256.582 346.345 255.28C345.799 255.171 345.296 254.905 344.899 254.513C344.503 254.122 344.23 253.622 344.114 253.077L344.057 252.803L341.086 251.992L342.677 243.982L342.993 243.537L374.994 244.544L384.303 218.614C384.481 218.318 387.168 209.618 394.459 210.013" fill="#FE6100"/>
<path d="M394.456 210.021H394.214C393.977 210.014 393.739 210.02 393.502 210.039C392.576 210.094 391.665 210.31 390.812 210.676C389.449 211.297 388.248 212.224 387.3 213.384C386.02 214.955 385.021 216.736 384.347 218.647C381.995 225.216 378.803 234.14 375.063 244.584L375.045 244.641H374.984L342.998 243.638L343.076 243.598L342.759 244.043V244.008C342.3 246.324 341.813 248.787 341.336 251.277L341.19 252.018L341.122 251.907L344.108 252.712L344.165 252.729V252.783C344.252 253.442 344.562 254.051 345.044 254.509C345.284 254.73 345.561 254.907 345.862 255.032C346.172 255.145 346.493 255.228 346.819 255.277L350.734 256.042L358.384 257.512C363.398 258.462 368.227 259.366 372.835 260.145C373.988 260.337 375.127 260.501 376.251 260.679C376.813 260.75 377.376 260.828 377.927 260.853C378.481 260.86 379.035 260.833 379.585 260.771C381.713 260.543 383.771 259.883 385.635 258.832C387.365 257.839 388.896 256.533 390.15 254.982C390.717 254.235 391.235 253.453 391.702 252.64C392.168 251.847 392.609 251.06 393.026 250.288C395.641 245.404 397.933 240.353 399.886 235.168C400.562 233.332 401.046 231.891 401.352 230.898C401.502 230.411 401.619 230.037 401.708 229.781C401.797 229.525 401.829 229.404 401.829 229.404C401.829 229.404 401.797 229.532 401.726 229.785L401.399 230.909C401.103 231.895 400.63 233.339 399.975 235.179C398.044 240.378 395.766 245.441 393.157 250.335C392.745 251.11 392.303 251.897 391.841 252.694C391.372 253.515 390.851 254.304 390.279 255.057C389.009 256.633 387.456 257.958 385.699 258.964C383.82 260.028 381.743 260.697 379.596 260.931C379.039 260.996 378.478 261.024 377.917 261.017C377.347 260.992 376.789 260.914 376.223 260.843C375.095 260.682 373.952 260.487 372.8 260.312C368.174 259.537 363.359 258.636 358.342 257.69L350.691 256.22L346.777 255.459C346.439 255.407 346.108 255.321 345.788 255.202C345.464 255.071 345.168 254.882 344.912 254.644C344.403 254.16 344.073 253.518 343.976 252.822L344.044 252.893L341.058 252.089L340.977 252.064V251.982C341.023 251.747 341.076 251.495 341.126 251.242C341.621 248.751 342.108 246.289 342.549 243.972V243.951L342.866 243.506L342.895 243.467H342.998L374.999 244.484L374.92 244.538L384.258 218.618C384.939 216.706 385.948 214.926 387.24 213.359C388.2 212.192 389.418 211.265 390.798 210.651C391.658 210.288 392.574 210.08 393.506 210.035C393.743 210.019 393.981 210.019 394.218 210.035L394.456 210.021Z" fill="#263238"/>
<path d="M378.861 250.825C378.829 250.825 378.765 250.416 378.58 249.757C378.334 248.918 377.981 248.115 377.53 247.366C377.072 246.622 376.518 245.941 375.882 245.341C375.395 244.879 375.053 244.63 375.071 244.608C375.165 244.643 375.252 244.692 375.331 244.754C375.554 244.903 375.768 245.066 375.971 245.242C377.325 246.417 378.281 247.984 378.708 249.725C378.774 249.986 378.82 250.251 378.846 250.519C378.867 250.62 378.872 250.723 378.861 250.825Z" fill="#263238"/>
<path d="M393.418 207.041C390.233 207.634 387.241 209.76 386.614 211.25L398.208 232.749C401.875 229.277 408.542 220.928 405.875 215.308C402.541 208.282 396.604 206.448 393.418 207.041Z" fill="#FE6100" stroke="#FE6100"/>
<path d="M348.761 408.78L340.791 407.69L339.691 388.75L347.641 389.85L348.761 408.78Z" fill="#EBB376"/>
<path opacity="0.2" d="M347.641 389.85L339.691 388.76L340.321 399.58L348.271 400.28L347.641 389.85Z" fill="black"/>
<path d="M348.441 297.46L350.381 285.28L395.001 282.61C395.001 282.61 399.751 307.95 396.101 314.7C389.591 326.75 354.491 320.7 344.211 321.85C350.391 347 349.791 396 349.791 396L335.121 397.12C335.121 397.12 323.841 344.25 321.551 319.12C320.001 302.2 334.061 302.62 348.441 297.46Z" fill="#263238"/>
<path d="M351.511 396.73L333.881 397.88L332.371 390.33L351.741 389.44L351.511 396.73Z" fill="#263238"/>
<path d="M330.38 401.71L322.36 402.3L317.34 384.01L325.35 383.43L330.38 401.71Z" fill="#EBB376"/>
<path d="M321.282 402.57H321.142C321.142 402.45 320.732 400.2 319.762 399.67C319.637 399.608 319.5 399.576 319.362 399.576C319.223 399.576 319.086 399.608 318.962 399.67C318.809 399.717 318.677 399.816 318.588 399.949C318.499 400.081 318.458 400.241 318.472 400.4C318.666 401.063 319.082 401.639 319.652 402.03C318.922 401.78 318.127 401.802 317.412 402.09C317.315 402.163 317.239 402.259 317.19 402.369C317.141 402.479 317.121 402.6 317.132 402.72C317.119 402.909 317.16 403.098 317.25 403.264C317.341 403.43 317.476 403.568 317.642 403.66C318.143 403.855 318.7 403.855 319.202 403.66C319.897 403.453 320.567 403.172 321.202 402.82H321.272C321.272 402.82 321.272 402.82 321.272 402.76C321.293 402.734 321.306 402.701 321.308 402.667C321.31 402.633 321.301 402.599 321.282 402.57ZM318.872 400.33C318.872 400.22 318.872 400.08 319.142 399.98H319.232C319.303 399.956 319.378 399.947 319.452 399.956C319.527 399.965 319.598 399.99 319.662 400.03C320.242 400.34 320.662 401.56 320.832 402.29L320.652 402.24C319.862 401.77 318.942 400.87 318.872 400.33ZM317.822 403.27C317.723 403.203 317.643 403.112 317.588 403.005C317.534 402.898 317.508 402.78 317.512 402.66C317.507 402.602 317.516 402.543 317.538 402.489C317.561 402.435 317.596 402.387 317.642 402.35C318.102 402.01 319.562 402.3 320.642 402.62C319.312 403.28 318.292 403.52 317.822 403.27Z" fill="#FE6100"/>
<path opacity="0.2" d="M325.35 383.43L317.34 384.02L320.21 394.47L328.13 393.5L325.35 383.43Z" fill="black"/>
<path d="M314.621 393.18L328.741 389C328.741 389 320.311 341.42 311.741 324.92C312.381 324.71 313.231 324.44 314.281 324.13C316.171 323.56 318.681 322.85 321.631 322.03C342.151 316.34 383.741 305.67 383.741 305.67L364.741 287.94C364.741 287.94 289.061 299.48 287.491 319.42C286.761 329 314.621 393.18 314.621 393.18Z" fill="#263238"/>
<path d="M330.562 389.34L313.562 394.15L310.512 387.08L329.272 382.17L330.562 389.34Z" fill="#263238"/>
<path opacity="0.2" d="M314.301 324.16C316.191 323.59 318.701 322.88 321.651 322.06C321.061 317.22 321.051 311.67 323.381 308.84C328.011 303.2 339.921 299.89 346.701 298.69C352.371 297.69 371.421 295.69 371.421 295.69C371.421 295.69 346.701 293.32 321.421 300.69C308.941 304.35 311.371 316.56 314.301 324.16Z" fill="black"/>
<path d="M271 252V254.65C271 255.44 272.36 256 273.15 256H334.94C335.74 256 337 255.44 337 254.65V252H271Z" fill="#263238"/>
<path d="M261.091 219.51L268.451 253C268.581 253.546 268.884 254.036 269.315 254.396C269.745 254.756 270.281 254.968 270.841 255H311.001C311.259 254.977 311.508 254.897 311.731 254.765C311.954 254.634 312.145 254.454 312.289 254.24C312.434 254.025 312.529 253.781 312.567 253.525C312.606 253.269 312.587 253.008 312.511 252.76L305.161 219.64C305.011 219.134 304.692 218.695 304.257 218.396C303.822 218.098 303.297 217.958 302.771 218H262.611C261.531 218 260.851 218.42 261.091 219.51Z" fill="#263238"/>
<path opacity="0.2" d="M351.14 397.29L333.51 398.44L332 390.89L351.37 390L351.14 397.29Z" fill="#455A64"/>
<path opacity="0.2" d="M330.05 389.17L313.05 393.98L310 386.91L328.76 382L330.05 389.17Z" fill="#455A64"/>
<path d="M321.582 401.48L330.262 399.06C330.405 399.015 330.56 399.028 330.694 399.095C330.828 399.162 330.931 399.279 330.982 399.42L333.332 406.18C333.43 406.545 333.38 406.933 333.192 407.261C333.005 407.589 332.696 407.829 332.332 407.93C329.282 408.72 327.792 408.93 323.962 409.99C321.612 410.64 317.032 412.14 313.682 412.52C310.332 412.9 310.052 409.58 311.432 409.13C314.712 408.03 318.642 404.61 320.342 402.29C320.653 401.889 321.089 401.604 321.582 401.48Z" fill="#263238"/>
<path d="M340 407.7C340 407.56 339.86 405.29 339 404.57C338.872 404.475 338.727 404.408 338.572 404.372C338.417 404.335 338.256 404.331 338.1 404.36C337.938 404.375 337.784 404.442 337.662 404.549C337.54 404.657 337.455 404.801 337.42 404.96C337.456 405.648 337.736 406.3 338.21 406.8C337.541 406.407 336.755 406.262 335.99 406.39C335.881 406.443 335.787 406.521 335.715 406.619C335.644 406.717 335.597 406.83 335.58 406.95C335.533 407.128 335.536 407.316 335.589 407.492C335.642 407.669 335.743 407.827 335.88 407.95C336.331 408.237 336.874 408.344 337.4 408.25C338.114 408.191 338.818 408.05 339.5 407.83C339.511 407.835 339.523 407.838 339.535 407.838C339.547 407.838 339.559 407.835 339.57 407.83V407.77C339.57 407.77 339.76 407.77 339.77 407.7C339.78 407.63 339.94 407.7 339.94 407.7H340ZM337.79 405C337.79 404.89 337.86 404.75 338.12 404.7H338.21C338.285 404.693 338.361 404.703 338.432 404.729C338.503 404.755 338.567 404.796 338.62 404.85C339.13 405.27 339.27 406.54 339.3 407.3L339.14 407.21C338.444 406.655 337.966 405.873 337.79 405ZM336.15 407.65C336.073 407.563 336.019 407.458 335.993 407.344C335.966 407.231 335.969 407.112 336 407C336.006 406.941 336.028 406.885 336.063 406.838C336.098 406.79 336.145 406.753 336.2 406.73C336.71 406.49 338.08 407.08 339.05 407.61C337.61 408 336.55 408 336.15 407.69V407.65Z" fill="#FE6100"/>
<path d="M340.19 406.73L349.19 406.17C349.265 406.16 349.34 406.166 349.413 406.186C349.485 406.206 349.553 406.24 349.611 406.287C349.67 406.333 349.719 406.391 349.755 406.457C349.791 406.523 349.813 406.595 349.82 406.67L350.7 413.77C350.714 413.955 350.691 414.14 350.632 414.316C350.574 414.492 350.481 414.654 350.359 414.794C350.237 414.933 350.089 415.047 349.922 415.129C349.756 415.211 349.575 415.259 349.39 415.27C346.25 415.42 344.74 415.33 340.78 415.55C338.35 415.69 333.56 416.21 330.2 415.88C326.84 415.55 327.26 412.25 328.71 412.09C332.14 411.7 336.71 409.18 338.84 407.26C339.219 406.939 339.694 406.752 340.19 406.73Z" fill="#263238"/>
<path d="M352.09 227.28C352.09 227.28 351.81 228.04 351.3 229.28C350.79 230.52 350.01 232.41 349.06 234.47C346.76 239.47 343.42 245.83 339.93 249.26C339.054 250.183 337.999 250.917 336.83 251.42C333.11 252.85 323.78 253.11 315.45 253.03C307.12 252.95 300 252.53 300 252.53V246.22L327.39 238.92C327.39 238.92 341.83 212.86 350.39 209L352.09 227.28Z" fill="#FE6100"/>
<path opacity="0.2" d="M352.299 229.51C351.779 230.81 351.009 232.64 350.059 234.7C347.759 239.7 344.419 246.06 340.929 249.49C337.379 236.41 350.509 223.96 350.509 223.96L352.299 229.51Z" fill="black"/>
<path opacity="0.6" d="M271 252V254.65C271 255.44 272.36 256 273.15 256H334.94C335.74 256 337 255.44 337 254.65V252H271Z" fill="white"/>
<path opacity="0.2" d="M271 252V254.65C271 255.44 272.36 256 273.15 256H313.9C314.7 256 316 255.44 316 254.65V252H271Z" fill="black"/>
<path d="M261.091 219.51L268.451 253C268.581 253.546 268.884 254.036 269.315 254.396C269.745 254.756 270.281 254.968 270.841 255H311.001C311.259 254.977 311.508 254.897 311.731 254.765C311.954 254.634 312.145 254.454 312.289 254.24C312.434 254.025 312.529 253.781 312.567 253.525C312.606 253.269 312.587 253.008 312.511 252.76L305.161 219.64C305.011 219.134 304.692 218.695 304.257 218.396C303.822 218.098 303.297 217.958 302.771 218H262.611C261.531 218 260.851 218.42 261.091 219.51Z" fill="white"/>
<path d="M261.091 219.51L268.451 253C268.581 253.546 268.884 254.036 269.315 254.396C269.745 254.756 270.281 254.968 270.841 255H309.651C309.909 254.977 310.159 254.896 310.382 254.765C310.605 254.633 310.796 254.454 310.941 254.24C311.087 254.026 311.183 253.782 311.223 253.526C311.262 253.27 311.245 253.008 311.171 252.76L303.821 219.64C303.671 219.134 303.352 218.695 302.917 218.396C302.482 218.098 301.957 217.958 301.431 218H262.611C261.531 218 260.851 218.42 261.091 219.51Z" fill="white"/>
<path opacity="0.2" d="M284.73 241C282.86 241 280.94 239 280.45 236.52C279.96 234.04 281.09 232 283 232C283.343 232.007 283.681 232.075 284 232.2C284.174 233.084 284.553 233.915 285.107 234.626C285.661 235.336 286.375 235.907 287.19 236.29C287.212 236.355 287.228 236.422 287.24 236.49C287.74 239 286.61 241 284.73 241Z" fill="black"/>
</svg>
